<svg width="400" height="400" xmlns="http://www.w3.org/2000/svg" shape-rendering="crispEdges"><path fill="#462C13" d="M0 5h5v5H0zm5 0h5v5H5zm5 0h5v5h-5zm5 0h5v5h-5zm5 0h5v5h-5zm5 0h5v5h-5zm5 0h5v5h-5zm335 0h5v5h-5zm5 0h5v5h-5zm5 0h5v5h-5zm5 0h5v5h-5zm5 0h5v5h-5zm5 0h5v5h-5zm5 0h5v5h-5zM0 10h5v5H0zm5 0h5v5H5zm5 0h5v5h-5zm5 0h5v5h-5zm5 0h5v5h-5zm5 0h5v5h-5zm5 0h5v5h-5zm5 0h5v5h-5zm5 0h5v5h-5zm5 0h5v5h-5zm305 0h5v5h-5zm5 0h5v5h-5zm5 0h5v5h-5zm5 0h5v5h-5zm5 0h5v5h-5zm5 0h5v5h-5zm5 0h5v5h-5zm5 0h5v5h-5zm5 0h5v5h-5zm5 0h5v5h-5zM0 15h5v5H0zm5 0h5v5H5zm5 0h5v5h-5zm5 0h5v5h-5zm5 0h5v5h-5zm5 0h5v5h-5zm5 0h5v5h-5zm5 0h5v5h-5zm5 0h5v5h-5zm5 0h5v5h-5zm5 0h5v5h-5zm295 0h5v5h-5zm5 0h5v5h-5zm5 0h5v5h-5zm5 0h5v5h-5zm5 0h5v5h-5zm5 0h5v5h-5zm5 0h5v5h-5zm5 0h5v5h-5zm5 0h5v5h-5zm5 0h5v5h-5zm5 0h5v5h-5zM0 20h5v5H0zm5 0h5v5H5zm5 0h5v5h-5zm5 0h5v5h-5zm5 0h5v5h-5zm5 0h5v5h-5zm5 0h5v5h-5zm5 0h5v5h-5zm5 0h5v5h-5zm5 0h5v5h-5zm5 0h5v5h-5zm5 0h5v5h-5zm285 0h5v5h-5zm5 0h5v5h-5zm5 0h5v5h-5zm5 0h5v5h-5zm5 0h5v5h-5zm5 0h5v5h-5zm5 0h5v5h-5zm5 0h5v5h-5zm5 0h5v5h-5zm5 0h5v5h-5zm5 0h5v5h-5zm5 0h5v5h-5zM0 25h5v5H0zm5 0h5v5H5zm5 0h5v5h-5zm5 0h5v5h-5zm5 0h5v5h-5zm15 0h5v5h-5zm5 0h5v5h-5zm5 0h5v5h-5zm5 0h5v5h-5zm5 0h5v5h-5zm5 0h5v5h-5zm5 0h5v5h-5zm265 0h5v5h-5zm5 0h5v5h-5zm5 0h5v5h-5zm5 0h5v5h-5zm5 0h5v5h-5zm5 0h5v5h-5zm5 0h5v5h-5zm15 0h5v5h-5zm5 0h5v5h-5zm5 0h5v5h-5zm5 0h5v5h-5zm5 0h5v5h-5zM0 30h5v5H0zm5 0h5v5H5zm5 0h5v5h-5zm5 0h5v5h-5zm5 0h5v5h-5zm5 0h5v5h-5zm20 0h5v5h-5zm5 0h5v5h-5zm5 0h5v5h-5zm5 0h5v5h-5zm5 0h5v5h-5zm5 0h5v5h-5zm255 0h5v5h-5zm5 0h5v5h-5zm5 0h5v5h-5zm5 0h5v5h-5zm5 0h5v5h-5zm5 0h5v5h-5zm20 0h5v5h-5zm5 0h5v5h-5zm5 0h5v5h-5zm5 0h5v5h-5zm5 0h5v5h-5zm5 0h5v5h-5zM5 35h5v5H5zm5 0h5v5h-5zm5 0h5v5h-5zm5 0h5v5h-5zm5 0h5v5h-5zm25 0h5v5h-5zm5 0h5v5h-5zm5 0h5v5h-5zm5 0h5v5h-5zm5 0h5v5h-5zm5 0h5v5h-5zm245 0h5v5h-5zm5 0h5v5h-5zm5 0h5v5h-5zm5 0h5v5h-5zm5 0h5v5h-5zm5 0h5v5h-5zm25 0h5v5h-5zm5 0h5v5h-5zm5 0h5v5h-5zm5 0h5v5h-5zm5 0h5v5h-5zM5 40h5v5H5zm5 0h5v5h-5zm5 0h5v5h-5zm5 0h5v5h-5zm5 0h5v5h-5zm5 0h5v5h-5zm30 0h5v5h-5zm5 0h5v5h-5zm5 0h5v5h-5zm5 0h5v5h-5zm5 0h5v5h-5zm5 0h5v5h-5zm5 0h5v5h-5zm215 0h5v5h-5zm5 0h5v5h-5zm5 0h5v5h-5zm5 0h5v5h-5zm5 0h5v5h-5zm5 0h5v5h-5zm5 0h5v5h-5zm30 0h5v5h-5zm5 0h5v5h-5zm5 0h5v5h-5zm5 0h5v5h-5zm5 0h5v5h-5zm5 0h5v5h-5zM10 45h5v5h-5zm5 0h5v5h-5zm5 0h5v5h-5zm5 0h5v5h-5zm5 0h5v5h-5zm35 0h5v5h-5zm5 0h5v5h-5zm5 0h5v5h-5zm5 0h5v5h-5zm5 0h5v5h-5zm5 0h5v5h-5zm5 0h5v5h-5zm205 0h5v5h-5zm5 0h5v5h-5zm5 0h5v5h-5zm5 0h5v5h-5zm5 0h5v5h-5zm5 0h5v5h-5zm5 0h5v5h-5zm35 0h5v5h-5zm5 0h5v5h-5zm5 0h5v5h-5zm5 0h5v5h-5zm5 0h5v5h-5zM15 50h5v5h-5zm5 0h5v5h-5zm5 0h5v5h-5zm5 0h5v5h-5zm5 0h5v5h-5zm35 0h5v5h-5zm5 0h5v5h-5zm5 0h5v5h-5zm5 0h5v5h-5zm5 0h5v5h-5zm5 0h5v5h-5zm5 0h5v5h-5zm195 0h5v5h-5zm5 0h5v5h-5zm5 0h5v5h-5zm5 0h5v5h-5zm5 0h5v5h-5zm5 0h5v5h-5zm5 0h5v5h-5zm35 0h5v5h-5zm5 0h5v5h-5zm5 0h5v5h-5zm5 0h5v5h-5zm5 0h5v5h-5zM20 55h5v5h-5zm5 0h5v5h-5zm5 0h5v5h-5zm5 0h5v5h-5zm5 0h5v5h-5zm40 0h5v5h-5zm5 0h5v5h-5zm5 0h5v5h-5zm5 0h5v5h-5zm5 0h5v5h-5zm5 0h5v5h-5zm185 0h5v5h-5zm5 0h5v5h-5zm5 0h5v5h-5zm5 0h5v5h-5zm5 0h5v5h-5zm5 0h5v5h-5zm40 0h5v5h-5zm5 0h5v5h-5zm5 0h5v5h-5zm5 0h5v5h-5zm5 0h5v5h-5zM20 60h5v5h-5zm5 0h5v5h-5zm5 0h5v5h-5zm5 0h5v5h-5zm5 0h5v5h-5zm45 0h5v5h-5zm5 0h5v5h-5zm5 0h5v5h-5zm5 0h5v5h-5zm5 0h5v5h-5zm5 0h5v5h-5zm175 0h5v5h-5zm5 0h5v5h-5zm5 0h5v5h-5zm5 0h5v5h-5zm5 0h5v5h-5zm5 0h5v5h-5zm45 0h5v5h-5zm5 0h5v5h-5zm5 0h5v5h-5zm5 0h5v5h-5zm5 0h5v5h-5zM25 65h5v5h-5zm5 0h5v5h-5zm5 0h5v5h-5zm5 0h5v5h-5zm5 0h5v5h-5zm45 0h5v5h-5zm5 0h5v5h-5zm5 0h5v5h-5zm5 0h5v5h-5zm5 0h5v5h-5zm5 0h5v5h-5zm5 0h5v5h-5zm155 0h5v5h-5zm5 0h5v5h-5zm5 0h5v5h-5zm5 0h5v5h-5zm5 0h5v5h-5zm5 0h5v5h-5zm5 0h5v5h-5zm45 0h5v5h-5zm5 0h5v5h-5zm5 0h5v5h-5zm5 0h5v5h-5zm5 0h5v5h-5zM30 70h5v5h-5zm5 0h5v5h-5zm5 0h5v5h-5zm5 0h5v5h-5zm5 0h5v5h-5zm45 0h5v5h-5zm5 0h5v5h-5zm5 0h5v5h-5zm5 0h5v5h-5zm5 0h5v5h-5zm5 0h5v5h-5zm155 0h5v5h-5zm5 0h5v5h-5zm5 0h5v5h-5zm5 0h5v5h-5zm5 0h5v5h-5zm5 0h5v5h-5zm45 0h5v5h-5zm5 0h5v5h-5zm5 0h5v5h-5zm5 0h5v5h-5zm5 0h5v5h-5zM35 75h5v5h-5zm5 0h5v5h-5zm5 0h5v5h-5zm5 0h5v5h-5zm5 0h5v5h-5zm45 0h5v5h-5zm5 0h5v5h-5zm5 0h5v5h-5zm175 0h5v5h-5zm5 0h5v5h-5zm5 0h5v5h-5zm45 0h5v5h-5zm5 0h5v5h-5zm5 0h5v5h-5zm5 0h5v5h-5zm5 0h5v5h-5zM35 80h5v5h-5zm5 0h5v5h-5zm5 0h5v5h-5zm5 0h5v5h-5zm5 0h5v5h-5zm285 0h5v5h-5zm5 0h5v5h-5zm5 0h5v5h-5zm5 0h5v5h-5zm5 0h5v5h-5zM35 85h5v5h-5zm5 0h5v5h-5zm5 0h5v5h-5zm5 0h5v5h-5zm5 0h5v5h-5zm5 0h5v5h-5zm275 0h5v5h-5zm5 0h5v5h-5zm5 0h5v5h-5zm5 0h5v5h-5zm5 0h5v5h-5zm5 0h5v5h-5zM40 90h5v5h-5zm5 0h5v5h-5zm5 0h5v5h-5zm5 0h5v5h-5zm5 0h5v5h-5zm5 0h5v5h-5zm265 0h5v5h-5zm5 0h5v5h-5zm5 0h5v5h-5zm5 0h5v5h-5zm5 0h5v5h-5zm5 0h5v5h-5zM45 95h5v5h-5zm5 0h5v5h-5zm5 0h5v5h-5zm5 0h5v5h-5zm5 0h5v5h-5zm5 0h5v5h-5zm255 0h5v5h-5zm5 0h5v5h-5zm5 0h5v5h-5zm5 0h5v5h-5zm5 0h5v5h-5zm5 0h5v5h-5zm-300 5h5v5h-5zm5 0h5v5h-5zm5 0h5v5h-5zm5 0h5v5h-5zm5 0h5v5h-5zm5 0h5v5h-5zm245 0h5v5h-5zm5 0h5v5h-5zm5 0h5v5h-5zm5 0h5v5h-5zm5 0h5v5h-5zm5 0h5v5h-5zm-290 5h5v5h-5zm5 0h5v5h-5zm5 0h5v5h-5zm5 0h5v5h-5zm5 0h5v5h-5zm5 0h5v5h-5zm235 0h5v5h-5zm5 0h5v5h-5zm5 0h5v5h-5zm5 0h5v5h-5zm5 0h5v5h-5zm5 0h5v5h-5zm-280 5h5v5h-5zm5 0h5v5h-5zm5 0h5v5h-5zm5 0h5v5h-5zm5 0h5v5h-5zm235 0h5v5h-5zm5 0h5v5h-5zm5 0h5v5h-5zm5 0h5v5h-5zm5 0h5v5h-5zm-275 5h5v5h-5zm5 0h5v5h-5zm5 0h5v5h-5zm5 0h5v5h-5zm5 0h5v5h-5zm235 0h5v5h-5zm5 0h5v5h-5zm5 0h5v5h-5zm5 0h5v5h-5zm5 0h5v5h-5zm-270 5h5v5h-5zm5 0h5v5h-5zm5 0h5v5h-5zm5 0h5v5h-5zm5 0h5v5h-5zm225 0h5v5h-5zm5 0h5v5h-5zm5 0h5v5h-5zm5 0h5v5h-5zm5 0h5v5h-5zm-260 5h5v5h-5zm5 0h5v5h-5zm5 0h5v5h-5zm5 0h5v5h-5zm5 0h5v5h-5zm215 0h5v5h-5zm5 0h5v5h-5zm5 0h5v5h-5zm5 0h5v5h-5zm5 0h5v5h-5zm-250 5h5v5h-5zm5 0h5v5h-5zm5 0h5v5h-5zm5 0h5v5h-5zm5 0h5v5h-5zm205 0h5v5h-5zm5 0h5v5h-5zm5 0h5v5h-5zm5 0h5v5h-5zm5 0h5v5h-5zm-240 5h5v5h-5zm5 0h5v5h-5zm5 0h5v5h-5zm5 0h5v5h-5zm5 0h5v5h-5zm195 0h5v5h-5zm5 0h5v5h-5zm5 0h5v5h-5zm5 0h5v5h-5zm5 0h5v5h-5zm-230 5h5v5h-5zm5 0h5v5h-5zm5 0h5v5h-5zm5 0h5v5h-5zm5 0h5v5h-5zm185 0h5v5h-5zm5 0h5v5h-5zm5 0h5v5h-5zm5 0h5v5h-5zm5 0h5v5h-5zm-220 5h5v5h-5zm5 0h5v5h-5zm5 0h5v5h-5zm5 0h5v5h-5zm5 0h5v5h-5zm175 0h5v5h-5zm5 0h5v5h-5zm5 0h5v5h-5zm5 0h5v5h-5zm5 0h5v5h-5zm-210 5h5v5h-5zm5 0h5v5h-5zm5 0h5v5h-5zm5 0h5v5h-5zm5 0h5v5h-5zm165 0h5v5h-5zm5 0h5v5h-5zm5 0h5v5h-5zm5 0h5v5h-5zm5 0h5v5h-5zm-200 5h5v5h-5zm5 0h5v5h-5zm5 0h5v5h-5zm5 0h5v5h-5zm5 0h5v5h-5zm155 0h5v5h-5zm5 0h5v5h-5zm5 0h5v5h-5zm5 0h5v5h-5zm5 0h5v5h-5zm-195 5h5v5h-5zm5 0h5v5h-5zm5 0h5v5h-5zm5 0h5v5h-5zm5 0h5v5h-5zm155 0h5v5h-5zm5 0h5v5h-5zm5 0h5v5h-5zm5 0h5v5h-5zm5 0h5v5h-5zm-190 5h5v5h-5zm5 0h5v5h-5zm5 0h5v5h-5zm5 0h5v5h-5zm5 0h5v5h-5zm145 0h5v5h-5zm5 0h5v5h-5zm5 0h5v5h-5zm5 0h5v5h-5zm5 0h5v5h-5zm-180 5h5v5h-5zm5 0h5v5h-5zm5 0h5v5h-5zm5 0h5v5h-5zm5 0h5v5h-5zm135 0h5v5h-5zm5 0h5v5h-5zm5 0h5v5h-5zm5 0h5v5h-5zm5 0h5v5h-5zm-170 5h5v5h-5zm5 0h5v5h-5zm5 0h5v5h-5zm5 0h5v5h-5zm5 0h5v5h-5zm125 0h5v5h-5zm5 0h5v5h-5zm5 0h5v5h-5zm5 0h5v5h-5zm5 0h5v5h-5zm-160 5h5v5h-5zm5 0h5v5h-5zm5 0h5v5h-5zm5 0h5v5h-5zm5 0h5v5h-5zm115 0h5v5h-5zm5 0h5v5h-5zm5 0h5v5h-5zm5 0h5v5h-5zm5 0h5v5h-5zm-150 5h5v5h-5zm5 0h5v5h-5zm5 0h5v5h-5zm5 0h5v5h-5zm5 0h5v5h-5zm105 0h5v5h-5zm5 0h5v5h-5zm5 0h5v5h-5zm5 0h5v5h-5zm5 0h5v5h-5zm-140 5h5v5h-5zm5 0h5v5h-5zm5 0h5v5h-5zm5 0h5v5h-5zm5 0h5v5h-5zm95 0h5v5h-5zm5 0h5v5h-5zm5 0h5v5h-5zm5 0h5v5h-5zm5 0h5v5h-5zm-130 5h5v5h-5zm5 0h5v5h-5zm5 0h5v5h-5zm5 0h5v5h-5zm5 0h5v5h-5zm85 0h5v5h-5zm5 0h5v5h-5zm5 0h5v5h-5zm5 0h5v5h-5zm5 0h5v5h-5zm-120 5h5v5h-5zm5 0h5v5h-5zm5 0h5v5h-5zm5 0h5v5h-5zm5 0h5v5h-5zm75 0h5v5h-5zm5 0h5v5h-5zm5 0h5v5h-5zm5 0h5v5h-5zm5 0h5v5h-5zm-110 5h5v5h-5zm5 0h5v5h-5zm5 0h5v5h-5zm5 0h5v5h-5zm5 0h5v5h-5zm65 0h5v5h-5zm5 0h5v5h-5zm5 0h5v5h-5zm5 0h5v5h-5zm5 0h5v5h-5zm-100 5h5v5h-5zm5 0h5v5h-5zm5 0h5v5h-5zm5 0h5v5h-5zm5 0h5v5h-5zm55 0h5v5h-5zm5 0h5v5h-5zm5 0h5v5h-5zm5 0h5v5h-5zm5 0h5v5h-5zm-90 5h5v5h-5zm5 0h5v5h-5zm5 0h5v5h-5zm5 0h5v5h-5zm5 0h5v5h-5zm45 0h5v5h-5zm5 0h5v5h-5zm5 0h5v5h-5zm5 0h5v5h-5zm5 0h5v5h-5zm-80 5h5v5h-5zm5 0h5v5h-5zm5 0h5v5h-5zm5 0h5v5h-5zm5 0h5v5h-5zm35 0h5v5h-5zm5 0h5v5h-5zm5 0h5v5h-5zm5 0h5v5h-5zm5 0h5v5h-5zm-70 5h5v5h-5zm5 0h5v5h-5zm5 0h5v5h-5zm5 0h5v5h-5zm5 0h5v5h-5zm25 0h5v5h-5zm5 0h5v5h-5zm5 0h5v5h-5zm5 0h5v5h-5zm5 0h5v5h-5zm-60 5h5v5h-5zm5 0h5v5h-5zm5 0h5v5h-5zm5 0h5v5h-5zm5 0h5v5h-5zm15 0h5v5h-5zm5 0h5v5h-5zm5 0h5v5h-5zm5 0h5v5h-5zm5 0h5v5h-5zm-50 5h5v5h-5zm5 0h5v5h-5zm5 0h5v5h-5zm5 0h5v5h-5zm5 0h5v5h-5zm5 0h5v5h-5zm5 0h5v5h-5zm5 0h5v5h-5zm5 0h5v5h-5zm5 0h5v5h-5zm-40 5h5v5h-5zm5 0h5v5h-5zm5 0h5v5h-5zm5 0h5v5h-5zm5 0h5v5h-5zm5 0h5v5h-5zm5 0h5v5h-5zm5 0h5v5h-5zm-30 5h5v5h-5zm5 0h5v5h-5zm5 0h5v5h-5zm5 0h5v5h-5zm5 0h5v5h-5zm5 0h5v5h-5zm-25 5h5v5h-5zm5 0h5v5h-5zm5 0h5v5h-5zm5 0h5v5h-5zm5 0h5v5h-5zm5 0h5v5h-5zm-30 5h5v5h-5zm5 0h5v5h-5zm5 0h5v5h-5zm5 0h5v5h-5zm5 0h5v5h-5zm5 0h5v5h-5zm5 0h5v5h-5zm5 0h5v5h-5zm-40 5h5v5h-5zm5 0h5v5h-5zm5 0h5v5h-5zm5 0h5v5h-5zm5 0h5v5h-5zm5 0h5v5h-5zm5 0h5v5h-5zm5 0h5v5h-5zm5 0h5v5h-5zm5 0h5v5h-5zm-50 5h5v5h-5zm5 0h5v5h-5zm5 0h5v5h-5zm5 0h5v5h-5zm5 0h5v5h-5zm15 0h5v5h-5zm5 0h5v5h-5zm5 0h5v5h-5zm5 0h5v5h-5zm5 0h5v5h-5zm-60 5h5v5h-5zm5 0h5v5h-5zm5 0h5v5h-5zm5 0h5v5h-5zm5 0h5v5h-5zm25 0h5v5h-5zm5 0h5v5h-5zm5 0h5v5h-5zm5 0h5v5h-5zm5 0h5v5h-5zm-165 5h5v5h-5zm5 0h5v5h-5zm85 0h5v5h-5zm5 0h5v5h-5zm5 0h5v5h-5zm5 0h5v5h-5zm5 0h5v5h-5zm5 0h5v5h-5zm35 0h5v5h-5zm5 0h5v5h-5zm5 0h5v5h-5zm5 0h5v5h-5zm5 0h5v5h-5zm5 0h5v5h-5zm85 0h5v5h-5zm5 0h5v5h-5zm-270 5h5v5h-5zm5 0h5v5h-5zm5 0h5v5h-5zm80 0h5v5h-5zm5 0h5v5h-5zm5 0h5v5h-5zm5 0h5v5h-5zm5 0h5v5h-5zm5 0h5v5h-5zm45 0h5v5h-5zm5 0h5v5h-5zm5 0h5v5h-5zm5 0h5v5h-5zm5 0h5v5h-5zm5 0h5v5h-5zm80 0h5v5h-5zm5 0h5v5h-5zm5 0h5v5h-5zm-275 5h5v5h-5zm5 0h5v5h-5zm5 0h5v5h-5zm5 0h5v5h-5zm70 0h5v5h-5zm5 0h5v5h-5zm5 0h5v5h-5zm5 0h5v5h-5zm5 0h5v5h-5zm5 0h5v5h-5zm55 0h5v5h-5zm5 0h5v5h-5zm5 0h5v5h-5zm5 0h5v5h-5zm5 0h5v5h-5zm5 0h5v5h-5zm70 0h5v5h-5zm5 0h5v5h-5zm5 0h5v5h-5zm5 0h5v5h-5zm-280 5h5v5h-5zm5 0h5v5h-5zm5 0h5v5h-5zm5 0h5v5h-5zm5 0h5v5h-5zm5 0h5v5h-5zm60 0h5v5h-5zm5 0h5v5h-5zm5 0h5v5h-5zm5 0h5v5h-5zm5 0h5v5h-5zm75 0h5v5h-5zm5 0h5v5h-5zm5 0h5v5h-5zm5 0h5v5h-5zm5 0h5v5h-5zm60 0h5v5h-5zm5 0h5v5h-5zm5 0h5v5h-5zm5 0h5v5h-5zm5 0h5v5h-5zm5 0h5v5h-5zm-290 5h5v5h-5zm5 0h5v5h-5zm5 0h5v5h-5zm5 0h5v5h-5zm5 0h5v5h-5zm5 0h5v5h-5zm60 0h5v5h-5zm5 0h5v5h-5zm5 0h5v5h-5zm5 0h5v5h-5zm5 0h5v5h-5zm85 0h5v5h-5zm5 0h5v5h-5zm5 0h5v5h-5zm5 0h5v5h-5zm5 0h5v5h-5zm60 0h5v5h-5zm5 0h5v5h-5zm5 0h5v5h-5zm5 0h5v5h-5zm5 0h5v5h-5zm5 0h5v5h-5zm-300 5h5v5h-5zm5 0h5v5h-5zm5 0h5v5h-5zm5 0h5v5h-5zm5 0h5v5h-5zm5 0h5v5h-5zm60 0h5v5h-5zm5 0h5v5h-5zm5 0h5v5h-5zm5 0h5v5h-5zm5 0h5v5h-5zm95 0h5v5h-5zm5 0h5v5h-5zm5 0h5v5h-5zm5 0h5v5h-5zm5 0h5v5h-5zm60 0h5v5h-5zm5 0h5v5h-5zm5 0h5v5h-5zm5 0h5v5h-5zm5 0h5v5h-5zm5 0h5v5h-5zm-310 5h5v5h-5zm5 0h5v5h-5zm5 0h5v5h-5zm5 0h5v5h-5zm5 0h5v5h-5zm5 0h5v5h-5zm60 0h5v5h-5zm5 0h5v5h-5zm5 0h5v5h-5zm5 0h5v5h-5zm5 0h5v5h-5zm105 0h5v5h-5zm5 0h5v5h-5zm5 0h5v5h-5zm5 0h5v5h-5zm5 0h5v5h-5zm60 0h5v5h-5zm5 0h5v5h-5zm5 0h5v5h-5zm5 0h5v5h-5zm5 0h5v5h-5zm5 0h5v5h-5zm-320 5h5v5h-5zm5 0h5v5h-5zm5 0h5v5h-5zm5 0h5v5h-5zm5 0h5v5h-5zm5 0h5v5h-5zm60 0h5v5h-5zm5 0h5v5h-5zm5 0h5v5h-5zm5 0h5v5h-5zm5 0h5v5h-5zm115 0h5v5h-5zm5 0h5v5h-5zm5 0h5v5h-5zm5 0h5v5h-5zm5 0h5v5h-5zm60 0h5v5h-5zm5 0h5v5h-5zm5 0h5v5h-5zm5 0h5v5h-5zm5 0h5v5h-5zm5 0h5v5h-5zm-325 5h5v5h-5zm5 0h5v5h-5zm5 0h5v5h-5zm5 0h5v5h-5zm5 0h5v5h-5zm60 0h5v5h-5zm5 0h5v5h-5zm5 0h5v5h-5zm5 0h5v5h-5zm5 0h5v5h-5zm125 0h5v5h-5zm5 0h5v5h-5zm5 0h5v5h-5zm5 0h5v5h-5zm5 0h5v5h-5zm60 0h5v5h-5zm5 0h5v5h-5zm5 0h5v5h-5zm5 0h5v5h-5zm5 0h5v5h-5zm-325 5h5v5h-5zm5 0h5v5h-5zm5 0h5v5h-5zm5 0h5v5h-5zm5 0h5v5h-5zm45 0h5v5h-5zm5 0h5v5h-5zm5 0h5v5h-5zm5 0h5v5h-5zm5 0h5v5h-5zm5 0h5v5h-5zm5 0h5v5h-5zm135 0h5v5h-5zm5 0h5v5h-5zm5 0h5v5h-5zm5 0h5v5h-5zm5 0h5v5h-5zm5 0h5v5h-5zm5 0h5v5h-5zm45 0h5v5h-5zm5 0h5v5h-5zm5 0h5v5h-5zm5 0h5v5h-5zm5 0h5v5h-5zm-330 5h5v5h-5zm5 0h5v5h-5zm5 0h5v5h-5zm5 0h5v5h-5zm5 0h5v5h-5zm45 0h5v5h-5zm5 0h5v5h-5zm5 0h5v5h-5zm5 0h5v5h-5zm5 0h5v5h-5zm5 0h5v5h-5zm5 0h5v5h-5zm145 0h5v5h-5zm5 0h5v5h-5zm5 0h5v5h-5zm5 0h5v5h-5zm5 0h5v5h-5zm5 0h5v5h-5zm5 0h5v5h-5zm45 0h5v5h-5zm5 0h5v5h-5zm5 0h5v5h-5zm5 0h5v5h-5zm5 0h5v5h-5zm-340 5h5v5h-5zm5 0h5v5h-5zm5 0h5v5h-5zm5 0h5v5h-5zm5 0h5v5h-5zm45 0h5v5h-5zm5 0h5v5h-5zm5 0h5v5h-5zm5 0h5v5h-5zm5 0h5v5h-5zm5 0h5v5h-5zm5 0h5v5h-5zm155 0h5v5h-5zm5 0h5v5h-5zm5 0h5v5h-5zm5 0h5v5h-5zm5 0h5v5h-5zm5 0h5v5h-5zm5 0h5v5h-5zm45 0h5v5h-5zm5 0h5v5h-5zm5 0h5v5h-5zm5 0h5v5h-5zm5 0h5v5h-5zm-350 5h5v5h-5zm5 0h5v5h-5zm5 0h5v5h-5zm5 0h5v5h-5zm5 0h5v5h-5zm45 0h5v5h-5zm5 0h5v5h-5zm5 0h5v5h-5zm5 0h5v5h-5zm5 0h5v5h-5zm5 0h5v5h-5zm175 0h5v5h-5zm5 0h5v5h-5zm5 0h5v5h-5zm5 0h5v5h-5zm5 0h5v5h-5zm5 0h5v5h-5zm45 0h5v5h-5zm5 0h5v5h-5zm5 0h5v5h-5zm5 0h5v5h-5zm5 0h5v5h-5zm-355 5h5v5h-5zm5 0h5v5h-5zm5 0h5v5h-5zm5 0h5v5h-5zm5 0h5v5h-5zm40 0h5v5h-5zm5 0h5v5h-5zm5 0h5v5h-5zm5 0h5v5h-5zm5 0h5v5h-5zm5 0h5v5h-5zm185 0h5v5h-5zm5 0h5v5h-5zm5 0h5v5h-5zm5 0h5v5h-5zm5 0h5v5h-5zm5 0h5v5h-5zm40 0h5v5h-5zm5 0h5v5h-5zm5 0h5v5h-5zm5 0h5v5h-5zm5 0h5v5h-5zm-360 5h5v5h-5zm5 0h5v5h-5zm5 0h5v5h-5zm5 0h5v5h-5zm5 0h5v5h-5zm35 0h5v5h-5zm5 0h5v5h-5zm5 0h5v5h-5zm5 0h5v5h-5zm5 0h5v5h-5zm5 0h5v5h-5zm5 0h5v5h-5zm195 0h5v5h-5zm5 0h5v5h-5zm5 0h5v5h-5zm5 0h5v5h-5zm5 0h5v5h-5zm5 0h5v5h-5zm5 0h5v5h-5zm35 0h5v5h-5zm5 0h5v5h-5zm5 0h5v5h-5zm5 0h5v5h-5zm5 0h5v5h-5zm-370 5h5v5h-5zm5 0h5v5h-5zm5 0h5v5h-5zm5 0h5v5h-5zm5 0h5v5h-5zm35 0h5v5h-5zm5 0h5v5h-5zm5 0h5v5h-5zm5 0h5v5h-5zm5 0h5v5h-5zm5 0h5v5h-5zm5 0h5v5h-5zm205 0h5v5h-5zm5 0h5v5h-5zm5 0h5v5h-5zm5 0h5v5h-5zm5 0h5v5h-5zm5 0h5v5h-5zm5 0h5v5h-5zm35 0h5v5h-5zm5 0h5v5h-5zm5 0h5v5h-5zm5 0h5v5h-5zm5 0h5v5h-5zM5 355h5v5H5zm5 0h5v5h-5zm5 0h5v5h-5zm5 0h5v5h-5zm5 0h5v5h-5zm5 0h5v5h-5zm30 0h5v5h-5zm5 0h5v5h-5zm5 0h5v5h-5zm5 0h5v5h-5zm5 0h5v5h-5zm5 0h5v5h-5zm5 0h5v5h-5zm215 0h5v5h-5zm5 0h5v5h-5zm5 0h5v5h-5zm5 0h5v5h-5zm5 0h5v5h-5zm5 0h5v5h-5zm5 0h5v5h-5zm30 0h5v5h-5zm5 0h5v5h-5zm5 0h5v5h-5zm5 0h5v5h-5zm5 0h5v5h-5zm5 0h5v5h-5zM5 360h5v5H5zm5 0h5v5h-5zm5 0h5v5h-5zm5 0h5v5h-5zm5 0h5v5h-5zm25 0h5v5h-5zm5 0h5v5h-5zm5 0h5v5h-5zm5 0h5v5h-5zm5 0h5v5h-5zm5 0h5v5h-5zm245 0h5v5h-5zm5 0h5v5h-5zm5 0h5v5h-5zm5 0h5v5h-5zm5 0h5v5h-5zm5 0h5v5h-5zm25 0h5v5h-5zm5 0h5v5h-5zm5 0h5v5h-5zm5 0h5v5h-5zm5 0h5v5h-5zM5 365h5v5H5zm5 0h5v5h-5zm5 0h5v5h-5zm5 0h5v5h-5zm5 0h5v5h-5zm20 0h5v5h-5zm5 0h5v5h-5zm5 0h5v5h-5zm5 0h5v5h-5zm5 0h5v5h-5zm5 0h5v5h-5zm255 0h5v5h-5zm5 0h5v5h-5zm5 0h5v5h-5zm5 0h5v5h-5zm5 0h5v5h-5zm5 0h5v5h-5zm20 0h5v5h-5zm5 0h5v5h-5zm5 0h5v5h-5zm5 0h5v5h-5zm5 0h5v5h-5zM0 370h5v5H0zm5 0h5v5H5zm5 0h5v5h-5zm5 0h5v5h-5zm5 0h5v5h-5zm15 0h5v5h-5zm5 0h5v5h-5zm5 0h5v5h-5zm5 0h5v5h-5zm5 0h5v5h-5zm5 0h5v5h-5zm5 0h5v5h-5zm265 0h5v5h-5zm5 0h5v5h-5zm5 0h5v5h-5zm5 0h5v5h-5zm5 0h5v5h-5zm5 0h5v5h-5zm5 0h5v5h-5zm15 0h5v5h-5zm5 0h5v5h-5zm5 0h5v5h-5zm5 0h5v5h-5zm5 0h5v5h-5zM0 375h5v5H0zm5 0h5v5H5zm5 0h5v5h-5zm5 0h5v5h-5zm5 0h5v5h-5zm5 0h5v5h-5zm5 0h5v5h-5zm5 0h5v5h-5zm5 0h5v5h-5zm5 0h5v5h-5zm5 0h5v5h-5zm5 0h5v5h-5zm285 0h5v5h-5zm5 0h5v5h-5zm5 0h5v5h-5zm5 0h5v5h-5zm5 0h5v5h-5zm5 0h5v5h-5zm5 0h5v5h-5zm5 0h5v5h-5zm5 0h5v5h-5zm5 0h5v5h-5zm5 0h5v5h-5zm5 0h5v5h-5zM0 380h5v5H0zm5 0h5v5H5zm5 0h5v5h-5zm5 0h5v5h-5zm5 0h5v5h-5zm5 0h5v5h-5zm5 0h5v5h-5zm5 0h5v5h-5zm5 0h5v5h-5zm5 0h5v5h-5zm5 0h5v5h-5zm295 0h5v5h-5zm5 0h5v5h-5zm5 0h5v5h-5zm5 0h5v5h-5zm5 0h5v5h-5zm5 0h5v5h-5zm5 0h5v5h-5zm5 0h5v5h-5zm5 0h5v5h-5zm5 0h5v5h-5zm5 0h5v5h-5zM0 385h5v5H0zm5 0h5v5H5zm5 0h5v5h-5zm5 0h5v5h-5zm5 0h5v5h-5zm5 0h5v5h-5zm5 0h5v5h-5zm5 0h5v5h-5zm5 0h5v5h-5zm5 0h5v5h-5zm305 0h5v5h-5zm5 0h5v5h-5zm5 0h5v5h-5zm5 0h5v5h-5zm5 0h5v5h-5zm5 0h5v5h-5zm5 0h5v5h-5zm5 0h5v5h-5zm5 0h5v5h-5zm5 0h5v5h-5zM0 390h5v5H0zm5 0h5v5H5zm5 0h5v5h-5zm5 0h5v5h-5zm5 0h5v5h-5zm5 0h5v5h-5zm5 0h5v5h-5zm5 0h5v5h-5zm325 0h5v5h-5zm5 0h5v5h-5zm5 0h5v5h-5zm5 0h5v5h-5zm5 0h5v5h-5zm5 0h5v5h-5zm5 0h5v5h-5zm5 0h5v5h-5z"/></svg>