<svg width="400" height="400" xmlns="http://www.w3.org/2000/svg" shape-rendering="crispEdges"><path fill="#462C13" d="M175 50h5v5h-5zm5 0h5v5h-5zm5 0h5v5h-5zm5 0h5v5h-5zm5 0h5v5h-5zm5 0h5v5h-5zm5 0h5v5h-5zm5 0h5v5h-5zm5 0h5v5h-5zm5 0h5v5h-5zm-65 5h5v5h-5zm5 0h5v5h-5zm5 0h5v5h-5zm5 0h5v5h-5zm5 0h5v5h-5zm5 0h5v5h-5zm5 0h5v5h-5zm5 0h5v5h-5zm5 0h5v5h-5zm5 0h5v5h-5zm5 0h5v5h-5zm5 0h5v5h-5zm5 0h5v5h-5zm5 0h5v5h-5zm5 0h5v5h-5zm5 0h5v5h-5zm5 0h5v5h-5zm5 0h5v5h-5zm-95 5h5v5h-5zm5 0h5v5h-5zm5 0h5v5h-5zm5 0h5v5h-5zm5 0h5v5h-5zm5 0h5v5h-5zm5 0h5v5h-5zm5 0h5v5h-5zm5 0h5v5h-5zm5 0h5v5h-5zm5 0h5v5h-5zm5 0h5v5h-5zm5 0h5v5h-5zm5 0h5v5h-5zm5 0h5v5h-5zm5 0h5v5h-5zm5 0h5v5h-5zm5 0h5v5h-5zm5 0h5v5h-5zm5 0h5v5h-5zm5 0h5v5h-5zm5 0h5v5h-5zm-120 5h5v5h-5zm5 0h5v5h-5zm5 0h5v5h-5zm5 0h5v5h-5zm5 0h5v5h-5zm5 0h5v5h-5zm5 0h5v5h-5zm5 0h5v5h-5zm5 0h5v5h-5zm5 0h5v5h-5zm5 0h5v5h-5zm5 0h5v5h-5zm5 0h5v5h-5zm5 0h5v5h-5zm5 0h5v5h-5zm5 0h5v5h-5zm5 0h5v5h-5zm5 0h5v5h-5zm5 0h5v5h-5zm5 0h5v5h-5zm5 0h5v5h-5zm5 0h5v5h-5zm5 0h5v5h-5zm5 0h5v5h-5zm5 0h5v5h-5zm5 0h5v5h-5zm5 0h5v5h-5zm5 0h5v5h-5zm-140 5h5v5h-5zm5 0h5v5h-5zm5 0h5v5h-5zm5 0h5v5h-5zm5 0h5v5h-5zm5 0h5v5h-5zm5 0h5v5h-5zm5 0h5v5h-5zm5 0h5v5h-5zm5 0h5v5h-5zm5 0h5v5h-5zm5 0h5v5h-5zm5 0h5v5h-5zm5 0h5v5h-5zm5 0h5v5h-5zm5 0h5v5h-5zm5 0h5v5h-5zm5 0h5v5h-5zm5 0h5v5h-5zm5 0h5v5h-5zm5 0h5v5h-5zm5 0h5v5h-5zm5 0h5v5h-5zm5 0h5v5h-5zm5 0h5v5h-5zm5 0h5v5h-5zm5 0h5v5h-5zm5 0h5v5h-5zm5 0h5v5h-5zm5 0h5v5h-5zm-155 5h5v5h-5zm5 0h5v5h-5zm5 0h5v5h-5zm5 0h5v5h-5zm5 0h5v5h-5zm5 0h5v5h-5zm5 0h5v5h-5zm5 0h5v5h-5zm5 0h5v5h-5zm5 0h5v5h-5zm5 0h5v5h-5zm5 0h5v5h-5zm5 0h5v5h-5zm5 0h5v5h-5zm5 0h5v5h-5zm5 0h5v5h-5zm5 0h5v5h-5zm5 0h5v5h-5zm5 0h5v5h-5zm5 0h5v5h-5zm5 0h5v5h-5zm5 0h5v5h-5zm5 0h5v5h-5zm5 0h5v5h-5zm5 0h5v5h-5zm5 0h5v5h-5zm5 0h5v5h-5zm5 0h5v5h-5zm5 0h5v5h-5zm5 0h5v5h-5zm5 0h5v5h-5zm5 0h5v5h-5zm5 0h5v5h-5zm5 0h5v5h-5zm-170 5h5v5h-5zm5 0h5v5h-5zm5 0h5v5h-5zm5 0h5v5h-5zm5 0h5v5h-5zm5 0h5v5h-5zm5 0h5v5h-5zm5 0h5v5h-5zm5 0h5v5h-5zm5 0h5v5h-5zm5 0h5v5h-5zm5 0h5v5h-5zm5 0h5v5h-5zm5 0h5v5h-5zm5 0h5v5h-5zm5 0h5v5h-5zm5 0h5v5h-5zm5 0h5v5h-5zm5 0h5v5h-5zm5 0h5v5h-5zm5 0h5v5h-5zm5 0h5v5h-5zm5 0h5v5h-5zm5 0h5v5h-5zm5 0h5v5h-5zm5 0h5v5h-5zm5 0h5v5h-5zm5 0h5v5h-5zm5 0h5v5h-5zm5 0h5v5h-5zm5 0h5v5h-5zm5 0h5v5h-5zm5 0h5v5h-5zm5 0h5v5h-5zm5 0h5v5h-5zm5 0h5v5h-5zm-180 5h5v5h-5zm5 0h5v5h-5zm5 0h5v5h-5zm5 0h5v5h-5zm5 0h5v5h-5zm5 0h5v5h-5zm5 0h5v5h-5zm5 0h5v5h-5zm5 0h5v5h-5zm5 0h5v5h-5zm5 0h5v5h-5zm5 0h5v5h-5zm5 0h5v5h-5zm5 0h5v5h-5zm5 0h5v5h-5zm5 0h5v5h-5zm5 0h5v5h-5zm5 0h5v5h-5zm5 0h5v5h-5zm5 0h5v5h-5zm5 0h5v5h-5zm5 0h5v5h-5zm5 0h5v5h-5zm5 0h5v5h-5zm5 0h5v5h-5zm5 0h5v5h-5zm5 0h5v5h-5zm5 0h5v5h-5zm5 0h5v5h-5zm5 0h5v5h-5zm5 0h5v5h-5zm5 0h5v5h-5zm5 0h5v5h-5zm5 0h5v5h-5zm5 0h5v5h-5zm5 0h5v5h-5zm5 0h5v5h-5zm5 0h5v5h-5zm-190 5h5v5h-5zm5 0h5v5h-5zm5 0h5v5h-5zm5 0h5v5h-5zm5 0h5v5h-5zm5 0h5v5h-5zm5 0h5v5h-5zm5 0h5v5h-5zm5 0h5v5h-5zm5 0h5v5h-5zm5 0h5v5h-5zm5 0h5v5h-5zm5 0h5v5h-5zm5 0h5v5h-5zm5 0h5v5h-5zm5 0h5v5h-5zm5 0h5v5h-5zm5 0h5v5h-5zm5 0h5v5h-5zm5 0h5v5h-5zm5 0h5v5h-5zm5 0h5v5h-5zm5 0h5v5h-5zm5 0h5v5h-5zm5 0h5v5h-5zm5 0h5v5h-5zm5 0h5v5h-5zm5 0h5v5h-5zm5 0h5v5h-5zm5 0h5v5h-5zm5 0h5v5h-5zm5 0h5v5h-5zm5 0h5v5h-5zm5 0h5v5h-5zm5 0h5v5h-5zm5 0h5v5h-5zm5 0h5v5h-5zm5 0h5v5h-5zm5 0h5v5h-5zm5 0h5v5h-5zM95 95h5v5h-5zm5 0h5v5h-5zm5 0h5v5h-5zm5 0h5v5h-5zm5 0h5v5h-5zm5 0h5v5h-5zm5 0h5v5h-5zm5 0h5v5h-5zm5 0h5v5h-5zm5 0h5v5h-5zm5 0h5v5h-5zm5 0h5v5h-5zm5 0h5v5h-5zm5 0h5v5h-5zm5 0h5v5h-5zm5 0h5v5h-5zm5 0h5v5h-5zm5 0h5v5h-5zm5 0h5v5h-5zm5 0h5v5h-5zm5 0h5v5h-5zm5 0h5v5h-5zm5 0h5v5h-5zm5 0h5v5h-5zm5 0h5v5h-5zm5 0h5v5h-5zm5 0h5v5h-5zm5 0h5v5h-5zm5 0h5v5h-5zm5 0h5v5h-5zm5 0h5v5h-5zm5 0h5v5h-5zm5 0h5v5h-5zm5 0h5v5h-5zm5 0h5v5h-5zm5 0h5v5h-5zm5 0h5v5h-5zm5 0h5v5h-5zm5 0h5v5h-5zm5 0h5v5h-5zm5 0h5v5h-5zm5 0h5v5h-5zm-210 5h5v5h-5zm5 0h5v5h-5zm5 0h5v5h-5zm5 0h5v5h-5zm5 0h5v5h-5zm5 0h5v5h-5zm5 0h5v5h-5zm5 0h5v5h-5zm5 0h5v5h-5zm5 0h5v5h-5zm5 0h5v5h-5zm5 0h5v5h-5zm5 0h5v5h-5zm5 0h5v5h-5zm5 0h5v5h-5zm5 0h5v5h-5zm5 0h5v5h-5zm5 0h5v5h-5zm5 0h5v5h-5zm5 0h5v5h-5zm5 0h5v5h-5zm5 0h5v5h-5zm5 0h5v5h-5zm5 0h5v5h-5zm5 0h5v5h-5zm5 0h5v5h-5zm5 0h5v5h-5zm5 0h5v5h-5zm5 0h5v5h-5zm5 0h5v5h-5zm5 0h5v5h-5zm5 0h5v5h-5zm5 0h5v5h-5zm5 0h5v5h-5zm5 0h5v5h-5zm5 0h5v5h-5zm5 0h5v5h-5zm5 0h5v5h-5zm5 0h5v5h-5zm5 0h5v5h-5zm5 0h5v5h-5zm5 0h5v5h-5zm5 0h5v5h-5zm5 0h5v5h-5zm-220 5h5v5h-5zm5 0h5v5h-5zm5 0h5v5h-5zm5 0h5v5h-5zm5 0h5v5h-5zm5 0h5v5h-5zm5 0h5v5h-5zm5 0h5v5h-5zm5 0h5v5h-5zm5 0h5v5h-5zm5 0h5v5h-5zm5 0h5v5h-5zm5 0h5v5h-5zm5 0h5v5h-5zm5 0h5v5h-5zm5 0h5v5h-5zm5 0h5v5h-5zm5 0h5v5h-5zm5 0h5v5h-5zm5 0h5v5h-5zm5 0h5v5h-5zm5 0h5v5h-5zm5 0h5v5h-5zm5 0h5v5h-5zm5 0h5v5h-5zm5 0h5v5h-5zm5 0h5v5h-5zm5 0h5v5h-5zm5 0h5v5h-5zm5 0h5v5h-5zm5 0h5v5h-5zm5 0h5v5h-5zm5 0h5v5h-5zm5 0h5v5h-5zm5 0h5v5h-5zm5 0h5v5h-5zm5 0h5v5h-5zm5 0h5v5h-5zm5 0h5v5h-5zm5 0h5v5h-5zm5 0h5v5h-5zm5 0h5v5h-5zm5 0h5v5h-5zm5 0h5v5h-5zm5 0h5v5h-5zm5 0h5v5h-5zm-230 5h5v5h-5zm5 0h5v5h-5zm5 0h5v5h-5zm5 0h5v5h-5zm5 0h5v5h-5zm5 0h5v5h-5zm5 0h5v5h-5zm5 0h5v5h-5zm5 0h5v5h-5zm5 0h5v5h-5zm5 0h5v5h-5zm5 0h5v5h-5zm5 0h5v5h-5zm5 0h5v5h-5zm5 0h5v5h-5zm5 0h5v5h-5zm5 0h5v5h-5zm5 0h5v5h-5zm5 0h5v5h-5zm5 0h5v5h-5zm5 0h5v5h-5zm5 0h5v5h-5zm5 0h5v5h-5zm5 0h5v5h-5zm5 0h5v5h-5zm5 0h5v5h-5zm5 0h5v5h-5zm5 0h5v5h-5zm5 0h5v5h-5zm5 0h5v5h-5zm5 0h5v5h-5zm5 0h5v5h-5zm5 0h5v5h-5zm5 0h5v5h-5zm5 0h5v5h-5zm5 0h5v5h-5zm5 0h5v5h-5zm5 0h5v5h-5zm5 0h5v5h-5zm5 0h5v5h-5zm5 0h5v5h-5zm5 0h5v5h-5zm5 0h5v5h-5zm5 0h5v5h-5zm5 0h5v5h-5zm5 0h5v5h-5zm5 0h5v5h-5zm5 0h5v5h-5zm-240 5h5v5h-5zm5 0h5v5h-5zm5 0h5v5h-5zm5 0h5v5h-5zm5 0h5v5h-5zm5 0h5v5h-5zm5 0h5v5h-5zm5 0h5v5h-5zm5 0h5v5h-5zm5 0h5v5h-5zm5 0h5v5h-5zm5 0h5v5h-5zm5 0h5v5h-5zm5 0h5v5h-5zm5 0h5v5h-5zm5 0h5v5h-5zm5 0h5v5h-5zm5 0h5v5h-5zm5 0h5v5h-5zm5 0h5v5h-5zm5 0h5v5h-5zm5 0h5v5h-5zm5 0h5v5h-5zm5 0h5v5h-5zm5 0h5v5h-5zm5 0h5v5h-5zm5 0h5v5h-5zm5 0h5v5h-5zm5 0h5v5h-5zm5 0h5v5h-5zm5 0h5v5h-5zm5 0h5v5h-5zm5 0h5v5h-5zm5 0h5v5h-5zm5 0h5v5h-5zm5 0h5v5h-5zm5 0h5v5h-5zm5 0h5v5h-5zm5 0h5v5h-5zm5 0h5v5h-5zm5 0h5v5h-5zm5 0h5v5h-5zm5 0h5v5h-5zm5 0h5v5h-5zm5 0h5v5h-5zm5 0h5v5h-5zm5 0h5v5h-5zm5 0h5v5h-5zm5 0h5v5h-5zm5 0h5v5h-5zm-245 5h5v5h-5zm5 0h5v5h-5zm5 0h5v5h-5zm5 0h5v5h-5zm5 0h5v5h-5zm5 0h5v5h-5zm5 0h5v5h-5zm5 0h5v5h-5zm5 0h5v5h-5zm5 0h5v5h-5zm5 0h5v5h-5zm5 0h5v5h-5zm5 0h5v5h-5zm5 0h5v5h-5zm5 0h5v5h-5zm5 0h5v5h-5zm5 0h5v5h-5zm5 0h5v5h-5zm5 0h5v5h-5zm5 0h5v5h-5zm5 0h5v5h-5zm5 0h5v5h-5zm5 0h5v5h-5zm5 0h5v5h-5zm5 0h5v5h-5zm5 0h5v5h-5zm5 0h5v5h-5zm5 0h5v5h-5zm5 0h5v5h-5zm5 0h5v5h-5zm5 0h5v5h-5zm5 0h5v5h-5zm5 0h5v5h-5zm5 0h5v5h-5zm5 0h5v5h-5zm5 0h5v5h-5zm5 0h5v5h-5zm5 0h5v5h-5zm5 0h5v5h-5zm5 0h5v5h-5zm5 0h5v5h-5zm5 0h5v5h-5zm5 0h5v5h-5zm5 0h5v5h-5zm5 0h5v5h-5zm5 0h5v5h-5zm5 0h5v5h-5zm5 0h5v5h-5zm5 0h5v5h-5zm5 0h5v5h-5zm-250 5h5v5h-5zm5 0h5v5h-5zm5 0h5v5h-5zm5 0h5v5h-5zm5 0h5v5h-5zm5 0h5v5h-5zm5 0h5v5h-5zm5 0h5v5h-5zm5 0h5v5h-5zm5 0h5v5h-5zm5 0h5v5h-5zm5 0h5v5h-5zm5 0h5v5h-5zm5 0h5v5h-5zm5 0h5v5h-5zm5 0h5v5h-5zm5 0h5v5h-5zm5 0h5v5h-5zm5 0h5v5h-5zm5 0h5v5h-5zm5 0h5v5h-5zm5 0h5v5h-5zm5 0h5v5h-5zm5 0h5v5h-5zm5 0h5v5h-5zm5 0h5v5h-5zm5 0h5v5h-5zm5 0h5v5h-5zm5 0h5v5h-5zm5 0h5v5h-5zm5 0h5v5h-5zm5 0h5v5h-5zm5 0h5v5h-5zm5 0h5v5h-5zm5 0h5v5h-5zm5 0h5v5h-5zm5 0h5v5h-5zm5 0h5v5h-5zm5 0h5v5h-5zm5 0h5v5h-5zm5 0h5v5h-5zm5 0h5v5h-5zm5 0h5v5h-5zm5 0h5v5h-5zm5 0h5v5h-5zm5 0h5v5h-5zm5 0h5v5h-5zm5 0h5v5h-5zm5 0h5v5h-5zm5 0h5v5h-5zm5 0h5v5h-5zm5 0h5v5h-5zm-260 5h5v5h-5zm5 0h5v5h-5zm5 0h5v5h-5zm5 0h5v5h-5zm5 0h5v5h-5zm5 0h5v5h-5zm5 0h5v5h-5zm5 0h5v5h-5zm5 0h5v5h-5zm5 0h5v5h-5zm5 0h5v5h-5zm5 0h5v5h-5zm5 0h5v5h-5zm5 0h5v5h-5zm5 0h5v5h-5zm5 0h5v5h-5zm5 0h5v5h-5zm5 0h5v5h-5zm5 0h5v5h-5zm5 0h5v5h-5zm5 0h5v5h-5zm5 0h5v5h-5zm5 0h5v5h-5zm5 0h5v5h-5zm5 0h5v5h-5zm5 0h5v5h-5zm5 0h5v5h-5zm5 0h5v5h-5zm5 0h5v5h-5zm5 0h5v5h-5zm5 0h5v5h-5zm5 0h5v5h-5zm5 0h5v5h-5zm5 0h5v5h-5zm5 0h5v5h-5zm5 0h5v5h-5zm5 0h5v5h-5zm5 0h5v5h-5zm5 0h5v5h-5zm5 0h5v5h-5zm5 0h5v5h-5zm5 0h5v5h-5zm5 0h5v5h-5zm5 0h5v5h-5zm5 0h5v5h-5zm5 0h5v5h-5zm5 0h5v5h-5zm5 0h5v5h-5zm5 0h5v5h-5zm5 0h5v5h-5zm5 0h5v5h-5zm5 0h5v5h-5zm5 0h5v5h-5zm5 0h5v5h-5zm-265 5h5v5h-5zm5 0h5v5h-5zm5 0h5v5h-5zm5 0h5v5h-5zm5 0h5v5h-5zm5 0h5v5h-5zm5 0h5v5h-5zm5 0h5v5h-5zm5 0h5v5h-5zm5 0h5v5h-5zm5 0h5v5h-5zm5 0h5v5h-5zm5 0h5v5h-5zm5 0h5v5h-5zm5 0h5v5h-5zm5 0h5v5h-5zm5 0h5v5h-5zm5 0h5v5h-5zm5 0h5v5h-5zm5 0h5v5h-5zm5 0h5v5h-5zm5 0h5v5h-5zm5 0h5v5h-5zm5 0h5v5h-5zm5 0h5v5h-5zm5 0h5v5h-5zm5 0h5v5h-5zm5 0h5v5h-5zm5 0h5v5h-5zm5 0h5v5h-5zm5 0h5v5h-5zm5 0h5v5h-5zm5 0h5v5h-5zm5 0h5v5h-5zm5 0h5v5h-5zm5 0h5v5h-5zm5 0h5v5h-5zm5 0h5v5h-5zm5 0h5v5h-5zm5 0h5v5h-5zm5 0h5v5h-5zm5 0h5v5h-5zm5 0h5v5h-5zm5 0h5v5h-5zm5 0h5v5h-5zm5 0h5v5h-5zm5 0h5v5h-5zm5 0h5v5h-5zm5 0h5v5h-5zm5 0h5v5h-5zm5 0h5v5h-5zm5 0h5v5h-5zm5 0h5v5h-5zm5 0h5v5h-5zm-265 5h5v5h-5zm5 0h5v5h-5zm5 0h5v5h-5zm5 0h5v5h-5zm5 0h5v5h-5zm5 0h5v5h-5zm5 0h5v5h-5zm5 0h5v5h-5zm5 0h5v5h-5zm5 0h5v5h-5zm5 0h5v5h-5zm5 0h5v5h-5zm5 0h5v5h-5zm5 0h5v5h-5zm5 0h5v5h-5zm5 0h5v5h-5zm5 0h5v5h-5zm5 0h5v5h-5zm5 0h5v5h-5zm5 0h5v5h-5zm5 0h5v5h-5zm5 0h5v5h-5zm5 0h5v5h-5zm5 0h5v5h-5zm5 0h5v5h-5zm5 0h5v5h-5zm5 0h5v5h-5zm5 0h5v5h-5zm5 0h5v5h-5zm5 0h5v5h-5zm5 0h5v5h-5zm5 0h5v5h-5zm5 0h5v5h-5zm5 0h5v5h-5zm5 0h5v5h-5zm5 0h5v5h-5zm5 0h5v5h-5zm5 0h5v5h-5zm5 0h5v5h-5zm5 0h5v5h-5zm5 0h5v5h-5zm5 0h5v5h-5zm5 0h5v5h-5zm5 0h5v5h-5zm5 0h5v5h-5zm5 0h5v5h-5zm5 0h5v5h-5zm5 0h5v5h-5zm5 0h5v5h-5zm5 0h5v5h-5zm5 0h5v5h-5zm5 0h5v5h-5zm5 0h5v5h-5zm5 0h5v5h-5zm-270 5h5v5h-5zm5 0h5v5h-5zm5 0h5v5h-5zm5 0h5v5h-5zm5 0h5v5h-5zm5 0h5v5h-5zm5 0h5v5h-5zm5 0h5v5h-5zm5 0h5v5h-5zm5 0h5v5h-5zm5 0h5v5h-5zm5 0h5v5h-5zm5 0h5v5h-5zm5 0h5v5h-5zm5 0h5v5h-5zm5 0h5v5h-5zm5 0h5v5h-5zm5 0h5v5h-5zm5 0h5v5h-5zm5 0h5v5h-5zm5 0h5v5h-5zm5 0h5v5h-5zm5 0h5v5h-5zm5 0h5v5h-5zm5 0h5v5h-5zm5 0h5v5h-5zm5 0h5v5h-5zm5 0h5v5h-5zm5 0h5v5h-5zm5 0h5v5h-5zm5 0h5v5h-5zm5 0h5v5h-5zm5 0h5v5h-5zm5 0h5v5h-5zm5 0h5v5h-5zm5 0h5v5h-5zm5 0h5v5h-5zm5 0h5v5h-5zm5 0h5v5h-5zm5 0h5v5h-5zm5 0h5v5h-5zm5 0h5v5h-5zm5 0h5v5h-5zm5 0h5v5h-5zm5 0h5v5h-5zm5 0h5v5h-5zm5 0h5v5h-5zm5 0h5v5h-5zm5 0h5v5h-5zm5 0h5v5h-5zm5 0h5v5h-5zm5 0h5v5h-5zm5 0h5v5h-5zm5 0h5v5h-5zm5 0h5v5h-5zm5 0h5v5h-5zm-275 5h5v5h-5zm5 0h5v5h-5zm5 0h5v5h-5zm5 0h5v5h-5zm5 0h5v5h-5zm5 0h5v5h-5zm5 0h5v5h-5zm5 0h5v5h-5zm5 0h5v5h-5zm5 0h5v5h-5zm5 0h5v5h-5zm5 0h5v5h-5zm5 0h5v5h-5zm5 0h5v5h-5zm5 0h5v5h-5zm5 0h5v5h-5zm5 0h5v5h-5zm5 0h5v5h-5zm5 0h5v5h-5zm5 0h5v5h-5zm5 0h5v5h-5zm5 0h5v5h-5zm5 0h5v5h-5zm5 0h5v5h-5zm5 0h5v5h-5zm5 0h5v5h-5zm5 0h5v5h-5zm5 0h5v5h-5zm5 0h5v5h-5zm5 0h5v5h-5zm5 0h5v5h-5zm5 0h5v5h-5zm5 0h5v5h-5zm5 0h5v5h-5zm5 0h5v5h-5zm5 0h5v5h-5zm5 0h5v5h-5zm5 0h5v5h-5zm5 0h5v5h-5zm5 0h5v5h-5zm5 0h5v5h-5zm5 0h5v5h-5zm5 0h5v5h-5zm5 0h5v5h-5zm5 0h5v5h-5zm5 0h5v5h-5zm5 0h5v5h-5zm5 0h5v5h-5zm5 0h5v5h-5zm5 0h5v5h-5zm5 0h5v5h-5zm5 0h5v5h-5zm5 0h5v5h-5zm5 0h5v5h-5zm5 0h5v5h-5zm5 0h5v5h-5zm-280 5h5v5h-5zm5 0h5v5h-5zm5 0h5v5h-5zm5 0h5v5h-5zm5 0h5v5h-5zm5 0h5v5h-5zm5 0h5v5h-5zm5 0h5v5h-5zm5 0h5v5h-5zm5 0h5v5h-5zm5 0h5v5h-5zm5 0h5v5h-5zm5 0h5v5h-5zm5 0h5v5h-5zm5 0h5v5h-5zm5 0h5v5h-5zm5 0h5v5h-5zm5 0h5v5h-5zm5 0h5v5h-5zm5 0h5v5h-5zm5 0h5v5h-5zm5 0h5v5h-5zm5 0h5v5h-5zm5 0h5v5h-5zm5 0h5v5h-5zm5 0h5v5h-5zm5 0h5v5h-5zm5 0h5v5h-5zm5 0h5v5h-5zm5 0h5v5h-5zm5 0h5v5h-5zm5 0h5v5h-5zm5 0h5v5h-5zm5 0h5v5h-5zm5 0h5v5h-5zm5 0h5v5h-5zm5 0h5v5h-5zm5 0h5v5h-5zm5 0h5v5h-5zm5 0h5v5h-5zm5 0h5v5h-5zm5 0h5v5h-5zm5 0h5v5h-5zm5 0h5v5h-5zm5 0h5v5h-5zm5 0h5v5h-5zm5 0h5v5h-5zm5 0h5v5h-5zm5 0h5v5h-5zm5 0h5v5h-5zm5 0h5v5h-5zm5 0h5v5h-5zm5 0h5v5h-5zm5 0h5v5h-5zm5 0h5v5h-5zm5 0h5v5h-5zm5 0h5v5h-5zm5 0h5v5h-5zm-285 5h5v5h-5zm5 0h5v5h-5zm5 0h5v5h-5zm5 0h5v5h-5zm5 0h5v5h-5zm5 0h5v5h-5zm5 0h5v5h-5zm5 0h5v5h-5zm5 0h5v5h-5zm5 0h5v5h-5zm5 0h5v5h-5zm5 0h5v5h-5zm5 0h5v5h-5zm5 0h5v5h-5zm5 0h5v5h-5zm5 0h5v5h-5zm5 0h5v5h-5zm5 0h5v5h-5zm5 0h5v5h-5zm5 0h5v5h-5zm5 0h5v5h-5zm5 0h5v5h-5zm5 0h5v5h-5zm5 0h5v5h-5zm5 0h5v5h-5zm5 0h5v5h-5zm5 0h5v5h-5zm5 0h5v5h-5zm5 0h5v5h-5zm5 0h5v5h-5zm5 0h5v5h-5zm5 0h5v5h-5zm5 0h5v5h-5zm5 0h5v5h-5zm5 0h5v5h-5zm5 0h5v5h-5zm5 0h5v5h-5zm5 0h5v5h-5zm5 0h5v5h-5zm5 0h5v5h-5zm5 0h5v5h-5zm5 0h5v5h-5zm5 0h5v5h-5zm5 0h5v5h-5zm5 0h5v5h-5zm5 0h5v5h-5zm5 0h5v5h-5zm5 0h5v5h-5zm5 0h5v5h-5zm5 0h5v5h-5zm5 0h5v5h-5zm5 0h5v5h-5zm5 0h5v5h-5zm5 0h5v5h-5zm5 0h5v5h-5zm5 0h5v5h-5zm5 0h5v5h-5zm5 0h5v5h-5zm-285 5h5v5h-5zm5 0h5v5h-5zm5 0h5v5h-5zm5 0h5v5h-5zm5 0h5v5h-5zm5 0h5v5h-5zm5 0h5v5h-5zm5 0h5v5h-5zm5 0h5v5h-5zm5 0h5v5h-5zm5 0h5v5h-5zm5 0h5v5h-5zm5 0h5v5h-5zm5 0h5v5h-5zm5 0h5v5h-5zm5 0h5v5h-5zm5 0h5v5h-5zm5 0h5v5h-5zm5 0h5v5h-5zm5 0h5v5h-5zm5 0h5v5h-5zm5 0h5v5h-5zm5 0h5v5h-5zm5 0h5v5h-5zm5 0h5v5h-5zm5 0h5v5h-5zm5 0h5v5h-5zm5 0h5v5h-5zm5 0h5v5h-5zm5 0h5v5h-5zm5 0h5v5h-5zm5 0h5v5h-5zm5 0h5v5h-5zm5 0h5v5h-5zm5 0h5v5h-5zm5 0h5v5h-5zm5 0h5v5h-5zm5 0h5v5h-5zm5 0h5v5h-5zm5 0h5v5h-5zm5 0h5v5h-5zm5 0h5v5h-5zm5 0h5v5h-5zm5 0h5v5h-5zm5 0h5v5h-5zm5 0h5v5h-5zm5 0h5v5h-5zm5 0h5v5h-5zm5 0h5v5h-5zm5 0h5v5h-5zm5 0h5v5h-5zm5 0h5v5h-5zm5 0h5v5h-5zm5 0h5v5h-5zm5 0h5v5h-5zm5 0h5v5h-5zm5 0h5v5h-5zm5 0h5v5h-5zm-285 5h5v5h-5zm5 0h5v5h-5zm5 0h5v5h-5zm5 0h5v5h-5zm5 0h5v5h-5zm5 0h5v5h-5zm5 0h5v5h-5zm5 0h5v5h-5zm5 0h5v5h-5zm5 0h5v5h-5zm5 0h5v5h-5zm5 0h5v5h-5zm5 0h5v5h-5zm5 0h5v5h-5zm5 0h5v5h-5zm5 0h5v5h-5zm5 0h5v5h-5zm5 0h5v5h-5zm5 0h5v5h-5zm5 0h5v5h-5zm5 0h5v5h-5zm5 0h5v5h-5zm5 0h5v5h-5zm5 0h5v5h-5zm5 0h5v5h-5zm5 0h5v5h-5zm5 0h5v5h-5zm5 0h5v5h-5zm5 0h5v5h-5zm5 0h5v5h-5zm5 0h5v5h-5zm5 0h5v5h-5zm5 0h5v5h-5zm5 0h5v5h-5zm5 0h5v5h-5zm5 0h5v5h-5zm5 0h5v5h-5zm5 0h5v5h-5zm5 0h5v5h-5zm5 0h5v5h-5zm5 0h5v5h-5zm5 0h5v5h-5zm5 0h5v5h-5zm5 0h5v5h-5zm5 0h5v5h-5zm5 0h5v5h-5zm5 0h5v5h-5zm5 0h5v5h-5zm5 0h5v5h-5zm5 0h5v5h-5zm5 0h5v5h-5zm5 0h5v5h-5zm5 0h5v5h-5zm5 0h5v5h-5zm5 0h5v5h-5zm5 0h5v5h-5zm5 0h5v5h-5zm5 0h5v5h-5zm-290 5h5v5h-5zm5 0h5v5h-5zm5 0h5v5h-5zm5 0h5v5h-5zm5 0h5v5h-5zm5 0h5v5h-5zm5 0h5v5h-5zm5 0h5v5h-5zm5 0h5v5h-5zm5 0h5v5h-5zm5 0h5v5h-5zm5 0h5v5h-5zm5 0h5v5h-5zm5 0h5v5h-5zm5 0h5v5h-5zm5 0h5v5h-5zm5 0h5v5h-5zm5 0h5v5h-5zm5 0h5v5h-5zm5 0h5v5h-5zm5 0h5v5h-5zm5 0h5v5h-5zm5 0h5v5h-5zm5 0h5v5h-5zm5 0h5v5h-5zm5 0h5v5h-5zm5 0h5v5h-5zm5 0h5v5h-5zm5 0h5v5h-5zm5 0h5v5h-5zm5 0h5v5h-5zm5 0h5v5h-5zm5 0h5v5h-5zm5 0h5v5h-5zm5 0h5v5h-5zm5 0h5v5h-5zm5 0h5v5h-5zm5 0h5v5h-5zm5 0h5v5h-5zm5 0h5v5h-5zm5 0h5v5h-5zm5 0h5v5h-5zm5 0h5v5h-5zm5 0h5v5h-5zm5 0h5v5h-5zm5 0h5v5h-5zm5 0h5v5h-5zm5 0h5v5h-5zm5 0h5v5h-5zm5 0h5v5h-5zm5 0h5v5h-5zm5 0h5v5h-5zm5 0h5v5h-5zm5 0h5v5h-5zm5 0h5v5h-5zm5 0h5v5h-5zm5 0h5v5h-5zm5 0h5v5h-5zm5 0h5v5h-5zm5 0h5v5h-5zm-295 5h5v5h-5zm5 0h5v5h-5zm5 0h5v5h-5zm5 0h5v5h-5zm5 0h5v5h-5zm5 0h5v5h-5zm5 0h5v5h-5zm5 0h5v5h-5zm5 0h5v5h-5zm5 0h5v5h-5zm5 0h5v5h-5zm5 0h5v5h-5zm5 0h5v5h-5zm5 0h5v5h-5zm5 0h5v5h-5zm5 0h5v5h-5zm5 0h5v5h-5zm5 0h5v5h-5zm5 0h5v5h-5zm5 0h5v5h-5zm5 0h5v5h-5zm5 0h5v5h-5zm5 0h5v5h-5zm5 0h5v5h-5zm5 0h5v5h-5zm5 0h5v5h-5zm5 0h5v5h-5zm5 0h5v5h-5zm5 0h5v5h-5zm5 0h5v5h-5zm5 0h5v5h-5zm5 0h5v5h-5zm5 0h5v5h-5zm5 0h5v5h-5zm5 0h5v5h-5zm5 0h5v5h-5zm5 0h5v5h-5zm5 0h5v5h-5zm5 0h5v5h-5zm5 0h5v5h-5zm5 0h5v5h-5zm5 0h5v5h-5zm5 0h5v5h-5zm5 0h5v5h-5zm5 0h5v5h-5zm5 0h5v5h-5zm5 0h5v5h-5zm5 0h5v5h-5zm5 0h5v5h-5zm5 0h5v5h-5zm5 0h5v5h-5zm5 0h5v5h-5zm5 0h5v5h-5zm5 0h5v5h-5zm5 0h5v5h-5zm5 0h5v5h-5zm5 0h5v5h-5zm5 0h5v5h-5zm5 0h5v5h-5zm5 0h5v5h-5zm-295 5h5v5h-5zm5 0h5v5h-5zm5 0h5v5h-5zm5 0h5v5h-5zm5 0h5v5h-5zm5 0h5v5h-5zm5 0h5v5h-5zm5 0h5v5h-5zm5 0h5v5h-5zm5 0h5v5h-5zm5 0h5v5h-5zm5 0h5v5h-5zm5 0h5v5h-5zm5 0h5v5h-5zm5 0h5v5h-5zm5 0h5v5h-5zm5 0h5v5h-5zm5 0h5v5h-5zm5 0h5v5h-5zm5 0h5v5h-5zm5 0h5v5h-5zm5 0h5v5h-5zm5 0h5v5h-5zm5 0h5v5h-5zm5 0h5v5h-5zm5 0h5v5h-5zm5 0h5v5h-5zm5 0h5v5h-5zm5 0h5v5h-5zm5 0h5v5h-5zm5 0h5v5h-5zm5 0h5v5h-5zm5 0h5v5h-5zm5 0h5v5h-5zm5 0h5v5h-5zm5 0h5v5h-5zm5 0h5v5h-5zm5 0h5v5h-5zm5 0h5v5h-5zm5 0h5v5h-5zm5 0h5v5h-5zm5 0h5v5h-5zm5 0h5v5h-5zm5 0h5v5h-5zm5 0h5v5h-5zm5 0h5v5h-5zm5 0h5v5h-5zm5 0h5v5h-5zm5 0h5v5h-5zm5 0h5v5h-5zm5 0h5v5h-5zm5 0h5v5h-5zm5 0h5v5h-5zm5 0h5v5h-5zm5 0h5v5h-5zm5 0h5v5h-5zm5 0h5v5h-5zm5 0h5v5h-5zm5 0h5v5h-5zm5 0h5v5h-5zm-295 5h5v5h-5zm5 0h5v5h-5zm5 0h5v5h-5zm5 0h5v5h-5zm5 0h5v5h-5zm5 0h5v5h-5zm5 0h5v5h-5zm5 0h5v5h-5zm5 0h5v5h-5zm5 0h5v5h-5zm5 0h5v5h-5zm5 0h5v5h-5zm5 0h5v5h-5zm5 0h5v5h-5zm5 0h5v5h-5zm5 0h5v5h-5zm5 0h5v5h-5zm5 0h5v5h-5zm5 0h5v5h-5zm5 0h5v5h-5zm5 0h5v5h-5zm5 0h5v5h-5zm5 0h5v5h-5zm5 0h5v5h-5zm5 0h5v5h-5zm5 0h5v5h-5zm5 0h5v5h-5zm5 0h5v5h-5zm5 0h5v5h-5zm5 0h5v5h-5zm5 0h5v5h-5zm5 0h5v5h-5zm5 0h5v5h-5zm5 0h5v5h-5zm5 0h5v5h-5zm5 0h5v5h-5zm5 0h5v5h-5zm5 0h5v5h-5zm5 0h5v5h-5zm5 0h5v5h-5zm5 0h5v5h-5zm5 0h5v5h-5zm5 0h5v5h-5zm5 0h5v5h-5zm5 0h5v5h-5zm5 0h5v5h-5zm5 0h5v5h-5zm5 0h5v5h-5zm5 0h5v5h-5zm5 0h5v5h-5zm5 0h5v5h-5zm5 0h5v5h-5zm5 0h5v5h-5zm5 0h5v5h-5zm5 0h5v5h-5zm5 0h5v5h-5zm5 0h5v5h-5zm5 0h5v5h-5zm5 0h5v5h-5zm5 0h5v5h-5zm-295 5h5v5h-5zm5 0h5v5h-5zm5 0h5v5h-5zm5 0h5v5h-5zm5 0h5v5h-5zm5 0h5v5h-5zm5 0h5v5h-5zm5 0h5v5h-5zm5 0h5v5h-5zm5 0h5v5h-5zm5 0h5v5h-5zm5 0h5v5h-5zm5 0h5v5h-5zm5 0h5v5h-5zm5 0h5v5h-5zm5 0h5v5h-5zm5 0h5v5h-5zm5 0h5v5h-5zm5 0h5v5h-5zm5 0h5v5h-5zm5 0h5v5h-5zm5 0h5v5h-5zm5 0h5v5h-5zm5 0h5v5h-5zm5 0h5v5h-5zm5 0h5v5h-5zm5 0h5v5h-5zm5 0h5v5h-5zm5 0h5v5h-5zm5 0h5v5h-5zm5 0h5v5h-5zm5 0h5v5h-5zm5 0h5v5h-5zm5 0h5v5h-5zm5 0h5v5h-5zm5 0h5v5h-5zm5 0h5v5h-5zm5 0h5v5h-5zm5 0h5v5h-5zm5 0h5v5h-5zm5 0h5v5h-5zm5 0h5v5h-5zm5 0h5v5h-5zm5 0h5v5h-5zm5 0h5v5h-5zm5 0h5v5h-5zm5 0h5v5h-5zm5 0h5v5h-5zm5 0h5v5h-5zm5 0h5v5h-5zm5 0h5v5h-5zm5 0h5v5h-5zm5 0h5v5h-5zm5 0h5v5h-5zm5 0h5v5h-5zm5 0h5v5h-5zm5 0h5v5h-5zm5 0h5v5h-5zm5 0h5v5h-5zm5 0h5v5h-5zm-295 5h5v5h-5zm5 0h5v5h-5zm5 0h5v5h-5zm5 0h5v5h-5zm5 0h5v5h-5zm5 0h5v5h-5zm5 0h5v5h-5zm5 0h5v5h-5zm5 0h5v5h-5zm5 0h5v5h-5zm5 0h5v5h-5zm5 0h5v5h-5zm5 0h5v5h-5zm5 0h5v5h-5zm5 0h5v5h-5zm5 0h5v5h-5zm5 0h5v5h-5zm5 0h5v5h-5zm5 0h5v5h-5zm5 0h5v5h-5zm5 0h5v5h-5zm5 0h5v5h-5zm5 0h5v5h-5zm5 0h5v5h-5zm5 0h5v5h-5zm5 0h5v5h-5zm5 0h5v5h-5zm5 0h5v5h-5zm5 0h5v5h-5zm5 0h5v5h-5zm5 0h5v5h-5zm5 0h5v5h-5zm5 0h5v5h-5zm5 0h5v5h-5zm5 0h5v5h-5zm5 0h5v5h-5zm5 0h5v5h-5zm5 0h5v5h-5zm5 0h5v5h-5zm5 0h5v5h-5zm5 0h5v5h-5zm5 0h5v5h-5zm5 0h5v5h-5zm5 0h5v5h-5zm5 0h5v5h-5zm5 0h5v5h-5zm5 0h5v5h-5zm5 0h5v5h-5zm5 0h5v5h-5zm5 0h5v5h-5zm5 0h5v5h-5zm5 0h5v5h-5zm5 0h5v5h-5zm5 0h5v5h-5zm5 0h5v5h-5zm5 0h5v5h-5zm5 0h5v5h-5zm5 0h5v5h-5zm5 0h5v5h-5zm5 0h5v5h-5zm-295 5h5v5h-5zm5 0h5v5h-5zm5 0h5v5h-5zm5 0h5v5h-5zm5 0h5v5h-5zm5 0h5v5h-5zm5 0h5v5h-5zm5 0h5v5h-5zm5 0h5v5h-5zm5 0h5v5h-5zm5 0h5v5h-5zm5 0h5v5h-5zm5 0h5v5h-5zm5 0h5v5h-5zm5 0h5v5h-5zm5 0h5v5h-5zm5 0h5v5h-5zm5 0h5v5h-5zm5 0h5v5h-5zm5 0h5v5h-5zm5 0h5v5h-5zm5 0h5v5h-5zm5 0h5v5h-5zm5 0h5v5h-5zm5 0h5v5h-5zm5 0h5v5h-5zm5 0h5v5h-5zm5 0h5v5h-5zm5 0h5v5h-5zm5 0h5v5h-5zm5 0h5v5h-5zm5 0h5v5h-5zm5 0h5v5h-5zm5 0h5v5h-5zm5 0h5v5h-5zm5 0h5v5h-5zm5 0h5v5h-5zm5 0h5v5h-5zm5 0h5v5h-5zm5 0h5v5h-5zm5 0h5v5h-5zm5 0h5v5h-5zm5 0h5v5h-5zm5 0h5v5h-5zm5 0h5v5h-5zm5 0h5v5h-5zm5 0h5v5h-5zm5 0h5v5h-5zm5 0h5v5h-5zm5 0h5v5h-5zm5 0h5v5h-5zm5 0h5v5h-5zm5 0h5v5h-5zm5 0h5v5h-5zm5 0h5v5h-5zm5 0h5v5h-5zm5 0h5v5h-5zm5 0h5v5h-5zm5 0h5v5h-5zm5 0h5v5h-5zm-295 5h5v5h-5zm5 0h5v5h-5zm5 0h5v5h-5zm5 0h5v5h-5zm5 0h5v5h-5zm5 0h5v5h-5zm5 0h5v5h-5zm5 0h5v5h-5zm5 0h5v5h-5zm5 0h5v5h-5zm5 0h5v5h-5zm5 0h5v5h-5zm5 0h5v5h-5zm5 0h5v5h-5zm5 0h5v5h-5zm5 0h5v5h-5zm5 0h5v5h-5zm5 0h5v5h-5zm5 0h5v5h-5zm5 0h5v5h-5zm5 0h5v5h-5zm5 0h5v5h-5zm5 0h5v5h-5zm5 0h5v5h-5zm5 0h5v5h-5zm5 0h5v5h-5zm5 0h5v5h-5zm5 0h5v5h-5zm5 0h5v5h-5zm5 0h5v5h-5zm5 0h5v5h-5zm5 0h5v5h-5zm5 0h5v5h-5zm5 0h5v5h-5zm5 0h5v5h-5zm5 0h5v5h-5zm5 0h5v5h-5zm5 0h5v5h-5zm5 0h5v5h-5zm5 0h5v5h-5zm5 0h5v5h-5zm5 0h5v5h-5zm5 0h5v5h-5zm5 0h5v5h-5zm5 0h5v5h-5zm5 0h5v5h-5zm5 0h5v5h-5zm5 0h5v5h-5zm5 0h5v5h-5zm5 0h5v5h-5zm5 0h5v5h-5zm5 0h5v5h-5zm5 0h5v5h-5zm5 0h5v5h-5zm5 0h5v5h-5zm5 0h5v5h-5zm5 0h5v5h-5zm5 0h5v5h-5zm5 0h5v5h-5zm5 0h5v5h-5zm-295 5h5v5h-5zm5 0h5v5h-5zm5 0h5v5h-5zm5 0h5v5h-5zm5 0h5v5h-5zm5 0h5v5h-5zm5 0h5v5h-5zm5 0h5v5h-5zm5 0h5v5h-5zm5 0h5v5h-5zm5 0h5v5h-5zm5 0h5v5h-5zm5 0h5v5h-5zm5 0h5v5h-5zm5 0h5v5h-5zm5 0h5v5h-5zm5 0h5v5h-5zm5 0h5v5h-5zm5 0h5v5h-5zm5 0h5v5h-5zm5 0h5v5h-5zm5 0h5v5h-5zm5 0h5v5h-5zm5 0h5v5h-5zm5 0h5v5h-5zm5 0h5v5h-5zm5 0h5v5h-5zm5 0h5v5h-5zm5 0h5v5h-5zm5 0h5v5h-5zm5 0h5v5h-5zm5 0h5v5h-5zm5 0h5v5h-5zm5 0h5v5h-5zm5 0h5v5h-5zm5 0h5v5h-5zm5 0h5v5h-5zm5 0h5v5h-5zm5 0h5v5h-5zm5 0h5v5h-5zm5 0h5v5h-5zm5 0h5v5h-5zm5 0h5v5h-5zm5 0h5v5h-5zm5 0h5v5h-5zm5 0h5v5h-5zm5 0h5v5h-5zm5 0h5v5h-5zm5 0h5v5h-5zm5 0h5v5h-5zm5 0h5v5h-5zm5 0h5v5h-5zm5 0h5v5h-5zm5 0h5v5h-5zm5 0h5v5h-5zm5 0h5v5h-5zm5 0h5v5h-5zm5 0h5v5h-5zm5 0h5v5h-5zm5 0h5v5h-5zm-295 5h5v5h-5zm5 0h5v5h-5zm5 0h5v5h-5zm5 0h5v5h-5zm5 0h5v5h-5zm5 0h5v5h-5zm5 0h5v5h-5zm5 0h5v5h-5zm5 0h5v5h-5zm5 0h5v5h-5zm5 0h5v5h-5zm5 0h5v5h-5zm5 0h5v5h-5zm5 0h5v5h-5zm5 0h5v5h-5zm5 0h5v5h-5zm5 0h5v5h-5zm5 0h5v5h-5zm5 0h5v5h-5zm5 0h5v5h-5zm5 0h5v5h-5zm5 0h5v5h-5zm5 0h5v5h-5zm5 0h5v5h-5zm5 0h5v5h-5zm5 0h5v5h-5zm5 0h5v5h-5zm5 0h5v5h-5zm5 0h5v5h-5zm5 0h5v5h-5zm5 0h5v5h-5zm5 0h5v5h-5zm5 0h5v5h-5zm5 0h5v5h-5zm5 0h5v5h-5zm5 0h5v5h-5zm5 0h5v5h-5zm5 0h5v5h-5zm5 0h5v5h-5zm5 0h5v5h-5zm5 0h5v5h-5zm5 0h5v5h-5zm5 0h5v5h-5zm5 0h5v5h-5zm5 0h5v5h-5zm5 0h5v5h-5zm5 0h5v5h-5zm5 0h5v5h-5zm5 0h5v5h-5zm5 0h5v5h-5zm5 0h5v5h-5zm5 0h5v5h-5zm5 0h5v5h-5zm5 0h5v5h-5zm5 0h5v5h-5zm5 0h5v5h-5zm5 0h5v5h-5zm5 0h5v5h-5zm5 0h5v5h-5zm5 0h5v5h-5zm-290 5h5v5h-5zm5 0h5v5h-5zm5 0h5v5h-5zm5 0h5v5h-5zm5 0h5v5h-5zm5 0h5v5h-5zm5 0h5v5h-5zm5 0h5v5h-5zm5 0h5v5h-5zm5 0h5v5h-5zm5 0h5v5h-5zm5 0h5v5h-5zm5 0h5v5h-5zm5 0h5v5h-5zm5 0h5v5h-5zm5 0h5v5h-5zm5 0h5v5h-5zm5 0h5v5h-5zm5 0h5v5h-5zm5 0h5v5h-5zm5 0h5v5h-5zm5 0h5v5h-5zm5 0h5v5h-5zm5 0h5v5h-5zm5 0h5v5h-5zm5 0h5v5h-5zm5 0h5v5h-5zm5 0h5v5h-5zm5 0h5v5h-5zm5 0h5v5h-5zm5 0h5v5h-5zm5 0h5v5h-5zm5 0h5v5h-5zm5 0h5v5h-5zm5 0h5v5h-5zm5 0h5v5h-5zm5 0h5v5h-5zm5 0h5v5h-5zm5 0h5v5h-5zm5 0h5v5h-5zm5 0h5v5h-5zm5 0h5v5h-5zm5 0h5v5h-5zm5 0h5v5h-5zm5 0h5v5h-5zm5 0h5v5h-5zm5 0h5v5h-5zm5 0h5v5h-5zm5 0h5v5h-5zm5 0h5v5h-5zm5 0h5v5h-5zm5 0h5v5h-5zm5 0h5v5h-5zm5 0h5v5h-5zm5 0h5v5h-5zm5 0h5v5h-5zm5 0h5v5h-5zm5 0h5v5h-5zm-285 5h5v5h-5zm5 0h5v5h-5zm5 0h5v5h-5zm5 0h5v5h-5zm5 0h5v5h-5zm5 0h5v5h-5zm5 0h5v5h-5zm5 0h5v5h-5zm5 0h5v5h-5zm5 0h5v5h-5zm5 0h5v5h-5zm5 0h5v5h-5zm5 0h5v5h-5zm5 0h5v5h-5zm5 0h5v5h-5zm5 0h5v5h-5zm5 0h5v5h-5zm5 0h5v5h-5zm5 0h5v5h-5zm5 0h5v5h-5zm5 0h5v5h-5zm5 0h5v5h-5zm5 0h5v5h-5zm5 0h5v5h-5zm5 0h5v5h-5zm5 0h5v5h-5zm5 0h5v5h-5zm5 0h5v5h-5zm5 0h5v5h-5zm5 0h5v5h-5zm5 0h5v5h-5zm5 0h5v5h-5zm5 0h5v5h-5zm5 0h5v5h-5zm5 0h5v5h-5zm5 0h5v5h-5zm5 0h5v5h-5zm5 0h5v5h-5zm5 0h5v5h-5zm5 0h5v5h-5zm5 0h5v5h-5zm5 0h5v5h-5zm5 0h5v5h-5zm5 0h5v5h-5zm5 0h5v5h-5zm5 0h5v5h-5zm5 0h5v5h-5zm5 0h5v5h-5zm5 0h5v5h-5zm5 0h5v5h-5zm5 0h5v5h-5zm5 0h5v5h-5zm5 0h5v5h-5zm5 0h5v5h-5zm5 0h5v5h-5zm5 0h5v5h-5zm5 0h5v5h-5zm5 0h5v5h-5zm-285 5h5v5h-5zm5 0h5v5h-5zm5 0h5v5h-5zm5 0h5v5h-5zm5 0h5v5h-5zm5 0h5v5h-5zm5 0h5v5h-5zm5 0h5v5h-5zm5 0h5v5h-5zm5 0h5v5h-5zm5 0h5v5h-5zm5 0h5v5h-5zm5 0h5v5h-5zm5 0h5v5h-5zm5 0h5v5h-5zm5 0h5v5h-5zm5 0h5v5h-5zm5 0h5v5h-5zm5 0h5v5h-5zm5 0h5v5h-5zm5 0h5v5h-5zm5 0h5v5h-5zm5 0h5v5h-5zm5 0h5v5h-5zm5 0h5v5h-5zm5 0h5v5h-5zm5 0h5v5h-5zm5 0h5v5h-5zm5 0h5v5h-5zm5 0h5v5h-5zm5 0h5v5h-5zm5 0h5v5h-5zm5 0h5v5h-5zm5 0h5v5h-5zm5 0h5v5h-5zm5 0h5v5h-5zm5 0h5v5h-5zm5 0h5v5h-5zm5 0h5v5h-5zm5 0h5v5h-5zm5 0h5v5h-5zm5 0h5v5h-5zm5 0h5v5h-5zm5 0h5v5h-5zm5 0h5v5h-5zm5 0h5v5h-5zm5 0h5v5h-5zm5 0h5v5h-5zm5 0h5v5h-5zm5 0h5v5h-5zm5 0h5v5h-5zm5 0h5v5h-5zm5 0h5v5h-5zm5 0h5v5h-5zm5 0h5v5h-5zm5 0h5v5h-5zm5 0h5v5h-5zm5 0h5v5h-5zm-285 5h5v5h-5zm5 0h5v5h-5zm5 0h5v5h-5zm5 0h5v5h-5zm5 0h5v5h-5zm5 0h5v5h-5zm5 0h5v5h-5zm5 0h5v5h-5zm5 0h5v5h-5zm5 0h5v5h-5zm5 0h5v5h-5zm5 0h5v5h-5zm5 0h5v5h-5zm5 0h5v5h-5zm5 0h5v5h-5zm5 0h5v5h-5zm5 0h5v5h-5zm5 0h5v5h-5zm5 0h5v5h-5zm5 0h5v5h-5zm5 0h5v5h-5zm5 0h5v5h-5zm5 0h5v5h-5zm5 0h5v5h-5zm5 0h5v5h-5zm5 0h5v5h-5zm5 0h5v5h-5zm5 0h5v5h-5zm5 0h5v5h-5zm5 0h5v5h-5zm5 0h5v5h-5zm5 0h5v5h-5zm5 0h5v5h-5zm5 0h5v5h-5zm5 0h5v5h-5zm5 0h5v5h-5zm5 0h5v5h-5zm5 0h5v5h-5zm5 0h5v5h-5zm5 0h5v5h-5zm5 0h5v5h-5zm5 0h5v5h-5zm5 0h5v5h-5zm5 0h5v5h-5zm5 0h5v5h-5zm5 0h5v5h-5zm5 0h5v5h-5zm5 0h5v5h-5zm5 0h5v5h-5zm5 0h5v5h-5zm5 0h5v5h-5zm5 0h5v5h-5zm5 0h5v5h-5zm5 0h5v5h-5zm5 0h5v5h-5zm5 0h5v5h-5zm5 0h5v5h-5zm5 0h5v5h-5zm-280 5h5v5h-5zm5 0h5v5h-5zm5 0h5v5h-5zm5 0h5v5h-5zm5 0h5v5h-5zm5 0h5v5h-5zm5 0h5v5h-5zm5 0h5v5h-5zm5 0h5v5h-5zm5 0h5v5h-5zm5 0h5v5h-5zm5 0h5v5h-5zm5 0h5v5h-5zm5 0h5v5h-5zm5 0h5v5h-5zm5 0h5v5h-5zm5 0h5v5h-5zm5 0h5v5h-5zm5 0h5v5h-5zm5 0h5v5h-5zm5 0h5v5h-5zm5 0h5v5h-5zm5 0h5v5h-5zm5 0h5v5h-5zm5 0h5v5h-5zm5 0h5v5h-5zm5 0h5v5h-5zm5 0h5v5h-5zm5 0h5v5h-5zm5 0h5v5h-5zm5 0h5v5h-5zm5 0h5v5h-5zm5 0h5v5h-5zm5 0h5v5h-5zm5 0h5v5h-5zm5 0h5v5h-5zm5 0h5v5h-5zm5 0h5v5h-5zm5 0h5v5h-5zm5 0h5v5h-5zm5 0h5v5h-5zm5 0h5v5h-5zm5 0h5v5h-5zm5 0h5v5h-5zm5 0h5v5h-5zm5 0h5v5h-5zm5 0h5v5h-5zm5 0h5v5h-5zm5 0h5v5h-5zm5 0h5v5h-5zm5 0h5v5h-5zm5 0h5v5h-5zm5 0h5v5h-5zm5 0h5v5h-5zm5 0h5v5h-5zm5 0h5v5h-5zm-275 5h5v5h-5zm5 0h5v5h-5zm5 0h5v5h-5zm5 0h5v5h-5zm5 0h5v5h-5zm5 0h5v5h-5zm5 0h5v5h-5zm5 0h5v5h-5zm5 0h5v5h-5zm5 0h5v5h-5zm5 0h5v5h-5zm5 0h5v5h-5zm5 0h5v5h-5zm5 0h5v5h-5zm5 0h5v5h-5zm5 0h5v5h-5zm5 0h5v5h-5zm5 0h5v5h-5zm5 0h5v5h-5zm5 0h5v5h-5zm5 0h5v5h-5zm5 0h5v5h-5zm5 0h5v5h-5zm5 0h5v5h-5zm5 0h5v5h-5zm5 0h5v5h-5zm5 0h5v5h-5zm5 0h5v5h-5zm5 0h5v5h-5zm5 0h5v5h-5zm5 0h5v5h-5zm5 0h5v5h-5zm5 0h5v5h-5zm5 0h5v5h-5zm5 0h5v5h-5zm5 0h5v5h-5zm5 0h5v5h-5zm5 0h5v5h-5zm5 0h5v5h-5zm5 0h5v5h-5zm5 0h5v5h-5zm5 0h5v5h-5zm5 0h5v5h-5zm5 0h5v5h-5zm5 0h5v5h-5zm5 0h5v5h-5zm5 0h5v5h-5zm5 0h5v5h-5zm5 0h5v5h-5zm5 0h5v5h-5zm5 0h5v5h-5zm5 0h5v5h-5zm5 0h5v5h-5zm5 0h5v5h-5zm5 0h5v5h-5zm5 0h5v5h-5zm-270 5h5v5h-5zm5 0h5v5h-5zm5 0h5v5h-5zm5 0h5v5h-5zm5 0h5v5h-5zm5 0h5v5h-5zm5 0h5v5h-5zm5 0h5v5h-5zm5 0h5v5h-5zm5 0h5v5h-5zm5 0h5v5h-5zm5 0h5v5h-5zm5 0h5v5h-5zm5 0h5v5h-5zm5 0h5v5h-5zm5 0h5v5h-5zm5 0h5v5h-5zm5 0h5v5h-5zm5 0h5v5h-5zm5 0h5v5h-5zm5 0h5v5h-5zm5 0h5v5h-5zm5 0h5v5h-5zm5 0h5v5h-5zm5 0h5v5h-5zm5 0h5v5h-5zm5 0h5v5h-5zm5 0h5v5h-5zm5 0h5v5h-5zm5 0h5v5h-5zm5 0h5v5h-5zm5 0h5v5h-5zm5 0h5v5h-5zm5 0h5v5h-5zm5 0h5v5h-5zm5 0h5v5h-5zm5 0h5v5h-5zm5 0h5v5h-5zm5 0h5v5h-5zm5 0h5v5h-5zm5 0h5v5h-5zm5 0h5v5h-5zm5 0h5v5h-5zm5 0h5v5h-5zm5 0h5v5h-5zm5 0h5v5h-5zm5 0h5v5h-5zm5 0h5v5h-5zm5 0h5v5h-5zm5 0h5v5h-5zm5 0h5v5h-5zm5 0h5v5h-5zm5 0h5v5h-5zm5 0h5v5h-5zm-265 5h5v5h-5zm5 0h5v5h-5zm5 0h5v5h-5zm5 0h5v5h-5zm5 0h5v5h-5zm5 0h5v5h-5zm5 0h5v5h-5zm5 0h5v5h-5zm5 0h5v5h-5zm5 0h5v5h-5zm5 0h5v5h-5zm5 0h5v5h-5zm5 0h5v5h-5zm5 0h5v5h-5zm5 0h5v5h-5zm5 0h5v5h-5zm5 0h5v5h-5zm5 0h5v5h-5zm5 0h5v5h-5zm5 0h5v5h-5zm5 0h5v5h-5zm5 0h5v5h-5zm5 0h5v5h-5zm5 0h5v5h-5zm5 0h5v5h-5zm5 0h5v5h-5zm5 0h5v5h-5zm5 0h5v5h-5zm5 0h5v5h-5zm5 0h5v5h-5zm5 0h5v5h-5zm5 0h5v5h-5zm5 0h5v5h-5zm5 0h5v5h-5zm5 0h5v5h-5zm5 0h5v5h-5zm5 0h5v5h-5zm5 0h5v5h-5zm5 0h5v5h-5zm5 0h5v5h-5zm5 0h5v5h-5zm5 0h5v5h-5zm5 0h5v5h-5zm5 0h5v5h-5zm5 0h5v5h-5zm5 0h5v5h-5zm5 0h5v5h-5zm5 0h5v5h-5zm5 0h5v5h-5zm5 0h5v5h-5zm5 0h5v5h-5zm5 0h5v5h-5zm5 0h5v5h-5zm5 0h5v5h-5zm-265 5h5v5h-5zm5 0h5v5h-5zm5 0h5v5h-5zm5 0h5v5h-5zm5 0h5v5h-5zm5 0h5v5h-5zm5 0h5v5h-5zm5 0h5v5h-5zm5 0h5v5h-5zm5 0h5v5h-5zm5 0h5v5h-5zm5 0h5v5h-5zm5 0h5v5h-5zm5 0h5v5h-5zm5 0h5v5h-5zm5 0h5v5h-5zm5 0h5v5h-5zm5 0h5v5h-5zm5 0h5v5h-5zm5 0h5v5h-5zm5 0h5v5h-5zm5 0h5v5h-5zm5 0h5v5h-5zm5 0h5v5h-5zm5 0h5v5h-5zm5 0h5v5h-5zm5 0h5v5h-5zm5 0h5v5h-5zm5 0h5v5h-5zm5 0h5v5h-5zm5 0h5v5h-5zm5 0h5v5h-5zm5 0h5v5h-5zm5 0h5v5h-5zm5 0h5v5h-5zm5 0h5v5h-5zm5 0h5v5h-5zm5 0h5v5h-5zm5 0h5v5h-5zm5 0h5v5h-5zm5 0h5v5h-5zm5 0h5v5h-5zm5 0h5v5h-5zm5 0h5v5h-5zm5 0h5v5h-5zm5 0h5v5h-5zm5 0h5v5h-5zm5 0h5v5h-5zm5 0h5v5h-5zm5 0h5v5h-5zm5 0h5v5h-5zm5 0h5v5h-5zm5 0h5v5h-5zm5 0h5v5h-5zm-260 5h5v5h-5zm5 0h5v5h-5zm5 0h5v5h-5zm5 0h5v5h-5zm5 0h5v5h-5zm5 0h5v5h-5zm5 0h5v5h-5zm5 0h5v5h-5zm5 0h5v5h-5zm5 0h5v5h-5zm5 0h5v5h-5zm5 0h5v5h-5zm5 0h5v5h-5zm5 0h5v5h-5zm5 0h5v5h-5zm5 0h5v5h-5zm5 0h5v5h-5zm5 0h5v5h-5zm5 0h5v5h-5zm5 0h5v5h-5zm5 0h5v5h-5zm5 0h5v5h-5zm5 0h5v5h-5zm5 0h5v5h-5zm5 0h5v5h-5zm5 0h5v5h-5zm5 0h5v5h-5zm5 0h5v5h-5zm5 0h5v5h-5zm5 0h5v5h-5zm5 0h5v5h-5zm5 0h5v5h-5zm5 0h5v5h-5zm5 0h5v5h-5zm5 0h5v5h-5zm5 0h5v5h-5zm5 0h5v5h-5zm5 0h5v5h-5zm5 0h5v5h-5zm5 0h5v5h-5zm5 0h5v5h-5zm5 0h5v5h-5zm5 0h5v5h-5zm5 0h5v5h-5zm5 0h5v5h-5zm5 0h5v5h-5zm5 0h5v5h-5zm5 0h5v5h-5zm5 0h5v5h-5zm5 0h5v5h-5zm5 0h5v5h-5zm5 0h5v5h-5zm-250 5h5v5h-5zm5 0h5v5h-5zm5 0h5v5h-5zm5 0h5v5h-5zm5 0h5v5h-5zm5 0h5v5h-5zm5 0h5v5h-5zm5 0h5v5h-5zm5 0h5v5h-5zm5 0h5v5h-5zm5 0h5v5h-5zm5 0h5v5h-5zm5 0h5v5h-5zm5 0h5v5h-5zm5 0h5v5h-5zm5 0h5v5h-5zm5 0h5v5h-5zm5 0h5v5h-5zm5 0h5v5h-5zm5 0h5v5h-5zm5 0h5v5h-5zm5 0h5v5h-5zm5 0h5v5h-5zm5 0h5v5h-5zm5 0h5v5h-5zm5 0h5v5h-5zm5 0h5v5h-5zm5 0h5v5h-5zm5 0h5v5h-5zm5 0h5v5h-5zm5 0h5v5h-5zm5 0h5v5h-5zm5 0h5v5h-5zm5 0h5v5h-5zm5 0h5v5h-5zm5 0h5v5h-5zm5 0h5v5h-5zm5 0h5v5h-5zm5 0h5v5h-5zm5 0h5v5h-5zm5 0h5v5h-5zm5 0h5v5h-5zm5 0h5v5h-5zm5 0h5v5h-5zm5 0h5v5h-5zm5 0h5v5h-5zm5 0h5v5h-5zm5 0h5v5h-5zm5 0h5v5h-5zm5 0h5v5h-5zm-245 5h5v5h-5zm5 0h5v5h-5zm5 0h5v5h-5zm5 0h5v5h-5zm5 0h5v5h-5zm5 0h5v5h-5zm5 0h5v5h-5zm5 0h5v5h-5zm5 0h5v5h-5zm5 0h5v5h-5zm5 0h5v5h-5zm5 0h5v5h-5zm5 0h5v5h-5zm5 0h5v5h-5zm5 0h5v5h-5zm5 0h5v5h-5zm5 0h5v5h-5zm5 0h5v5h-5zm5 0h5v5h-5zm5 0h5v5h-5zm5 0h5v5h-5zm5 0h5v5h-5zm5 0h5v5h-5zm5 0h5v5h-5zm5 0h5v5h-5zm5 0h5v5h-5zm5 0h5v5h-5zm5 0h5v5h-5zm5 0h5v5h-5zm5 0h5v5h-5zm5 0h5v5h-5zm5 0h5v5h-5zm5 0h5v5h-5zm5 0h5v5h-5zm5 0h5v5h-5zm5 0h5v5h-5zm5 0h5v5h-5zm5 0h5v5h-5zm5 0h5v5h-5zm5 0h5v5h-5zm5 0h5v5h-5zm5 0h5v5h-5zm5 0h5v5h-5zm5 0h5v5h-5zm5 0h5v5h-5zm5 0h5v5h-5zm5 0h5v5h-5zm5 0h5v5h-5zm5 0h5v5h-5zm5 0h5v5h-5zm-240 5h5v5h-5zm5 0h5v5h-5zm5 0h5v5h-5zm5 0h5v5h-5zm5 0h5v5h-5zm5 0h5v5h-5zm5 0h5v5h-5zm5 0h5v5h-5zm5 0h5v5h-5zm5 0h5v5h-5zm5 0h5v5h-5zm5 0h5v5h-5zm5 0h5v5h-5zm5 0h5v5h-5zm5 0h5v5h-5zm5 0h5v5h-5zm5 0h5v5h-5zm5 0h5v5h-5zm5 0h5v5h-5zm5 0h5v5h-5zm5 0h5v5h-5zm5 0h5v5h-5zm5 0h5v5h-5zm5 0h5v5h-5zm5 0h5v5h-5zm5 0h5v5h-5zm5 0h5v5h-5zm5 0h5v5h-5zm5 0h5v5h-5zm5 0h5v5h-5zm5 0h5v5h-5zm5 0h5v5h-5zm5 0h5v5h-5zm5 0h5v5h-5zm5 0h5v5h-5zm5 0h5v5h-5zm5 0h5v5h-5zm5 0h5v5h-5zm5 0h5v5h-5zm5 0h5v5h-5zm5 0h5v5h-5zm5 0h5v5h-5zm5 0h5v5h-5zm5 0h5v5h-5zm5 0h5v5h-5zm5 0h5v5h-5zm5 0h5v5h-5zm5 0h5v5h-5zm-230 5h5v5h-5zm5 0h5v5h-5zm5 0h5v5h-5zm5 0h5v5h-5zm5 0h5v5h-5zm5 0h5v5h-5zm5 0h5v5h-5zm5 0h5v5h-5zm5 0h5v5h-5zm5 0h5v5h-5zm5 0h5v5h-5zm5 0h5v5h-5zm5 0h5v5h-5zm5 0h5v5h-5zm5 0h5v5h-5zm5 0h5v5h-5zm5 0h5v5h-5zm5 0h5v5h-5zm5 0h5v5h-5zm5 0h5v5h-5zm5 0h5v5h-5zm5 0h5v5h-5zm5 0h5v5h-5zm5 0h5v5h-5zm5 0h5v5h-5zm5 0h5v5h-5zm5 0h5v5h-5zm5 0h5v5h-5zm5 0h5v5h-5zm5 0h5v5h-5zm5 0h5v5h-5zm5 0h5v5h-5zm5 0h5v5h-5zm5 0h5v5h-5zm5 0h5v5h-5zm5 0h5v5h-5zm5 0h5v5h-5zm5 0h5v5h-5zm5 0h5v5h-5zm5 0h5v5h-5zm5 0h5v5h-5zm5 0h5v5h-5zm5 0h5v5h-5zm5 0h5v5h-5zm5 0h5v5h-5zm5 0h5v5h-5zm-220 5h5v5h-5zm5 0h5v5h-5zm5 0h5v5h-5zm5 0h5v5h-5zm5 0h5v5h-5zm5 0h5v5h-5zm5 0h5v5h-5zm5 0h5v5h-5zm5 0h5v5h-5zm5 0h5v5h-5zm5 0h5v5h-5zm5 0h5v5h-5zm5 0h5v5h-5zm5 0h5v5h-5zm5 0h5v5h-5zm5 0h5v5h-5zm5 0h5v5h-5zm5 0h5v5h-5zm5 0h5v5h-5zm5 0h5v5h-5zm5 0h5v5h-5zm5 0h5v5h-5zm5 0h5v5h-5zm5 0h5v5h-5zm5 0h5v5h-5zm5 0h5v5h-5zm5 0h5v5h-5zm5 0h5v5h-5zm5 0h5v5h-5zm5 0h5v5h-5zm5 0h5v5h-5zm5 0h5v5h-5zm5 0h5v5h-5zm5 0h5v5h-5zm5 0h5v5h-5zm5 0h5v5h-5zm5 0h5v5h-5zm5 0h5v5h-5zm5 0h5v5h-5zm5 0h5v5h-5zm5 0h5v5h-5zm5 0h5v5h-5zm5 0h5v5h-5zm5 0h5v5h-5zm-210 5h5v5h-5zm5 0h5v5h-5zm5 0h5v5h-5zm5 0h5v5h-5zm5 0h5v5h-5zm5 0h5v5h-5zm5 0h5v5h-5zm5 0h5v5h-5zm5 0h5v5h-5zm5 0h5v5h-5zm5 0h5v5h-5zm5 0h5v5h-5zm5 0h5v5h-5zm5 0h5v5h-5zm5 0h5v5h-5zm5 0h5v5h-5zm5 0h5v5h-5zm5 0h5v5h-5zm5 0h5v5h-5zm5 0h5v5h-5zm5 0h5v5h-5zm5 0h5v5h-5zm5 0h5v5h-5zm5 0h5v5h-5zm5 0h5v5h-5zm5 0h5v5h-5zm5 0h5v5h-5zm5 0h5v5h-5zm5 0h5v5h-5zm5 0h5v5h-5zm5 0h5v5h-5zm5 0h5v5h-5zm5 0h5v5h-5zm5 0h5v5h-5zm5 0h5v5h-5zm5 0h5v5h-5zm5 0h5v5h-5zm5 0h5v5h-5zm5 0h5v5h-5zm5 0h5v5h-5zm5 0h5v5h-5zm5 0h5v5h-5zm-200 5h5v5h-5zm5 0h5v5h-5zm5 0h5v5h-5zm5 0h5v5h-5zm5 0h5v5h-5zm5 0h5v5h-5zm5 0h5v5h-5zm5 0h5v5h-5zm5 0h5v5h-5zm5 0h5v5h-5zm5 0h5v5h-5zm5 0h5v5h-5zm5 0h5v5h-5zm5 0h5v5h-5zm5 0h5v5h-5zm5 0h5v5h-5zm5 0h5v5h-5zm5 0h5v5h-5zm5 0h5v5h-5zm5 0h5v5h-5zm5 0h5v5h-5zm5 0h5v5h-5zm5 0h5v5h-5zm5 0h5v5h-5zm5 0h5v5h-5zm5 0h5v5h-5zm5 0h5v5h-5zm5 0h5v5h-5zm5 0h5v5h-5zm5 0h5v5h-5zm5 0h5v5h-5zm5 0h5v5h-5zm5 0h5v5h-5zm5 0h5v5h-5zm5 0h5v5h-5zm5 0h5v5h-5zm5 0h5v5h-5zm5 0h5v5h-5zm5 0h5v5h-5zm5 0h5v5h-5zm-190 5h5v5h-5zm5 0h5v5h-5zm5 0h5v5h-5zm5 0h5v5h-5zm5 0h5v5h-5zm5 0h5v5h-5zm5 0h5v5h-5zm5 0h5v5h-5zm5 0h5v5h-5zm5 0h5v5h-5zm5 0h5v5h-5zm5 0h5v5h-5zm5 0h5v5h-5zm5 0h5v5h-5zm5 0h5v5h-5zm5 0h5v5h-5zm5 0h5v5h-5zm5 0h5v5h-5zm5 0h5v5h-5zm5 0h5v5h-5zm5 0h5v5h-5zm5 0h5v5h-5zm5 0h5v5h-5zm5 0h5v5h-5zm5 0h5v5h-5zm5 0h5v5h-5zm5 0h5v5h-5zm5 0h5v5h-5zm5 0h5v5h-5zm5 0h5v5h-5zm5 0h5v5h-5zm5 0h5v5h-5zm5 0h5v5h-5zm5 0h5v5h-5zm5 0h5v5h-5zm5 0h5v5h-5zm5 0h5v5h-5zm5 0h5v5h-5zm-180 5h5v5h-5zm5 0h5v5h-5zm5 0h5v5h-5zm5 0h5v5h-5zm5 0h5v5h-5zm5 0h5v5h-5zm5 0h5v5h-5zm5 0h5v5h-5zm5 0h5v5h-5zm5 0h5v5h-5zm5 0h5v5h-5zm5 0h5v5h-5zm5 0h5v5h-5zm5 0h5v5h-5zm5 0h5v5h-5zm5 0h5v5h-5zm5 0h5v5h-5zm5 0h5v5h-5zm5 0h5v5h-5zm5 0h5v5h-5zm5 0h5v5h-5zm5 0h5v5h-5zm5 0h5v5h-5zm5 0h5v5h-5zm5 0h5v5h-5zm5 0h5v5h-5zm5 0h5v5h-5zm5 0h5v5h-5zm5 0h5v5h-5zm5 0h5v5h-5zm5 0h5v5h-5zm5 0h5v5h-5zm5 0h5v5h-5zm5 0h5v5h-5zm5 0h5v5h-5zm5 0h5v5h-5zm-170 5h5v5h-5zm5 0h5v5h-5zm5 0h5v5h-5zm5 0h5v5h-5zm5 0h5v5h-5zm5 0h5v5h-5zm5 0h5v5h-5zm5 0h5v5h-5zm5 0h5v5h-5zm5 0h5v5h-5zm5 0h5v5h-5zm5 0h5v5h-5zm5 0h5v5h-5zm5 0h5v5h-5zm5 0h5v5h-5zm5 0h5v5h-5zm5 0h5v5h-5zm5 0h5v5h-5zm5 0h5v5h-5zm5 0h5v5h-5zm5 0h5v5h-5zm5 0h5v5h-5zm5 0h5v5h-5zm5 0h5v5h-5zm5 0h5v5h-5zm5 0h5v5h-5zm5 0h5v5h-5zm5 0h5v5h-5zm5 0h5v5h-5zm5 0h5v5h-5zm5 0h5v5h-5zm5 0h5v5h-5zm5 0h5v5h-5zm5 0h5v5h-5zm-155 5h5v5h-5zm5 0h5v5h-5zm5 0h5v5h-5zm5 0h5v5h-5zm5 0h5v5h-5zm5 0h5v5h-5zm5 0h5v5h-5zm5 0h5v5h-5zm5 0h5v5h-5zm5 0h5v5h-5zm5 0h5v5h-5zm5 0h5v5h-5zm5 0h5v5h-5zm5 0h5v5h-5zm5 0h5v5h-5zm5 0h5v5h-5zm5 0h5v5h-5zm5 0h5v5h-5zm5 0h5v5h-5zm5 0h5v5h-5zm5 0h5v5h-5zm5 0h5v5h-5zm5 0h5v5h-5zm5 0h5v5h-5zm5 0h5v5h-5zm5 0h5v5h-5zm5 0h5v5h-5zm5 0h5v5h-5zm5 0h5v5h-5zm5 0h5v5h-5zm-140 5h5v5h-5zm5 0h5v5h-5zm5 0h5v5h-5zm5 0h5v5h-5zm5 0h5v5h-5zm5 0h5v5h-5zm5 0h5v5h-5zm5 0h5v5h-5zm5 0h5v5h-5zm5 0h5v5h-5zm5 0h5v5h-5zm5 0h5v5h-5zm5 0h5v5h-5zm5 0h5v5h-5zm5 0h5v5h-5zm5 0h5v5h-5zm5 0h5v5h-5zm5 0h5v5h-5zm5 0h5v5h-5zm5 0h5v5h-5zm5 0h5v5h-5zm5 0h5v5h-5zm5 0h5v5h-5zm5 0h5v5h-5zm5 0h5v5h-5zm5 0h5v5h-5zm5 0h5v5h-5zm5 0h5v5h-5zm-120 5h5v5h-5zm5 0h5v5h-5zm5 0h5v5h-5zm5 0h5v5h-5zm5 0h5v5h-5zm5 0h5v5h-5zm5 0h5v5h-5zm5 0h5v5h-5zm5 0h5v5h-5zm5 0h5v5h-5zm5 0h5v5h-5zm5 0h5v5h-5zm5 0h5v5h-5zm5 0h5v5h-5zm5 0h5v5h-5zm5 0h5v5h-5zm5 0h5v5h-5zm5 0h5v5h-5zm5 0h5v5h-5zm5 0h5v5h-5zm5 0h5v5h-5zm5 0h5v5h-5zm-95 5h5v5h-5zm5 0h5v5h-5zm5 0h5v5h-5zm5 0h5v5h-5zm5 0h5v5h-5zm5 0h5v5h-5zm5 0h5v5h-5zm5 0h5v5h-5zm5 0h5v5h-5zm5 0h5v5h-5zm5 0h5v5h-5zm5 0h5v5h-5zm5 0h5v5h-5zm5 0h5v5h-5zm5 0h5v5h-5zm5 0h5v5h-5zm5 0h5v5h-5zm5 0h5v5h-5zm-65 5h5v5h-5zm5 0h5v5h-5zm5 0h5v5h-5zm5 0h5v5h-5zm5 0h5v5h-5zm5 0h5v5h-5zm5 0h5v5h-5zm5 0h5v5h-5zm5 0h5v5h-5zm5 0h5v5h-5z"/></svg>