<svg width="120" height="120" xmlns="http://www.w3.org/2000/svg" shape-rendering="crispEdges"><path fill="#100201" d="M60 8h4v4h-4zm4 0h4v4h-4zm4 0h4v4h-4zm4 0h4v4h-4zm4 0h4v4h-4z"/><path fill="#0E0402" d="M56 12h4v4h-4z"/><path fill="#6A2E16" d="M60 12h4v4h-4z"/><path fill="#70341C" d="M64 12h4v4h-4z"/><path fill="#72391E" d="M68 12h4v4h-4z"/><path fill="#804229" d="M72 12h4v4h-4z"/><path fill="#B44824" d="M76 12h4v4h-4z"/><path fill="#0B0004" d="M80 12h4v4h-4z"/><path fill="#090307" d="M84 12h4v4h-4z"/><path fill="#080609" d="M88 12h4v4h-4z"/><path fill="#17010D" d="M92 12h4v4h-4z"/><path fill="#15010A" d="M96 12h4v4h-4z"/><path fill="#070000" d="M52 16h4v4h-4z"/><path fill="#532817" d="M56 16h4v4h-4z"/><path fill="#581C04" d="M60 16h4v4h-4z"/><path fill="#6B2F17" d="M64 16h4v4h-4z"/><path fill="#70371C" d="M68 16h4v4h-4z"/><path fill="#72341B" d="M72 16h4v4h-4z"/><path fill="#6C3316" d="M76 16h4v4h-4z"/><path fill="#8F4626" d="M80 16h4v4h-4z"/><path fill="#B04C2C" d="M84 16h4v4h-4z"/><path fill="#C24B2B" d="M88 16h4v4h-4z"/><path fill="#DA5021" d="M92 16h4v4h-4z"/><path fill="#FF6123" d="M96 16h4v4h-4z"/><path fill="#180501" d="M100 16h4v4h-4z"/><path fill="#0B0203" d="M44 20h4v4h-4z"/><path fill="#0A0102" d="M48 20h4v4h-4z"/><path fill="#4C1705" d="M52 20h4v4h-4zm4 0h4v4h-4z"/><path fill="#612408" d="M60 20h4v4h-4z"/><path fill="#602307" d="M64 20h4v4h-4z"/><path fill="#601D03" d="M68 20h4v4h-4z"/><path fill="#5F1F03" d="M72 20h4v4h-4z"/><path fill="#5D2003" d="M76 20h4v4h-4z"/><path fill="#692F19" d="M80 20h4v4h-4z"/><path fill="#773920" d="M84 20h4v4h-4z"/><path fill="#7B3B20" d="M88 20h4v4h-4z"/><path fill="#783A21" d="M92 20h4v4h-4z"/><path fill="#86442C" d="M96 20h4v4h-4z"/><path fill="#A14A2E" d="M100 20h4v4h-4z"/><path fill="#1F0705" d="M104 20h4v4h-4z"/><path fill="#0E0000" d="M40 24h4v4h-4z"/><path fill="#410C04" d="M44 24h4v4h-4z"/><path fill="#451008" d="M48 24h4v4h-4z"/><path fill="#4C1705" d="M52 24h4v4h-4zm4 0h4v4h-4z"/><path fill="#501801" d="M60 24h4v4h-4z"/><path fill="#531B04" d="M64 24h4v4h-4z"/><path fill="#4A1000" d="M68 24h4v4h-4z"/><path fill="#340600" d="M72 24h4v4h-4z"/><path fill="#320A00" d="M76 24h4v4h-4z"/><path fill="#300800" d="M80 24h4v4h-4z"/><path fill="#632E1C" d="M84 24h4v4h-4z"/><path fill="#74381E" d="M88 24h4v4h-4z"/><path fill="#72341B" d="M92 24h4v4h-4z"/><path fill="#74321A" d="M96 24h4v4h-4z"/><path fill="#973E2E" d="M100 24h4v4h-4z"/><path fill="#CE5133" d="M104 24h4v4h-4z"/><path fill="#180501" d="M108 24h4v4h-4z"/><path fill="#0A0000" d="M36 28h4v4h-4z"/><path fill="#260903" d="M40 28h4v4h-4z"/><path fill="#411606" d="M44 28h4v4h-4z"/><path fill="#531C07" d="M48 28h4v4h-4z"/><path fill="#23090A" d="M52 28h4v4h-4z"/><path fill="#27080E" d="M56 28h4v4h-4z"/><path fill="#350A01" d="M60 28h4v4h-4zm4 0h4v4h-4z"/><path fill="#210501" d="M68 28h4v4h-4zm4 0h4v4h-4z"/><path fill="#170505" d="M76 28h4v4h-4z"/><path fill="#1C0307" d="M80 28h4v4h-4z"/><path fill="#2B0A03" d="M84 28h4v4h-4z"/><path fill="#2F0800" d="M88 28h4v4h-4z"/><path fill="#4F1602" d="M92 28h4v4h-4z"/><path fill="#71351D" d="M96 28h4v4h-4z"/><path fill="#773B21" d="M100 28h4v4h-4z"/><path fill="#86422B" d="M104 28h4v4h-4z"/><path fill="#0E0000" d="M108 28h4v4h-4z"/><path fill="#0A0000" d="M36 32h4v4h-4z"/><path fill="#260903" d="M40 32h4v4h-4z"/><path fill="#320C03" d="M44 32h4v4h-4z"/><path fill="#5C2D11" d="M48 32h4v4h-4z"/><path fill="#724800" d="M52 32h4v4h-4z"/><path fill="#160000" d="M56 32h4v4h-4z"/><path fill="#120000" d="M60 32h4v4h-4zm4 0h4v4h-4z"/><path fill="#140000" d="M68 32h4v4h-4zm4 0h4v4h-4z"/><path fill="#694F2A" d="M76 32h4v4h-4z"/><path fill="#9B8065" d="M80 32h4v4h-4z"/><path fill="#2B0A03" d="M84 32h4v4h-4z"/><path fill="#27040A" d="M88 32h4v4h-4z"/><path fill="#250000" d="M92 32h4v4h-4z"/><path fill="#340800" d="M96 32h4v4h-4z"/><path fill="#64260D" d="M100 32h4v4h-4z"/><path fill="#6F361B" d="M104 32h4v4h-4z"/><path fill="#0E0000" d="M108 32h4v4h-4z"/><path fill="#0B0000" d="M36 36h4v4h-4z"/><path fill="#240701" d="M40 36h4v4h-4z"/><path fill="#371200" d="M44 36h4v4h-4z"/><path fill="#81520E" d="M48 36h4v4h-4z"/><path fill="#81550E" d="M52 36h4v4h-4z"/><path fill="#603100" d="M56 36h4v4h-4z"/><path fill="#2D1C12" d="M60 36h4v4h-4z"/><path fill="#684C37" d="M64 36h4v4h-4z"/><path fill="#6F4C36" d="M68 36h4v4h-4z"/><path fill="#987A60" d="M72 36h4v4h-4z"/><path fill="#B9A283" d="M76 36h4v4h-4z"/><path fill="#E9D3BB" d="M80 36h4v4h-4z"/><path fill="#D0BB9C" d="M84 36h4v4h-4z"/><path fill="#C6B291" d="M88 36h4v4h-4z"/><path fill="#1D0002" d="M92 36h4v4h-4z"/><path fill="#140002" d="M96 36h4v4h-4z"/><path fill="#290000" d="M100 36h4v4h-4z"/><path fill="#612004" d="M104 36h4v4h-4z"/><path fill="#562310" d="M108 36h4v4h-4z"/><path fill="#0E0000" d="M112 36h4v4h-4z"/><path fill="#0B0000" d="M36 40h4v4h-4z"/><path fill="#240701" d="M40 40h4v4h-4z"/><path fill="#250400" d="M44 40h4v4h-4z"/><path fill="#522600" d="M48 40h4v4h-4z"/><path fill="#744608" d="M52 40h4v4h-4z"/><path fill="#734509" d="M56 40h4v4h-4z"/><path fill="#221107" d="M60 40h4v4h-4z"/><path fill="#70543F" d="M64 40h4v4h-4z"/><path fill="#BF945D" d="M68 40h4v4h-4z"/><path fill="#BE9E77" d="M72 40h4v4h-4z"/><path fill="#EED7B8" d="M76 40h4v4h-4z"/><path fill="#F9E8D4" d="M80 40h4v4h-4z"/><path fill="#FEEED4" d="M84 40h4v4h-4z"/><path fill="#FFF4D7" d="M88 40h4v4h-4z"/><path fill="#4C2F07" d="M92 40h4v4h-4z"/><path fill="#653F00" d="M96 40h4v4h-4z"/><path fill="#8B5C16" d="M100 40h4v4h-4z"/><path fill="#6E3500" d="M104 40h4v4h-4z"/><path fill="#54210E" d="M108 40h4v4h-4z"/><path fill="#0F0000" d="M112 40h4v4h-4z"/><path fill="#110302" d="M40 44h4v4h-4z"/><path fill="#240900" d="M44 44h4v4h-4z"/><path fill="#2B0802" d="M48 44h4v4h-4z"/><path fill="#522705" d="M52 44h4v4h-4z"/><path fill="#311B0D" d="M56 44h4v4h-4z"/><path fill="#5D3D28" d="M60 44h4v4h-4z"/><path fill="#936E39" d="M64 44h4v4h-4z"/><path fill="#BA9455" d="M68 44h4v4h-4z"/><path fill="#E6C9A7" d="M72 44h4v4h-4z"/><path fill="#E4CEB7" d="M76 44h4v4h-4z"/><path fill="#FEECD4" d="M80 44h4v4h-4z"/><path fill="#F4E2CA" d="M84 44h4v4h-4z"/><path fill="#F0DEC8" d="M88 44h4v4h-4z"/><path fill="#F7E5CF" d="M92 44h4v4h-4z"/><path fill="#432D18" d="M96 44h4v4h-4z"/><path fill="#4E2505" d="M100 44h4v4h-4z"/><path fill="#220500" d="M104 44h4v4h-4z"/><path fill="#1A0808" d="M108 44h4v4h-4z"/><path fill="#100201" d="M20 48h4v4h-4zm4 0h4v4h-4zm4 0h4v4h-4zm4 0h4v4h-4z"/><path fill="#0A0000" d="M36 48h4v4h-4z"/><path fill="#0F0000" d="M44 48h4v4h-4z"/><path fill="#090000" d="M48 48h4v4h-4z"/><path fill="#260400" d="M52 48h4v4h-4z"/><path fill="#301D0F" d="M56 48h4v4h-4z"/><path fill="#967852" d="M60 48h4v4h-4z"/><path fill="#A58147" d="M64 48h4v4h-4z"/><path fill="#D7B172" d="M68 48h4v4h-4z"/><path fill="#F0D3B1" d="M72 48h4v4h-4z"/><path fill="#E4CEB7" d="M76 48h4v4h-4z"/><path fill="#FAE8D2" d="M80 48h4v4h-4z"/><path fill="#C9B89A" d="M84 48h4v4h-4z"/><path fill="#BAAB84" d="M88 48h4v4h-4z"/><path fill="#F7E5CF" d="M92 48h4v4h-4z"/><path fill="#432D18" d="M96 48h4v4h-4z"/><path fill="#230900" d="M100 48h4v4h-4z"/><path fill="#0B0000" d="M104 48h4v4h-4z"/><path fill="#0D0709" d="M16 52h4v4h-4z"/><path fill="#5E2007" d="M20 52h4v4h-4z"/><path fill="#75371E" d="M24 52h4v4h-4z"/><path fill="#86462A" d="M28 52h4v4h-4z"/><path fill="#BD4A2B" d="M32 52h4v4h-4z"/><path fill="#FF5E20" d="M36 52h4v4h-4z"/><path fill="#06000E" d="M40 52h4v4h-4z"/><path fill="#110906" d="M52 52h4v4h-4z"/><path fill="#372416" d="M56 52h4v4h-4z"/><path fill="#A18766" d="M60 52h4v4h-4z"/><path fill="#A08047" d="M64 52h4v4h-4z"/><path fill="#D1AF68" d="M68 52h4v4h-4zm4 0h4v4h-4z"/><path fill="#DFCBB2" d="M76 52h4v4h-4z"/><path fill="#F3E1C9" d="M80 52h4v4h-4z"/><path fill="#EFDFC8" d="M84 52h4v4h-4z"/><path fill="#F4E5D0" d="M88 52h4v4h-4z"/><path fill="#FBE7CF" d="M92 52h4v4h-4z"/><path fill="#4C321B" d="M96 52h4v4h-4z"/><path fill="#1B0804" d="M100 52h4v4h-4z"/><path fill="#0B0000" d="M12 56h4v4h-4z"/><path fill="#582514" d="M16 56h4v4h-4z"/><path fill="#73351C" d="M20 56h4v4h-4z"/><path fill="#72341B" d="M24 56h4v4h-4z"/><path fill="#6C3419" d="M28 56h4v4h-4z"/><path fill="#924126" d="M32 56h4v4h-4z"/><path fill="#824331" d="M36 56h4v4h-4z"/><path fill="#B65028" d="M40 56h4v4h-4z"/><path fill="#0E0000" d="M44 56h4v4h-4z"/><path fill="#1D0F06" d="M56 56h4v4h-4z"/><path fill="#A18766" d="M60 56h4v4h-4z"/><path fill="#A08047" d="M64 56h4v4h-4z"/><path fill="#D1AF68" d="M68 56h4v4h-4zm4 0h4v4h-4z"/><path fill="#E5D1B6" d="M76 56h4v4h-4z"/><path fill="#F4E8D2" d="M80 56h4v4h-4z"/><path fill="#AB8D6B" d="M84 56h4v4h-4z"/><path fill="#AB8157" d="M88 56h4v4h-4z"/><path fill="#F0E1CC" d="M92 56h4v4h-4z"/><path fill="#321C11" d="M96 56h4v4h-4z"/><path fill="#0E030B" d="M8 60h4v4H8z"/><path fill="#310500" d="M12 60h4v4h-4z"/><path fill="#632204" d="M16 60h4v4h-4z"/><path fill="#63230A" d="M20 60h4v4h-4z"/><path fill="#733925" d="M24 60h4v4h-4z"/><path fill="#72361E" d="M28 60h4v4h-4zm4 0h4v4h-4z"/><path fill="#72361C" d="M36 60h4v4h-4zm4 0h4v4h-4z"/><path fill="#A63D1D" d="M44 60h4v4h-4z"/><path fill="#0E0000" d="M48 60h4v4h-4z"/><path fill="#210E07" d="M56 60h4v4h-4z"/><path fill="#A28B69" d="M60 60h4v4h-4z"/><path fill="#926F37" d="M64 60h4v4h-4z"/><path fill="#B79244" d="M68 60h4v4h-4z"/><path fill="#D1AB64" d="M72 60h4v4h-4z"/><path fill="#E7D1BA" d="M76 60h4v4h-4z"/><path fill="#F9E7D1" d="M80 60h4v4h-4z"/><path fill="#A37D59" d="M84 60h4v4h-4z"/><path fill="#A37F4F" d="M88 60h4v4h-4z"/><path fill="#CDB697" d="M92 60h4v4h-4z"/><path fill="#F0E1CA" d="M96 60h4v4h-4z"/><path fill="#2C1912" d="M100 60h4v4h-4z"/><path fill="#140502" d="M4 64h4v4H4z"/><path fill="#1E0501" d="M8 64h4v4H8z"/><path fill="#330700" d="M12 64h4v4h-4z"/><path fill="#4C1400" d="M16 64h4v4h-4z"/><path fill="#612108" d="M20 64h4v4h-4z"/><path fill="#5A200C" d="M24 64h4v4h-4z"/><path fill="#632A16" d="M28 64h4v4h-4zm4 0h4v4h-4z"/><path fill="#72361C" d="M36 64h4v4h-4zm4 0h4v4h-4z"/><path fill="#752406" d="M44 64h4v4h-4z"/><path fill="#0A0002" d="M48 64h4v4h-4z"/><path fill="#210E07" d="M56 64h4v4h-4z"/><path fill="#A28B69" d="M60 64h4v4h-4z"/><path fill="#926F37" d="M64 64h4v4h-4z"/><path fill="#B79244" d="M68 64h4v4h-4z"/><path fill="#D1AB64" d="M72 64h4v4h-4z"/><path fill="#E6D0B9" d="M76 64h4v4h-4z"/><path fill="#F9E7D1" d="M80 64h4v4h-4z"/><path fill="#A37D59" d="M84 64h4v4h-4z"/><path fill="#A37F4F" d="M88 64h4v4h-4z"/><path fill="#AF916B" d="M92 64h4v4h-4z"/><path fill="#D2BD9E" d="M96 64h4v4h-4z"/><path fill="#2C1912" d="M100 64h4v4h-4z"/><path fill="#090000" d="M4 68h4v4H4z"/><path fill="#280702" d="M8 68h4v4H8z"/><path fill="#310802" d="M12 68h4v4h-4zm4 0h4v4h-4z"/><path fill="#381102" d="M20 68h4v4h-4zm4 0h4v4h-4z"/><path fill="#391203" d="M28 68h4v4h-4z"/><path fill="#401205" d="M32 68h4v4h-4z"/><path fill="#3D1800" d="M36 68h4v4h-4z"/><path fill="#5D2809" d="M40 68h4v4h-4z"/><path fill="#651E00" d="M44 68h4v4h-4z"/><path fill="#1E0000" d="M48 68h4v4h-4z"/><path fill="#A68E74" d="M56 68h4v4h-4z"/><path fill="#946925" d="M60 68h4v4h-4z"/><path fill="#825B20" d="M64 68h4v4h-4z"/><path fill="#BA8F4B" d="M68 68h4v4h-4z"/><path fill="#DAB26D" d="M72 68h4v4h-4z"/><path fill="#E3CDB5" d="M76 68h4v4h-4z"/><path fill="#EDEAD7" d="M80 68h4v4h-4z"/><path fill="#6D5235" d="M84 68h4v4h-4z"/><path fill="#704620" d="M88 68h4v4h-4z"/><path fill="#B38D60" d="M92 68h4v4h-4z"/><path fill="#CBA578" d="M96 68h4v4h-4z"/><path fill="#2C1912" d="M100 68h4v4h-4z"/><path fill="#090000" d="M4 72h4v4H4z"/><path fill="#280702" d="M8 72h4v4H8z"/><path fill="#250601" d="M12 72h4v4h-4zm4 0h4v4h-4z"/><path fill="#160300" d="M20 72h4v4h-4zm4 0h4v4h-4z"/><path fill="#1B0200" d="M28 72h4v4h-4z"/><path fill="#210200" d="M32 72h4v4h-4z"/><path fill="#180200" d="M36 72h4v4h-4z"/><path fill="#350E00" d="M40 72h4v4h-4z"/><path fill="#380900" d="M44 72h4v4h-4z"/><path fill="#0B0000" d="M48 72h4v4h-4z"/><path fill="#9A7C60" d="M56 72h4v4h-4z"/><path fill="#946925" d="M60 72h4v4h-4z"/><path fill="#825B20" d="M64 72h4v4h-4z"/><path fill="#B9914B" d="M68 72h4v4h-4z"/><path fill="#E3C394" d="M72 72h4v4h-4z"/><path fill="#B7A283" d="M76 72h4v4h-4z"/><path fill="#C9AF8C" d="M80 72h4v4h-4z"/><path fill="#543310" d="M84 72h4v4h-4z"/><path fill="#57310D" d="M88 72h4v4h-4z"/><path fill="#A27C4F" d="M92 72h4v4h-4z"/><path fill="#B58F62" d="M96 72h4v4h-4z"/><path fill="#2C1912" d="M100 72h4v4h-4z"/><path fill="#060105" d="M8 76h4v4H8z"/><path fill="#260A07" d="M12 76h4v4h-4z"/><path fill="#170006" d="M16 76h4v4h-4z"/><path fill="#A18668" d="M20 76h4v4h-4z"/><path fill="#CAB099" d="M24 76h4v4h-4z"/><path fill="#A1866B" d="M28 76h4v4h-4z"/><path fill="#FBE5CE" d="M32 76h4v4h-4z"/><path fill="#F0E2C8" d="M36 76h4v4h-4z"/><path fill="#160000" d="M40 76h4v4h-4z"/><path fill="#0B0000" d="M44 76h4v4h-4z"/><path fill="#1F1307" d="M52 76h4v4h-4z"/><path fill="#8B7052" d="M56 76h4v4h-4z"/><path fill="#94691A" d="M60 76h4v4h-4z"/><path fill="#70450E" d="M64 76h4v4h-4z"/><path fill="#AE9C78" d="M68 76h4v4h-4z"/><path fill="#EDDABC" d="M72 76h4v4h-4z"/><path fill="#B59C7D" d="M76 76h4v4h-4z"/><path fill="#6F4724" d="M80 76h4v4h-4z"/><path fill="#A98054" d="M84 76h4v4h-4z"/><path fill="#A97F4D" d="M88 76h4v4h-4z"/><path fill="#9D7349" d="M92 76h4v4h-4z"/><path fill="#BF9D78" d="M96 76h4v4h-4z"/><path fill="#2C1912" d="M100 76h4v4h-4z"/><path fill="#120000" d="M12 80h4v4h-4z"/><path fill="#7F604B" d="M16 80h4v4h-4z"/><path fill="#9E7E45" d="M20 80h4v4h-4z"/><path fill="#DFC6B2" d="M24 80h4v4h-4z"/><path fill="#826A4E" d="M28 80h4v4h-4z"/><path fill="#FBE9D1" d="M32 80h4v4h-4z"/><path fill="#F3E4CD" d="M36 80h4v4h-4z"/><path fill="#EEDBCA" d="M40 80h4v4h-4z"/><path fill="#1E0F08" d="M44 80h4v4h-4z"/><path fill="#1F1307" d="M52 80h4v4h-4z"/><path fill="#8B7052" d="M56 80h4v4h-4z"/><path fill="#583300" d="M60 80h4v4h-4z"/><path fill="#AC8961" d="M64 80h4v4h-4z"/><path fill="#F0DDBF" d="M68 80h4v4h-4z"/><path fill="#937F66" d="M72 80h4v4h-4z"/><path fill="#B7A081" d="M76 80h4v4h-4z"/><path fill="#C9AC8A" d="M80 80h4v4h-4z"/><path fill="#B28B62" d="M84 80h4v4h-4z"/><path fill="#AD8154" d="M88 80h4v4h-4z"/><path fill="#764F26" d="M92 80h4v4h-4z"/><path fill="#B2885E" d="M96 80h4v4h-4z"/><path fill="#2C1912" d="M100 80h4v4h-4z"/><path fill="#191104" d="M12 84h4v4h-4z"/><path fill="#926A22" d="M16 84h4v4h-4z"/><path fill="#A17F38" d="M20 84h4v4h-4z"/><path fill="#CAA860" d="M24 84h4v4h-4z"/><path fill="#8F7858" d="M28 84h4v4h-4z"/><path fill="#EDD5BB" d="M32 84h4v4h-4z"/><path fill="#F5E8D5" d="M36 84h4v4h-4z"/><path fill="#A07950" d="M40 84h4v4h-4z"/><path fill="#C09B71" d="M44 84h4v4h-4z"/><path fill="#110A04" d="M48 84h4v4h-4z"/><path fill="#8D6F4D" d="M52 84h4v4h-4z"/><path fill="#68462B" d="M56 84h4v4h-4z"/><path fill="#42281B" d="M60 84h4v4h-4z"/><path fill="#B39B81" d="M64 84h4v4h-4z"/><path fill="#E6D5BB" d="M68 84h4v4h-4z"/><path fill="#624E35" d="M72 84h4v4h-4z"/><path fill="#B49D7B" d="M76 84h4v4h-4z"/><path fill="#92673D" d="M80 84h4v4h-4z"/><path fill="#9E7547" d="M84 84h4v4h-4z"/><path fill="#9D7844" d="M88 84h4v4h-4z"/><path fill="#67411C" d="M92 84h4v4h-4z"/><path fill="#98724B" d="M96 84h4v4h-4z"/><path fill="#2C1912" d="M100 84h4v4h-4z"/><path fill="#150C03" d="M12 88h4v4h-4z"/><path fill="#7B501B" d="M16 88h4v4h-4z"/><path fill="#6D4811" d="M20 88h4v4h-4z"/><path fill="#D0AD69" d="M24 88h4v4h-4z"/><path fill="#AC9575" d="M28 88h4v4h-4z"/><path fill="#EAD2B8" d="M32 88h4v4h-4z"/><path fill="#A98C6C" d="M36 88h4v4h-4z"/><path fill="#4E2B05" d="M40 88h4v4h-4z"/><path fill="#B88D60" d="M44 88h4v4h-4z"/><path fill="#21140C" d="M48 88h4v4h-4z"/><path fill="#6F5034" d="M52 88h4v4h-4z"/><path fill="#573D26" d="M56 88h4v4h-4z"/><path fill="#6E5038" d="M60 88h4v4h-4z"/><path fill="#A98B6F" d="M64 88h4v4h-4z"/><path fill="#B2937E" d="M68 88h4v4h-4z"/><path fill="#644C34" d="M72 88h4v4h-4z"/><path fill="#9A805B" d="M76 88h4v4h-4z"/><path fill="#A5855E" d="M80 88h4v4h-4z"/><path fill="#A58054" d="M84 88h4v4h-4z"/><path fill="#A77E52" d="M88 88h4v4h-4z"/><path fill="#815B36" d="M92 88h4v4h-4z"/><path fill="#684122" d="M96 88h4v4h-4z"/><path fill="#2C1912" d="M100 88h4v4h-4z"/><path fill="#190B00" d="M12 92h4v4h-4z"/><path fill="#6F4D2A" d="M16 92h4v4h-4z"/><path fill="#633D0C" d="M20 92h4v4h-4z"/><path fill="#A48163" d="M24 92h4v4h-4z"/><path fill="#E1D1BA" d="M28 92h4v4h-4z"/><path fill="#AD8B66" d="M32 92h4v4h-4z"/><path fill="#9B6F48" d="M36 92h4v4h-4z"/><path fill="#A77B54" d="M40 92h4v4h-4z"/><path fill="#957044" d="M44 92h4v4h-4z"/><path fill="#2B120D" d="M48 92h4v4h-4z"/><path fill="#714D33" d="M52 92h4v4h-4z"/><path fill="#452E20" d="M56 92h4v4h-4z"/><path fill="#8C6848" d="M60 92h4v4h-4z"/><path fill="#A58667" d="M64 92h4v4h-4z"/><path fill="#8F674E" d="M68 92h4v4h-4z"/><path fill="#98795A" d="M72 92h4v4h-4z"/><path fill="#805A35" d="M76 92h4v4h-4z"/><path fill="#4D2C09" d="M80 92h4v4h-4z"/><path fill="#845D34" d="M84 92h4v4h-4z"/><path fill="#92673C" d="M88 92h4v4h-4z"/><path fill="#825C2F" d="M92 92h4v4h-4z"/><path fill="#563418" d="M96 92h4v4h-4z"/><path fill="#27140D" d="M100 92h4v4h-4z"/><path fill="#271405" d="M16 96h4v4h-4z"/><path fill="#573416" d="M20 96h4v4h-4z"/><path fill="#3C1D08" d="M24 96h4v4h-4z"/><path fill="#8B7254" d="M28 96h4v4h-4z"/><path fill="#573510" d="M32 96h4v4h-4z"/><path fill="#8B5F38" d="M36 96h4v4h-4z"/><path fill="#A77B54" d="M40 96h4v4h-4z"/><path fill="#7F5A2E" d="M44 96h4v4h-4z"/><path fill="#2B120D" d="M48 96h4v4h-4z"/><path fill="#5E3A22" d="M52 96h4v4h-4z"/><path fill="#654631" d="M56 96h4v4h-4z"/><path fill="#8D6F49" d="M60 96h4v4h-4z"/><path fill="#6C5136" d="M64 96h4v4h-4z"/><path fill="#734F35" d="M68 96h4v4h-4z"/><path fill="#765134" d="M72 96h4v4h-4z"/><path fill="#684F31" d="M76 96h4v4h-4z"/><path fill="#855E35" d="M80 96h4v4h-4z"/><path fill="#7F5932" d="M84 96h4v4h-4z"/><path fill="#7B5830" d="M88 96h4v4h-4z"/><path fill="#472809" d="M92 96h4v4h-4z"/><path fill="#1A0900" d="M96 96h4v4h-4z"/><path fill="#1D0A06" d="M16 100h4v4h-4z"/><path fill="#512D17" d="M20 100h4v4h-4z"/><path fill="#4D250C" d="M24 100h4v4h-4z"/><path fill="#795034" d="M28 100h4v4h-4z"/><path fill="#805630" d="M32 100h4v4h-4z"/><path fill="#794E23" d="M36 100h4v4h-4z"/><path fill="#603419" d="M40 100h4v4h-4z"/><path fill="#613E22" d="M44 100h4v4h-4z"/><path fill="#1F1202" d="M48 100h4v4h-4z"/><path fill="#57311A" d="M52 100h4v4h-4z"/><path fill="#3D2A19" d="M56 100h4v4h-4z"/><path fill="#7A5936" d="M60 100h4v4h-4z"/><path fill="#6B451E" d="M64 100h4v4h-4z"/><path fill="#542E17" d="M68 100h4v4h-4z"/><path fill="#673D24" d="M72 100h4v4h-4z"/><path fill="#9C855B" d="M76 100h4v4h-4z"/><path fill="#7F592C" d="M80 100h4v4h-4z"/><path fill="#43230A" d="M84 100h4v4h-4z"/><path fill="#371B0F" d="M88 100h4v4h-4z"/><path fill="#3A2416" d="M92 100h4v4h-4z"/><path fill="#180602" d="M96 100h4v4h-4z"/><path fill="#240C00" d="M20 104h4v4h-4z"/><path fill="#522E18" d="M24 104h4v4h-4z"/><path fill="#280E01" d="M28 104h4v4h-4z"/><path fill="#4F2A0D" d="M32 104h4v4h-4z"/><path fill="#2F1700" d="M36 104h4v4h-4z"/><path fill="#53331C" d="M40 104h4v4h-4z"/><path fill="#2F1C0B" d="M44 104h4v4h-4z"/><path fill="#200A00" d="M52 104h4v4h-4z"/><path fill="#533422" d="M56 104h4v4h-4z"/><path fill="#3E1F0A" d="M60 104h4v4h-4z"/><path fill="#4C2A11" d="M64 104h4v4h-4z"/><path fill="#3B1A07" d="M68 104h4v4h-4z"/><path fill="#563019" d="M72 104h4v4h-4z"/><path fill="#5C391B" d="M76 104h4v4h-4z"/><path fill="#552C0C" d="M80 104h4v4h-4z"/><path fill="#3E1E09" d="M84 104h4v4h-4z"/><path fill="#3E2214" d="M88 104h4v4h-4z"/><path fill="#26150B" d="M92 104h4v4h-4z"/><path fill="#0F0000" d="M56 108h4v4h-4z"/><path fill="#58290B" d="M60 108h4v4h-4z"/><path fill="#230B00" d="M64 108h4v4h-4z"/><path fill="#452A17" d="M68 108h4v4h-4z"/><path fill="#1E0A01" d="M72 108h4v4h-4z"/><path fill="#0F0100" d="M76 108h4v4h-4z"/><path fill="#180D07" d="M80 108h4v4h-4zm4 0h4v4h-4zm4 0h4v4h-4z"/></svg>