<svg width="320" height="320" xmlns="http://www.w3.org/2000/svg" shape-rendering="crispEdges"><path fill="#972E2E" d="M160 0h10v10h-10zm10 0h10v10h-10z"/><path fill="#D97F7F" d="M180 0h10v10h-10zm10 0h10v10h-10z"/><path fill="#F3D2D2" d="M200 0h10v10h-10zm10 0h10v10h-10z"/><path fill="#7A0E0E" d="M140 10h10v10h-10z"/><path fill="#972E2E" d="M150 10h10v10h-10zm10 0h10v10h-10zm10 0h10v10h-10zm10 0h10v10h-10zm10 0h10v10h-10z"/><path fill="#D97F7F" d="M200 10h10v10h-10zm10 0h10v10h-10z"/><path fill="#F3D2D2" d="M220 10h10v10h-10zm10 0h10v10h-10z"/><path fill="#972E2E" d="M120 20h10v10h-10zm10 0h10v10h-10z"/><path fill="#7A0E0E" d="M140 20h10v10h-10zm10 0h10v10h-10zm10 0h10v10h-10zm10 0h10v10h-10zm10 0h10v10h-10zm10 0h10v10h-10z"/><path fill="#972E2E" d="M200 20h10v10h-10zm10 0h10v10h-10z"/><path fill="#D97F7F" d="M220 20h10v10h-10z"/><path fill="#F3D2D2" d="M230 20h10v10h-10zm10 0h10v10h-10z"/><path fill="#7A0E0E" d="M110 30h10v10h-10z"/><path fill="#972E2E" d="M120 30h10v10h-10zm10 0h10v10h-10z"/><path fill="#D97F7F" d="M140 30h10v10h-10z"/><path fill="#7A0E0E" d="M150 30h10v10h-10zm10 0h10v10h-10z"/><path fill="#972E2E" d="M170 30h10v10h-10zm10 0h10v10h-10z"/><path fill="#7A0E0E" d="M190 30h10v10h-10zm10 0h10v10h-10zm10 0h10v10h-10z"/><path fill="#972E2E" d="M220 30h10v10h-10z"/><path fill="#D97F7F" d="M230 30h10v10h-10z"/><path fill="#F3D2D2" d="M240 30h10v10h-10z"/><path fill="#972E2E" d="M100 40h10v10h-10z"/><path fill="#7A0E0E" d="M110 40h10v10h-10z"/><path fill="#972E2E" d="M120 40h10v10h-10zm10 0h10v10h-10z"/><path fill="#D97F7F" d="M140 40h10v10h-10z"/><path fill="#7A0E0E" d="M150 40h10v10h-10zm10 0h10v10h-10zm10 0h10v10h-10z"/><path fill="#972E2E" d="M180 40h10v10h-10zm10 0h10v10h-10z"/><path fill="#D97F7F" d="M200 40h10v10h-10z"/><path fill="#F3D2D2" d="M210 40h10v10h-10z"/><path fill="#7A0E0E" d="M220 40h10v10h-10z"/><path fill="#972E2E" d="M230 40h10v10h-10z"/><path fill="#D97F7F" d="M240 40h10v10h-10z"/><path fill="#F3D2D2" d="M250 40h10v10h-10z"/><path fill="#370101" d="M80 50h10v10H80z"/><path fill="#5D0505" d="M90 50h10v10H90z"/><path fill="#972E2E" d="M100 50h10v10h-10z"/><path fill="#7A0E0E" d="M110 50h10v10h-10z"/><path fill="#972E2E" d="M120 50h10v10h-10zm10 0h10v10h-10z"/><path fill="#D97F7F" d="M140 50h10v10h-10zm10 0h10v10h-10z"/><path fill="#7A0E0E" d="M160 50h10v10h-10zm10 0h10v10h-10zm10 0h10v10h-10z"/><path fill="#972E2E" d="M190 50h10v10h-10zm10 0h10v10h-10z"/><path fill="#D97F7F" d="M210 50h10v10h-10z"/><path fill="#F3D2D2" d="M220 50h10v10h-10z"/><path fill="#7A0E0E" d="M230 50h10v10h-10z"/><path fill="#972E2E" d="M240 50h10v10h-10z"/><path fill="#D97F7F" d="M250 50h10v10h-10z"/><path fill="#370101" d="M60 60h10v10H60z"/><path fill="#5D0505" d="M70 60h10v10H70zm10 0h10v10H80zm10 0h10v10H90z"/><path fill="#972E2E" d="M100 60h10v10h-10z"/><path fill="#7A0E0E" d="M110 60h10v10h-10zm10 0h10v10h-10z"/><path fill="#972E2E" d="M130 60h10v10h-10zm10 0h10v10h-10z"/><path fill="#D97F7F" d="M150 60h10v10h-10zm10 0h10v10h-10z"/><path fill="#7A0E0E" d="M170 60h10v10h-10zm10 0h10v10h-10zm10 0h10v10h-10z"/><path fill="#972E2E" d="M200 60h10v10h-10zm10 0h10v10h-10z"/><path fill="#D97F7F" d="M220 60h10v10h-10z"/><path fill="#F3D2D2" d="M230 60h10v10h-10z"/><path fill="#7A0E0E" d="M240 60h10v10h-10zm10 0h10v10h-10z"/><path fill="#370101" d="M40 70h10v10H40z"/><path fill="#5D0505" d="M50 70h10v10H50zm10 0h10v10H60z"/><path fill="#7A0E0E" d="M70 70h10v10H70z"/><path fill="#5D0505" d="M80 70h10v10H80zm10 0h10v10H90z"/><path fill="#972E2E" d="M100 70h10v10h-10z"/><path fill="#7A0E0E" d="M110 70h10v10h-10zm10 0h10v10h-10z"/><path fill="#972E2E" d="M130 70h10v10h-10zm10 0h10v10h-10zm10 0h10v10h-10z"/><path fill="#D97F7F" d="M160 70h10v10h-10zm10 0h10v10h-10zm10 0h10v10h-10z"/><path fill="#7A0E0E" d="M190 70h10v10h-10zm10 0h10v10h-10z"/><path fill="#972E2E" d="M210 70h10v10h-10zm10 0h10v10h-10zm10 0h10v10h-10zm10 0h10v10h-10z"/><path fill="#D97F7F" d="M250 70h10v10h-10z"/><path fill="#370101" d="M30 80h10v10H30z"/><path fill="#5D0505" d="M40 80h10v10H40zm10 0h10v10H50z"/><path fill="#7A0E0E" d="M60 80h10v10H60zm10 0h10v10H70z"/><path fill="#5D0505" d="M80 80h10v10H80zm10 0h10v10H90zm10 0h10v10h-10z"/><path fill="#972E2E" d="M110 80h10v10h-10z"/><path fill="#7A0E0E" d="M120 80h10v10h-10zm10 0h10v10h-10z"/><path fill="#972E2E" d="M140 80h10v10h-10zm10 0h10v10h-10zm10 0h10v10h-10zm10 0h10v10h-10z"/><path fill="#D97F7F" d="M180 80h10v10h-10zm10 0h10v10h-10zm10 0h10v10h-10z"/><path fill="#7A0E0E" d="M210 80h10v10h-10zm10 0h10v10h-10z"/><path fill="#972E2E" d="M230 80h10v10h-10zm10 0h10v10h-10zm10 0h10v10h-10z"/><path fill="#D97F7F" d="M260 80h10v10h-10z"/><path fill="#F3D2D2" d="M270 80h10v10h-10z"/><path fill="#370101" d="M20 90h10v10H20z"/><path fill="#5D0505" d="M30 90h10v10H30zm10 0h10v10H40z"/><path fill="#7A0E0E" d="M50 90h10v10H50z"/><path fill="#972E2E" d="M60 90h10v10H60z"/><path fill="#7A0E0E" d="M70 90h10v10H70zm10 0h10v10H80z"/><path fill="#5D0505" d="M90 90h10v10H90zm10 0h10v10h-10zm10 0h10v10h-10z"/><path fill="#972E2E" d="M120 90h10v10h-10z"/><path fill="#7A0E0E" d="M130 90h10v10h-10zm10 0h10v10h-10zm10 0h10v10h-10z"/><path fill="#972E2E" d="M160 90h10v10h-10zm10 0h10v10h-10zm10 0h10v10h-10zm10 0h10v10h-10zm10 0h10v10h-10zm10 0h10v10h-10z"/><path fill="#7A0E0E" d="M220 90h10v10h-10zm10 0h10v10h-10z"/><path fill="#972E2E" d="M240 90h10v10h-10zm10 0h10v10h-10zm10 0h10v10h-10z"/><path fill="#D97F7F" d="M270 90h10v10h-10z"/><path fill="#F3D2D2" d="M280 90h10v10h-10z"/><path fill="#370101" d="M20 100h10v10H20z"/><path fill="#5D0505" d="M30 100h10v10H30zm10 0h10v10H40z"/><path fill="#7A0E0E" d="M50 100h10v10H50z"/><path fill="#972E2E" d="M60 100h10v10H60z"/><path fill="#D97F7F" d="M70 100h10v10H70z"/><path fill="#7A0E0E" d="M80 100h10v10H80z"/><path fill="#5D0505" d="M90 100h10v10H90zm10 0h10v10h-10zm10 0h10v10h-10zm10 0h10v10h-10z"/><path fill="#972E2E" d="M130 100h10v10h-10zm10 0h10v10h-10z"/><path fill="#7A0E0E" d="M150 100h10v10h-10zm10 0h10v10h-10zm10 0h10v10h-10zm10 0h10v10h-10zm10 0h10v10h-10zm10 0h10v10h-10zm10 0h10v10h-10zm10 0h10v10h-10z"/><path fill="#972E2E" d="M230 100h10v10h-10zm10 0h10v10h-10z"/><path fill="#7A0E0E" d="M250 100h10v10h-10z"/><path fill="#972E2E" d="M260 100h10v10h-10zm10 0h10v10h-10z"/><path fill="#D97F7F" d="M280 100h10v10h-10z"/><path fill="#F3D2D2" d="M290 100h10v10h-10z"/><path fill="#370101" d="M10 110h10v10H10z"/><path fill="#7A0E0E" d="M20 110h10v10H20z"/><path fill="#5D0505" d="M30 110h10v10H30zm10 0h10v10H40z"/><path fill="#7A0E0E" d="M50 110h10v10H50zm10 0h10v10H60z"/><path fill="#D97F7F" d="M70 110h10v10H70zm10 0h10v10H80z"/><path fill="#7A0E0E" d="M90 110h10v10H90zm10 0h10v10h-10z"/><path fill="#5D0505" d="M110 110h10v10h-10zm10 0h10v10h-10zm10 0h10v10h-10zm10 0h10v10h-10z"/><path fill="#972E2E" d="M150 110h10v10h-10zm10 0h10v10h-10zm10 0h10v10h-10zm10 0h10v10h-10zm10 0h10v10h-10zm10 0h10v10h-10zm10 0h10v10h-10zm10 0h10v10h-10zm10 0h10v10h-10z"/><path fill="#5D0505" d="M240 110h10v10h-10z"/><path fill="#7A0E0E" d="M250 110h10v10h-10z"/><path fill="#972E2E" d="M260 110h10v10h-10z"/><path fill="#D97F7F" d="M270 110h10v10h-10zm10 0h10v10h-10z"/><path fill="#F3D2D2" d="M290 110h10v10h-10z"/><path fill="#5D0505" d="M300 110h10v10h-10z"/><path fill="#370101" d="M10 120h10v10H10z"/><path fill="#7A0E0E" d="M20 120h10v10H20z"/><path fill="#5D0505" d="M30 120h10v10H30zm10 0h10v10H40zm10 0h10v10H50z"/><path fill="#7A0E0E" d="M60 120h10v10H60z"/><path fill="#972E2E" d="M70 120h10v10H70zm10 0h10v10H80z"/><path fill="#7A0E0E" d="M90 120h10v10H90zm10 0h10v10h-10zm10 0h10v10h-10z"/><path fill="#5D0505" d="M120 120h10v10h-10zm10 0h10v10h-10zm10 0h10v10h-10zm10 0h10v10h-10zm10 0h10v10h-10zm10 0h10v10h-10zm10 0h10v10h-10zm10 0h10v10h-10zm10 0h10v10h-10zm10 0h10v10h-10zm10 0h10v10h-10zm10 0h10v10h-10z"/><path fill="#7A0E0E" d="M240 120h10v10h-10zm10 0h10v10h-10z"/><path fill="#D97F7F" d="M260 120h10v10h-10zm10 0h10v10h-10z"/><path fill="#F3D2D2" d="M280 120h10v10h-10z"/><path fill="#972E2E" d="M290 120h10v10h-10z"/><path fill="#5D0505" d="M300 120h10v10h-10z"/><path fill="#370101" d="M10 130h10v10H10z"/><path fill="#7A0E0E" d="M20 130h10v10H20zm10 0h10v10H30z"/><path fill="#5D0505" d="M40 130h10v10H40zm10 0h10v10H50zm10 0h10v10H60z"/><path fill="#7A0E0E" d="M70 130h10v10H70z"/><path fill="#972E2E" d="M80 130h10v10H80zm10 0h10v10H90z"/><path fill="#D97F7F" d="M100 130h10v10h-10z"/><path fill="#7A0E0E" d="M110 130h10v10h-10zm10 0h10v10h-10zm10 0h10v10h-10z"/><path fill="#5D0505" d="M140 130h10v10h-10zm10 0h10v10h-10zm10 0h10v10h-10zm10 0h10v10h-10zm10 0h10v10h-10zm10 0h10v10h-10zm10 0h10v10h-10zm10 0h10v10h-10z"/><path fill="#7A0E0E" d="M220 130h10v10h-10zm10 0h10v10h-10zm10 0h10v10h-10z"/><path fill="#D97F7F" d="M250 130h10v10h-10zm10 0h10v10h-10z"/><path fill="#F3D2D2" d="M270 130h10v10h-10z"/><path fill="#972E2E" d="M280 130h10v10h-10z"/><path fill="#7A0E0E" d="M290 130h10v10h-10z"/><path fill="#5D0505" d="M300 130h10v10h-10z"/><path fill="#370101" d="M10 140h10v10H10zm10 0h10v10H20z"/><path fill="#7A0E0E" d="M30 140h10v10H30z"/><path fill="#5D0505" d="M40 140h10v10H40zm10 0h10v10H50zm10 0h10v10H60z"/><path fill="#7A0E0E" d="M70 140h10v10H70zm10 0h10v10H80z"/><path fill="#972E2E" d="M90 140h10v10H90zm10 0h10v10h-10z"/><path fill="#D97F7F" d="M110 140h10v10h-10zm10 0h10v10h-10z"/><path fill="#7A0E0E" d="M130 140h10v10h-10zm10 0h10v10h-10zm10 0h10v10h-10zm10 0h10v10h-10zm10 0h10v10h-10zm10 0h10v10h-10zm10 0h10v10h-10zm10 0h10v10h-10zm10 0h10v10h-10zm10 0h10v10h-10z"/><path fill="#D97F7F" d="M230 140h10v10h-10zm10 0h10v10h-10zm10 0h10v10h-10z"/><path fill="#972E2E" d="M260 140h10v10h-10zm10 0h10v10h-10z"/><path fill="#7A0E0E" d="M280 140h10v10h-10z"/><path fill="#5D0505" d="M290 140h10v10h-10z"/><path fill="#370101" d="M300 140h10v10h-10zM10 150h10v10H10zm10 0h10v10H20z"/><path fill="#7A0E0E" d="M30 150h10v10H30zm10 0h10v10H40z"/><path fill="#5D0505" d="M50 150h10v10H50zm10 0h10v10H60zm10 0h10v10H70z"/><path fill="#7A0E0E" d="M80 150h10v10H80zm10 0h10v10H90zm10 0h10v10h-10z"/><path fill="#972E2E" d="M110 150h10v10h-10zm10 0h10v10h-10z"/><path fill="#D97F7F" d="M130 150h10v10h-10zm10 0h10v10h-10zm10 0h10v10h-10z"/><path fill="#972E2E" d="M160 150h10v10h-10zm10 0h10v10h-10z"/><path fill="#D97F7F" d="M180 150h10v10h-10zm10 0h10v10h-10zm10 0h10v10h-10zm10 0h10v10h-10zm10 0h10v10h-10zm10 0h10v10h-10z"/><path fill="#972E2E" d="M240 150h10v10h-10zm10 0h10v10h-10zm10 0h10v10h-10z"/><path fill="#7A0E0E" d="M270 150h10v10h-10zm10 0h10v10h-10z"/><path fill="#5D0505" d="M290 150h10v10h-10z"/><path fill="#370101" d="M300 150h10v10h-10zM20 160h10v10H20zm10 0h10v10H30z"/><path fill="#7A0E0E" d="M40 160h10v10H40zm10 0h10v10H50z"/><path fill="#5D0505" d="M60 160h10v10H60zm10 0h10v10H70zm10 0h10v10H80zm10 0h10v10H90z"/><path fill="#7A0E0E" d="M100 160h10v10h-10zm10 0h10v10h-10zm10 0h10v10h-10zm10 0h10v10h-10z"/><path fill="#972E2E" d="M140 160h10v10h-10zm10 0h10v10h-10zm10 0h10v10h-10zm10 0h10v10h-10zm10 0h10v10h-10zm10 0h10v10h-10zm10 0h10v10h-10zm10 0h10v10h-10zm10 0h10v10h-10zm10 0h10v10h-10zm10 0h10v10h-10z"/><path fill="#7A0E0E" d="M250 160h10v10h-10zm10 0h10v10h-10zm10 0h10v10h-10z"/><path fill="#5D0505" d="M280 160h10v10h-10zm10 0h10v10h-10z"/><path fill="#370101" d="M300 160h10v10h-10zM20 170h10v10H20zm10 0h10v10H30zm10 0h10v10H40z"/><path fill="#7A0E0E" d="M50 170h10v10H50zm10 0h10v10H60z"/><path fill="#5D0505" d="M70 170h10v10H70zm10 0h10v10H80zm10 0h10v10H90zm10 0h10v10h-10zm10 0h10v10h-10z"/><path fill="#7A0E0E" d="M120 170h10v10h-10zm10 0h10v10h-10zm10 0h10v10h-10zm10 0h10v10h-10z"/><path fill="#972E2E" d="M160 170h10v10h-10zm10 0h10v10h-10zm10 0h10v10h-10zm10 0h10v10h-10zm10 0h10v10h-10zm10 0h10v10h-10zm10 0h10v10h-10z"/><path fill="#7A0E0E" d="M230 170h10v10h-10zm10 0h10v10h-10zm10 0h10v10h-10zm10 0h10v10h-10z"/><path fill="#5D0505" d="M270 170h10v10h-10zm10 0h10v10h-10z"/><path fill="#370101" d="M290 170h10v10h-10zm10 0h10v10h-10zM30 180h10v10H30zm10 0h10v10H40zm10 0h10v10H50z"/><path fill="#7A0E0E" d="M60 180h10v10H60zm10 0h10v10H70z"/><path fill="#5D0505" d="M80 180h10v10H80zm10 0h10v10H90zm10 0h10v10h-10zm10 0h10v10h-10zm10 0h10v10h-10zm10 0h10v10h-10z"/><path fill="#7A0E0E" d="M140 180h10v10h-10zm10 0h10v10h-10zm10 0h10v10h-10zm10 0h10v10h-10zm10 0h10v10h-10zm10 0h10v10h-10zm10 0h10v10h-10zm10 0h10v10h-10zm10 0h10v10h-10zm10 0h10v10h-10zm10 0h10v10h-10z"/><path fill="#5D0505" d="M250 180h10v10h-10zm10 0h10v10h-10zm10 0h10v10h-10z"/><path fill="#370101" d="M280 180h10v10h-10zm10 0h10v10h-10zM40 190h10v10H40zm10 0h10v10H50zm10 0h10v10H60zm10 0h10v10H70z"/><path fill="#7A0E0E" d="M80 190h10v10H80zm10 0h10v10H90zm10 0h10v10h-10zm10 0h10v10h-10z"/><path fill="#5D0505" d="M120 190h10v10h-10zm10 0h10v10h-10zm10 0h10v10h-10zm10 0h10v10h-10zm10 0h10v10h-10zm10 0h10v10h-10zm10 0h10v10h-10zm10 0h10v10h-10zm10 0h10v10h-10zm10 0h10v10h-10zm10 0h10v10h-10zm10 0h10v10h-10zm10 0h10v10h-10zm10 0h10v10h-10z"/><path fill="#370101" d="M260 190h10v10h-10zm10 0h10v10h-10zm10 0h10v10h-10zM50 200h10v10H50zm10 0h10v10H60zm10 0h10v10H70zm10 0h10v10H80zm10 0h10v10H90zm10 0h10v10h-10zm10 0h10v10h-10z"/><path fill="#7A0E0E" d="M120 200h10v10h-10zm10 0h10v10h-10zm10 0h10v10h-10zm10 0h10v10h-10zm10 0h10v10h-10z"/><path fill="#5D0505" d="M170 200h10v10h-10zm10 0h10v10h-10zm10 0h10v10h-10zm10 0h10v10h-10zm10 0h10v10h-10zm10 0h10v10h-10z"/><path fill="#370101" d="M230 200h10v10h-10zm10 0h10v10h-10zm10 0h10v10h-10zm10 0h10v10h-10zm10 0h10v10h-10z"/><path fill="#312404" d="M60 210h10v10H60z"/><path fill="#370101" d="M70 210h10v10H70zm10 0h10v10H80zm10 0h10v10H90zm10 0h10v10h-10zm10 0h10v10h-10zm10 0h10v10h-10zm10 0h10v10h-10zm10 0h10v10h-10zm10 0h10v10h-10zm10 0h10v10h-10zm10 0h10v10h-10zm10 0h10v10h-10zm10 0h10v10h-10zm10 0h10v10h-10zm10 0h10v10h-10zm10 0h10v10h-10zm10 0h10v10h-10zm10 0h10v10h-10zm10 0h10v10h-10z"/><path fill="#312404" d="M60 220h10v10H60z"/><path fill="#4E3C13" d="M70 220h10v10H70z"/><path fill="#370101" d="M80 220h10v10H80zm10 0h10v10H90zm10 0h10v10h-10zm10 0h10v10h-10zm10 0h10v10h-10zm10 0h10v10h-10zm10 0h10v10h-10zm10 0h10v10h-10zm10 0h10v10h-10zm10 0h10v10h-10zm10 0h10v10h-10zm10 0h10v10h-10zm10 0h10v10h-10zm10 0h10v10h-10zm10 0h10v10h-10zm10 0h10v10h-10zm10 0h10v10h-10z"/><path fill="#7D6633" d="M250 220h10v10h-10z"/><path fill="#312404" d="M60 230h10v10H60z"/><path fill="#4E3C13" d="M70 230h10v10H70zm10 0h10v10H80zm10 0h10v10H90z"/><path fill="#370101" d="M100 230h10v10h-10zm10 0h10v10h-10zm10 0h10v10h-10zm10 0h10v10h-10zm10 0h10v10h-10zm10 0h10v10h-10zm10 0h10v10h-10zm10 0h10v10h-10zm10 0h10v10h-10zm10 0h10v10h-10zm10 0h10v10h-10zm10 0h10v10h-10z"/><path fill="#7D6633" d="M220 230h10v10h-10z"/><path fill="#4E3C13" d="M230 230h10v10h-10zm10 0h10v10h-10z"/><path fill="#D9BE7F" d="M250 230h10v10h-10z"/><path fill="#312404" d="M60 240h10v10H60zm10 0h10v10H70z"/><path fill="#4E3C13" d="M80 240h10v10H80zm10 0h10v10H90z"/><path fill="#A58A4B" d="M100 240h10v10h-10z"/><path fill="#4E3C13" d="M110 240h10v10h-10zm10 0h10v10h-10z"/><path fill="#7D6633" d="M130 240h10v10h-10z"/><path fill="#4E3C13" d="M140 240h10v10h-10zm10 0h10v10h-10zm10 0h10v10h-10z"/><path fill="#7D6633" d="M170 240h10v10h-10z"/><path fill="#4E3C13" d="M180 240h10v10h-10zm10 0h10v10h-10zm10 0h10v10h-10z"/><path fill="#7D6633" d="M210 240h10v10h-10zm10 0h10v10h-10z"/><path fill="#A58A4B" d="M230 240h10v10h-10z"/><path fill="#D9BE7F" d="M240 240h10v10h-10zm10 0h10v10h-10z"/><path fill="#312404" d="M70 250h10v10H70z"/><path fill="#4E3C13" d="M80 250h10v10H80zm10 0h10v10H90z"/><path fill="#A58A4B" d="M100 250h10v10h-10zm10 0h10v10h-10zm10 0h10v10h-10z"/><path fill="#7D6633" d="M130 250h10v10h-10zm10 0h10v10h-10z"/><path fill="#A58A4B" d="M150 250h10v10h-10zm10 0h10v10h-10zm10 0h10v10h-10z"/><path fill="#7D6633" d="M180 250h10v10h-10z"/><path fill="#A58A4B" d="M190 250h10v10h-10zm10 0h10v10h-10zm10 0h10v10h-10zm10 0h10v10h-10z"/><path fill="#D9BE7F" d="M230 250h10v10h-10z"/><path fill="#7D6633" d="M240 250h10v10h-10z"/><path fill="#312404" d="M70 260h10v10H70zm10 0h10v10H80z"/><path fill="#4E3C13" d="M90 260h10v10H90zm10 0h10v10h-10z"/><path fill="#7D6633" d="M110 260h10v10h-10z"/><path fill="#A58A4B" d="M120 260h10v10h-10z"/><path fill="#7D6633" d="M130 260h10v10h-10zm10 0h10v10h-10z"/><path fill="#A58A4B" d="M150 260h10v10h-10z"/><path fill="#7D6633" d="M160 260h10v10h-10z"/><path fill="#A58A4B" d="M170 260h10v10h-10z"/><path fill="#D9BE7F" d="M180 260h10v10h-10z"/><path fill="#7D6633" d="M190 260h10v10h-10z"/><path fill="#A58A4B" d="M200 260h10v10h-10z"/><path fill="#D9BE7F" d="M210 260h10v10h-10z"/><path fill="#7D6633" d="M220 260h10v10h-10zm10 0h10v10h-10z"/><path fill="#312404" d="M240 260h10v10h-10zM80 270h10v10H80z"/><path fill="#4E3C13" d="M90 270h10v10H90zm10 0h10v10h-10zm10 0h10v10h-10z"/><path fill="#7D6633" d="M120 270h10v10h-10zm10 0h10v10h-10z"/><path fill="#4E3C13" d="M140 270h10v10h-10z"/><path fill="#7D6633" d="M150 270h10v10h-10zm10 0h10v10h-10z"/><path fill="#A58A4B" d="M170 270h10v10h-10z"/><path fill="#4E3C13" d="M180 270h10v10h-10z"/><path fill="#7D6633" d="M190 270h10v10h-10zm10 0h10v10h-10z"/><path fill="#D9BE7F" d="M210 270h10v10h-10z"/><path fill="#7D6633" d="M220 270h10v10h-10z"/><path fill="#4E3C13" d="M230 270h10v10h-10z"/><path fill="#312404" d="M240 270h10v10h-10zM80 280h10v10H80zm10 0h10v10H90zm10 0h10v10h-10z"/><path fill="#4E3C13" d="M110 280h10v10h-10zm10 0h10v10h-10zm10 0h10v10h-10zm10 0h10v10h-10zm10 0h10v10h-10z"/><path fill="#7D6633" d="M160 280h10v10h-10z"/><path fill="#A58A4B" d="M170 280h10v10h-10z"/><path fill="#312404" d="M180 280h10v10h-10z"/><path fill="#4E3C13" d="M190 280h10v10h-10z"/><path fill="#7D6633" d="M200 280h10v10h-10zm10 0h10v10h-10z"/><path fill="#4E3C13" d="M220 280h10v10h-10z"/><path fill="#312404" d="M230 280h10v10h-10zM90 290h10v10H90zm10 0h10v10h-10zm10 0h10v10h-10z"/><path fill="#4E3C13" d="M120 290h10v10h-10zm10 0h10v10h-10z"/><path fill="#312404" d="M140 290h10v10h-10z"/><path fill="#4E3C13" d="M150 290h10v10h-10zm10 0h10v10h-10z"/><path fill="#312404" d="M170 290h10v10h-10zm10 0h10v10h-10z"/><path fill="#4E3C13" d="M190 290h10v10h-10zm10 0h10v10h-10zm10 0h10v10h-10z"/><path fill="#312404" d="M220 290h10v10h-10zm10 0h10v10h-10zm-130 10h10v10h-10zm10 0h10v10h-10zm10 0h10v10h-10zm10 0h10v10h-10zm10 0h10v10h-10z"/><path fill="#4E3C13" d="M150 300h10v10h-10z"/><path fill="#312404" d="M160 300h10v10h-10zm10 0h10v10h-10zm10 0h10v10h-10zm10 0h10v10h-10zm10 0h10v10h-10zm10 0h10v10h-10zm10 0h10v10h-10zm-100 10h10v10h-10zm10 0h10v10h-10zm10 0h10v10h-10zm10 0h10v10h-10zm10 0h10v10h-10zm10 0h10v10h-10zm10 0h10v10h-10zm10 0h10v10h-10zm10 0h10v10h-10z"/></svg>