<svg width="320" height="320" xmlns="http://www.w3.org/2000/svg" shape-rendering="crispEdges"><path fill="#585F9A" d="M90 0h10v10H90z"/><path fill="#DDE5F1" d="M100 0h10v10h-10z"/><path fill="#1E1D5D" d="M80 10h10v10H80z"/><path fill="#585F9A" d="M90 10h10v10H90zm10 0h10v10h-10z"/><path fill="#9BB0D1" d="M110 10h10v10h-10z"/><path fill="#EDF2F9" d="M120 10h10v10h-10z"/><path fill="#DDE5F1" d="M130 10h10v10h-10zm10 0h10v10h-10z"/><path fill="#1E1D5D" d="M80 20h10v10H80z"/><path fill="#585F9A" d="M90 20h10v10H90z"/><path fill="#EDF2F9" d="M100 20h10v10h-10z"/><path fill="#585F9A" d="M110 20h10v10h-10z"/><path fill="#9BB0D1" d="M120 20h10v10h-10zm10 0h10v10h-10zm10 0h10v10h-10z"/><path fill="#EDF2F9" d="M150 20h10v10h-10zm10 0h10v10h-10z"/><path fill="#1E1D5D" d="M70 30h10v10H70zm10 0h10v10H80z"/><path fill="#585F9A" d="M90 30h10v10H90z"/><path fill="#EDF2F9" d="M100 30h10v10h-10z"/><path fill="#585F9A" d="M110 30h10v10h-10zm10 0h10v10h-10z"/><path fill="#EDF2F9" d="M130 30h10v10h-10z"/><path fill="#585F9A" d="M140 30h10v10h-10z"/><path fill="#9BB0D1" d="M150 30h10v10h-10z"/><path fill="#EDF2F9" d="M160 30h10v10h-10zm10 0h10v10h-10zm10 0h10v10h-10z"/><path fill="#0F0E40" d="M60 40h10v10H60z"/><path fill="#1E1D5D" d="M70 40h10v10H70z"/><path fill="#585F9A" d="M80 40h10v10H80zm10 0h10v10H90z"/><path fill="#9BB0D1" d="M100 40h10v10h-10z"/><path fill="#EDF2F9" d="M110 40h10v10h-10z"/><path fill="#585F9A" d="M120 40h10v10h-10z"/><path fill="#9BB0D1" d="M130 40h10v10h-10z"/><path fill="#EDF2F9" d="M140 40h10v10h-10z"/><path fill="#585F9A" d="M150 40h10v10h-10z"/><path fill="#9BB0D1" d="M160 40h10v10h-10zm10 0h10v10h-10z"/><path fill="#EDF2F9" d="M180 40h10v10h-10z"/><path fill="#1E1D5D" d="M60 50h10v10H60zm10 0h10v10H70z"/><path fill="#585F9A" d="M80 50h10v10H80zm10 0h10v10H90z"/><path fill="#9BB0D1" d="M100 50h10v10h-10z"/><path fill="#EDF2F9" d="M110 50h10v10h-10zm10 0h10v10h-10z"/><path fill="#585F9A" d="M130 50h10v10h-10z"/><path fill="#EDF2F9" d="M140 50h10v10h-10zm10 0h10v10h-10z"/><path fill="#585F9A" d="M160 50h10v10h-10z"/><path fill="#EDF2F9" d="M170 50h10v10h-10zm10 0h10v10h-10z"/><path fill="#1E1D5D" d="M60 60h10v10H60z"/><path fill="#585F9A" d="M70 60h10v10H70z"/><path fill="#1E1D5D" d="M80 60h10v10H80z"/><path fill="#585F9A" d="M90 60h10v10H90z"/><path fill="#9BB0D1" d="M100 60h10v10h-10zm10 0h10v10h-10z"/><path fill="#EDF2F9" d="M120 60h10v10h-10z"/><path fill="#585F9A" d="M130 60h10v10h-10z"/><path fill="#9BB0D1" d="M140 60h10v10h-10z"/><path fill="#EDF2F9" d="M150 60h10v10h-10zm10 0h10v10h-10z"/><path fill="#9BB0D1" d="M170 60h10v10h-10z"/><path fill="#EDF2F9" d="M180 60h10v10h-10z"/><path fill="#1E1D5D" d="M50 70h10v10H50zm10 0h10v10H60zm10 0h10v10H70z"/><path fill="#585F9A" d="M80 70h10v10H80zm10 0h10v10H90z"/><path fill="#9BB0D1" d="M100 70h10v10h-10zm10 0h10v10h-10z"/><path fill="#EDF2F9" d="M120 70h10v10h-10zm10 0h10v10h-10z"/><path fill="#585F9A" d="M140 70h10v10h-10z"/><path fill="#9BB0D1" d="M150 70h10v10h-10z"/><path fill="#585F9A" d="M160 70h10v10h-10z"/><path fill="#EDF2F9" d="M170 70h10v10h-10z"/><path fill="#9BB0D1" d="M180 70h10v10h-10z"/><path fill="#1E1D5D" d="M50 80h10v10H50zm10 0h10v10H60zm10 0h10v10H70z"/><path fill="#585F9A" d="M80 80h10v10H80z"/><path fill="#9BB0D1" d="M90 80h10v10H90zm10 0h10v10h-10zm10 0h10v10h-10z"/><path fill="#EDF2F9" d="M120 80h10v10h-10zm10 0h10v10h-10z"/><path fill="#585F9A" d="M140 80h10v10h-10zm10 0h10v10h-10z"/><path fill="#EDF2F9" d="M160 80h10v10h-10zm10 0h10v10h-10z"/><path fill="#9BB0D1" d="M180 80h10v10h-10z"/><path fill="#0F0E40" d="M50 90h10v10H50z"/><path fill="#585F9A" d="M60 90h10v10H60z"/><path fill="#1E1D5D" d="M70 90h10v10H70z"/><path fill="#585F9A" d="M80 90h10v10H80z"/><path fill="#9BB0D1" d="M90 90h10v10H90z"/><path fill="#EDF2F9" d="M100 90h10v10h-10zm10 0h10v10h-10z"/><path fill="#9BB0D1" d="M120 90h10v10h-10z"/><path fill="#585F9A" d="M130 90h10v10h-10zm10 0h10v10h-10z"/><path fill="#EDF2F9" d="M150 90h10v10h-10zm10 0h10v10h-10z"/><path fill="#1E1D5D" d="M170 90h10v10h-10z"/><path fill="#585F9A" d="M180 90h10v10h-10z"/><path fill="#0F0E40" d="M50 100h10v10H50zm10 0h10v10H60z"/><path fill="#585F9A" d="M70 100h10v10H70zm10 0h10v10H80z"/><path fill="#EDF2F9" d="M90 100h10v10H90z"/><path fill="#585F9A" d="M100 100h10v10h-10zm10 0h10v10h-10zm10 0h10v10h-10zm10 0h10v10h-10z"/><path fill="#1E1D5D" d="M140 100h10v10h-10zm10 0h10v10h-10z"/><path fill="#585F9A" d="M160 100h10v10h-10z"/><path fill="#1E1D5D" d="M170 100h10v10h-10z"/><path fill="#EDF2F9" d="M180 100h10v10h-10z"/><path fill="#0F0E40" d="M60 110h10v10H60zm10 0h10v10H70z"/><path fill="#585F9A" d="M80 110h10v10H80zm10 0h10v10H90zm10 0h10v10h-10z"/><path fill="#1E1D5D" d="M110 110h10v10h-10zm10 0h10v10h-10zm10 0h10v10h-10z"/><path fill="#9BB0D1" d="M140 110h10v10h-10z"/><path fill="#585F9A" d="M150 110h10v10h-10z"/><path fill="#9BB0D1" d="M160 110h10v10h-10z"/><path fill="#0F0E40" d="M170 110h10v10h-10z"/><path fill="#9BB0D1" d="M180 110h10v10h-10z"/><path fill="#1E1D5D" d="M230 110h10v10h-10z"/><path fill="#585F9A" d="M240 110h10v10h-10z"/><path fill="#0F0E40" d="M60 120h10v10H60zm10 0h10v10H70z"/><path fill="#1E1D5D" d="M80 120h10v10H80zm10 0h10v10H90zm10 0h10v10h-10zm10 0h10v10h-10z"/><path fill="#585F9A" d="M120 120h10v10h-10zm10 0h10v10h-10zm10 0h10v10h-10z"/><path fill="#9BB0D1" d="M150 120h10v10h-10z"/><path fill="#EDF2F9" d="M160 120h10v10h-10z"/><path fill="#1E1D5D" d="M170 120h10v10h-10z"/><path fill="#585F9A" d="M180 120h10v10h-10z"/><path fill="#0F0E40" d="M210 120h10v10h-10z"/><path fill="#585F9A" d="M220 120h10v10h-10z"/><path fill="#EDF2F9" d="M230 120h10v10h-10z"/><path fill="#585F9A" d="M240 120h10v10h-10z"/><path fill="#EDF2F9" d="M250 120h10v10h-10z"/><path fill="#0F0E40" d="M70 130h10v10H70z"/><path fill="#1E1D5D" d="M80 130h10v10H80zm10 0h10v10H90z"/><path fill="#585F9A" d="M100 130h10v10h-10z"/><path fill="#9BB0D1" d="M110 130h10v10h-10zm10 0h10v10h-10z"/><path fill="#585F9A" d="M130 130h10v10h-10z"/><path fill="#9BB0D1" d="M140 130h10v10h-10z"/><path fill="#585F9A" d="M150 130h10v10h-10z"/><path fill="#EDF2F9" d="M160 130h10v10h-10z"/><path fill="#1E1D5D" d="M170 130h10v10h-10z"/><path fill="#0F0E40" d="M180 130h10v10h-10zm10 0h10v10h-10z"/><path fill="#1E1D5D" d="M200 130h10v10h-10z"/><path fill="#585F9A" d="M210 130h10v10h-10z"/><path fill="#9BB0D1" d="M220 130h10v10h-10z"/><path fill="#EDF2F9" d="M230 130h10v10h-10z"/><path fill="#585F9A" d="M240 130h10v10h-10z"/><path fill="#9BB0D1" d="M250 130h10v10h-10z"/><path fill="#EDF2F9" d="M260 130h10v10h-10z"/><path fill="#585F9A" d="M40 140h10v10H40z"/><path fill="#9BB0D1" d="M50 140h10v10H50zm10 0h10v10H60z"/><path fill="#0F0E40" d="M70 140h10v10H70zm10 0h10v10H80z"/><path fill="#1E1D5D" d="M90 140h10v10H90zm10 0h10v10h-10z"/><path fill="#9BB0D1" d="M110 140h10v10h-10z"/><path fill="#585F9A" d="M120 140h10v10h-10zm10 0h10v10h-10z"/><path fill="#9BB0D1" d="M140 140h10v10h-10zm10 0h10v10h-10zm10 0h10v10h-10z"/><path fill="#0F0E40" d="M170 140h10v10h-10zm10 0h10v10h-10z"/><path fill="#585F9A" d="M190 140h10v10h-10zm10 0h10v10h-10z"/><path fill="#9BB0D1" d="M210 140h10v10h-10z"/><path fill="#EDF2F9" d="M220 140h10v10h-10z"/><path fill="#585F9A" d="M230 140h10v10h-10zm10 0h10v10h-10z"/><path fill="#EDF2F9" d="M250 140h10v10h-10z"/><path fill="#9BB0D1" d="M260 140h10v10h-10z"/><path fill="#EDF2F9" d="M270 140h10v10h-10z"/><path fill="#585F9A" d="M40 150h10v10H40zm10 0h10v10H50zm10 0h10v10H60z"/><path fill="#9BB0D1" d="M70 150h10v10H70z"/><path fill="#0F0E40" d="M80 150h10v10H80z"/><path fill="#1E1D5D" d="M90 150h10v10H90zm10 0h10v10h-10z"/><path fill="#9BB0D1" d="M110 150h10v10h-10z"/><path fill="#585F9A" d="M120 150h10v10h-10z"/><path fill="#9BB0D1" d="M130 150h10v10h-10zm10 0h10v10h-10z"/><path fill="#0F0E40" d="M150 150h10v10h-10z"/><path fill="#1E1D5D" d="M160 150h10v10h-10z"/><path fill="#0F0E40" d="M170 150h10v10h-10z"/><path fill="#585F9A" d="M180 150h10v10h-10z"/><path fill="#9BB0D1" d="M190 150h10v10h-10zm10 0h10v10h-10z"/><path fill="#EDF2F9" d="M210 150h10v10h-10z"/><path fill="#585F9A" d="M220 150h10v10h-10zm10 0h10v10h-10z"/><path fill="#EDF2F9" d="M240 150h10v10h-10zm10 0h10v10h-10z"/><path fill="#9BB0D1" d="M260 150h10v10h-10z"/><path fill="#EDF2F9" d="M270 150h10v10h-10z"/><path fill="#0F0E40" d="M40 160h10v10H40zm10 0h10v10H50z"/><path fill="#1E1D5D" d="M60 160h10v10H60zm10 0h10v10H70z"/><path fill="#0F0E40" d="M80 160h10v10H80zm10 0h10v10H90z"/><path fill="#1E1D5D" d="M100 160h10v10h-10z"/><path fill="#585F9A" d="M110 160h10v10h-10zm10 0h10v10h-10z"/><path fill="#9BB0D1" d="M130 160h10v10h-10z"/><path fill="#0F0E40" d="M140 160h10v10h-10zm10 0h10v10h-10zm10 0h10v10h-10zm10 0h10v10h-10zm10 0h10v10h-10z"/><path fill="#585F9A" d="M190 160h10v10h-10zm10 0h10v10h-10z"/><path fill="#9BB0D1" d="M210 160h10v10h-10zm10 0h10v10h-10zm10 0h10v10h-10z"/><path fill="#EDF2F9" d="M240 160h10v10h-10zm10 0h10v10h-10z"/><path fill="#9BB0D1" d="M260 160h10v10h-10zm10 0h10v10h-10z"/><path fill="#585F9A" d="M280 160h10v10h-10z"/><path fill="#EDF2F9" d="M50 170h10v10H50zm10 0h10v10H60zm10 0h10v10H70z"/><path fill="#1E1D5D" d="M80 170h10v10H80z"/><path fill="#0F0E40" d="M90 170h10v10H90z"/><path fill="#1E1D5D" d="M100 170h10v10h-10zm10 0h10v10h-10z"/><path fill="#585F9A" d="M120 170h10v10h-10z"/><path fill="#1E1D5D" d="M130 170h10v10h-10z"/><path fill="#0F0E40" d="M140 170h10v10h-10z"/><path fill="#585F9A" d="M150 170h10v10h-10z"/><path fill="#EDF2F9" d="M160 170h10v10h-10z"/><path fill="#0F0E40" d="M170 170h10v10h-10zm10 0h10v10h-10z"/><path fill="#1E1D5D" d="M190 170h10v10h-10zm10 0h10v10h-10z"/><path fill="#585F9A" d="M210 170h10v10h-10zm10 0h10v10h-10z"/><path fill="#EDF2F9" d="M230 170h10v10h-10z"/><path fill="#585F9A" d="M240 170h10v10h-10z"/><path fill="#9BB0D1" d="M250 170h10v10h-10z"/><path fill="#EDF2F9" d="M260 170h10v10h-10zm10 0h10v10h-10z"/><path fill="#585F9A" d="M10 180h10v10H10zm10 0h10v10H20zm10 0h10v10H30z"/><path fill="#9BB0D1" d="M40 180h10v10H40zm10 0h10v10H50zm10 0h10v10H60z"/><path fill="#EDF2F9" d="M70 180h10v10H70z"/><path fill="#9BB0D1" d="M80 180h10v10H80z"/><path fill="#0F0E40" d="M90 180h10v10H90z"/><path fill="#1E1D5D" d="M100 180h10v10h-10zm10 0h10v10h-10z"/><path fill="#9BB0D1" d="M120 180h10v10h-10z"/><path fill="#0F0E40" d="M130 180h10v10h-10z"/><path fill="#585F9A" d="M140 180h10v10h-10zm10 0h10v10h-10z"/><path fill="#9BB0D1" d="M160 180h10v10h-10z"/><path fill="#EDF2F9" d="M170 180h10v10h-10z"/><path fill="#0F0E40" d="M180 180h10v10h-10z"/><path fill="#1E1D5D" d="M190 180h10v10h-10z"/><path fill="#585F9A" d="M200 180h10v10h-10z"/><path fill="#1E1D5D" d="M210 180h10v10h-10zm10 0h10v10h-10z"/><path fill="#585F9A" d="M230 180h10v10h-10z"/><path fill="#EDF2F9" d="M240 180h10v10h-10zm10 0h10v10h-10z"/><path fill="#585F9A" d="M260 180h10v10h-10z"/><path fill="#9BB0D1" d="M270 180h10v10h-10z"/><path fill="#1E1D5D" d="M10 190h10v10H10z"/><path fill="#9BB0D1" d="M20 190h10v10H20zm10 0h10v10H30z"/><path fill="#585F9A" d="M40 190h10v10H40z"/><path fill="#EDF2F9" d="M50 190h10v10H50zm10 0h10v10H60z"/><path fill="#9BB0D1" d="M70 190h10v10H70z"/><path fill="#585F9A" d="M80 190h10v10H80z"/><path fill="#1E1D5D" d="M90 190h10v10H90z"/><path fill="#0F0E40" d="M100 190h10v10h-10z"/><path fill="#1E1D5D" d="M110 190h10v10h-10z"/><path fill="#9BB0D1" d="M120 190h10v10h-10z"/><path fill="#0F0E40" d="M130 190h10v10h-10zm10 0h10v10h-10z"/><path fill="#585F9A" d="M150 190h10v10h-10zm10 0h10v10h-10z"/><path fill="#9BB0D1" d="M170 190h10v10h-10z"/><path fill="#0F0E40" d="M180 190h10v10h-10z"/><path fill="#1E1D5D" d="M190 190h10v10h-10z"/><path fill="#585F9A" d="M200 190h10v10h-10z"/><path fill="#9BB0D1" d="M210 190h10v10h-10zm10 0h10v10h-10z"/><path fill="#1E1D5D" d="M230 190h10v10h-10z"/><path fill="#9BB0D1" d="M240 190h10v10h-10z"/><path fill="#585F9A" d="M250 190h10v10h-10z"/><path fill="#9BB0D1" d="M260 190h10v10h-10z"/><path fill="#1E1D5D" d="M10 200h10v10H10z"/><path fill="#585F9A" d="M20 200h10v10H20z"/><path fill="#9BB0D1" d="M30 200h10v10H30zm10 0h10v10H40z"/><path fill="#585F9A" d="M50 200h10v10H50zm10 0h10v10H60z"/><path fill="#9BB0D1" d="M70 200h10v10H70z"/><path fill="#1E1D5D" d="M80 200h10v10H80zm10 0h10v10H90z"/><path fill="#9BB0D1" d="M100 200h10v10h-10z"/><path fill="#1E1D5D" d="M110 200h10v10h-10zm10 0h10v10h-10z"/><path fill="#0F0E40" d="M130 200h10v10h-10zm10 0h10v10h-10z"/><path fill="#1E1D5D" d="M150 200h10v10h-10zm10 0h10v10h-10z"/><path fill="#0F0E40" d="M170 200h10v10h-10zm10 0h10v10h-10zm10 0h10v10h-10z"/><path fill="#1E1D5D" d="M200 200h10v10h-10z"/><path fill="#585F9A" d="M210 200h10v10h-10zm10 0h10v10h-10z"/><path fill="#1E1D5D" d="M230 200h10v10h-10z"/><path fill="#585F9A" d="M240 200h10v10h-10z"/><path fill="#9BB0D1" d="M250 200h10v10h-10zm10 0h10v10h-10z"/><path fill="#0F0E40" d="M270 200h10v10h-10zM10 210h10v10H10z"/><path fill="#585F9A" d="M20 210h10v10H20z"/><path fill="#9BB0D1" d="M30 210h10v10H30zm10 0h10v10H40zm10 0h10v10H50z"/><path fill="#585F9A" d="M60 210h10v10H60z"/><path fill="#1E1D5D" d="M70 210h10v10H70zm10 0h10v10H80z"/><path fill="#9BB0D1" d="M90 210h10v10H90z"/><path fill="#585F9A" d="M100 210h10v10h-10z"/><path fill="#0F0E40" d="M110 210h10v10h-10z"/><path fill="#1E1D5D" d="M120 210h10v10h-10z"/><path fill="#0F0E40" d="M130 210h10v10h-10z"/><path fill="#1E1D5D" d="M140 210h10v10h-10z"/><path fill="#585F9A" d="M150 210h10v10h-10zm10 0h10v10h-10z"/><path fill="#0F0E40" d="M170 210h10v10h-10zm10 0h10v10h-10zm10 0h10v10h-10z"/><path fill="#1E1D5D" d="M200 210h10v10h-10z"/><path fill="#585F9A" d="M210 210h10v10h-10z"/><path fill="#9BB0D1" d="M220 210h10v10h-10z"/><path fill="#1E1D5D" d="M230 210h10v10h-10z"/><path fill="#585F9A" d="M240 210h10v10h-10z"/><path fill="#9BB0D1" d="M250 210h10v10h-10z"/><path fill="#0F0E40" d="M260 210h10v10h-10zm10 0h10v10h-10z"/><path fill="#585F9A" d="M280 210h10v10h-10z"/><path fill="#EDF2F9" d="M290 210h10v10h-10zm10 0h10v10h-10zm10 0h10v10h-10z"/><path fill="#0F0E40" d="M10 220h10v10H10z"/><path fill="#585F9A" d="M20 220h10v10H20z"/><path fill="#9BB0D1" d="M30 220h10v10H30zm10 0h10v10H40z"/><path fill="#585F9A" d="M50 220h10v10H50z"/><path fill="#1E1D5D" d="M60 220h10v10H60zm10 0h10v10H70zm10 0h10v10H80zm10 0h10v10H90z"/><path fill="#9BB0D1" d="M100 220h10v10h-10zm10 0h10v10h-10z"/><path fill="#0F0E40" d="M120 220h10v10h-10zm10 0h10v10h-10z"/><path fill="#1E1D5D" d="M140 220h10v10h-10z"/><path fill="#585F9A" d="M150 220h10v10h-10z"/><path fill="#0F0E40" d="M160 220h10v10h-10zm10 0h10v10h-10zm10 0h10v10h-10z"/><path fill="#585F9A" d="M190 220h10v10h-10z"/><path fill="#0F0E40" d="M200 220h10v10h-10z"/><path fill="#1E1D5D" d="M210 220h10v10h-10z"/><path fill="#9BB0D1" d="M220 220h10v10h-10z"/><path fill="#1E1D5D" d="M230 220h10v10h-10z"/><path fill="#585F9A" d="M240 220h10v10h-10z"/><path fill="#9BB0D1" d="M250 220h10v10h-10z"/><path fill="#0F0E40" d="M260 220h10v10h-10z"/><path fill="#585F9A" d="M270 220h10v10h-10zm10 0h10v10h-10zm10 0h10v10h-10z"/><path fill="#EDF2F9" d="M300 220h10v10h-10z"/><path fill="#9BB0D1" d="M310 220h10v10h-10z"/><path fill="#0F0E40" d="M10 230h10v10H10zm10 0h10v10H20z"/><path fill="#585F9A" d="M30 230h10v10H30zm10 0h10v10H40z"/><path fill="#1E1D5D" d="M50 230h10v10H50zm10 0h10v10H60z"/><path fill="#585F9A" d="M70 230h10v10H70z"/><path fill="#1E1D5D" d="M80 230h10v10H80zm10 0h10v10H90zm10 0h10v10h-10z"/><path fill="#585F9A" d="M110 230h10v10h-10z"/><path fill="#9BB0D1" d="M120 230h10v10h-10z"/><path fill="#0F0E40" d="M130 230h10v10h-10z"/><path fill="#585F9A" d="M140 230h10v10h-10z"/><path fill="#0F0E40" d="M150 230h10v10h-10zm10 0h10v10h-10z"/><path fill="#585F9A" d="M170 230h10v10h-10z"/><path fill="#9BB0D1" d="M180 230h10v10h-10z"/><path fill="#585F9A" d="M190 230h10v10h-10z"/><path fill="#EDF2F9" d="M200 230h10v10h-10z"/><path fill="#0F0E40" d="M210 230h10v10h-10z"/><path fill="#1E1D5D" d="M220 230h10v10h-10z"/><path fill="#585F9A" d="M230 230h10v10h-10z"/><path fill="#9BB0D1" d="M240 230h10v10h-10z"/><path fill="#0F0E40" d="M250 230h10v10h-10z"/><path fill="#1E1D5D" d="M260 230h10v10h-10zm10 0h10v10h-10z"/><path fill="#585F9A" d="M280 230h10v10h-10zm10 0h10v10h-10z"/><path fill="#9BB0D1" d="M300 230h10v10h-10z"/><path fill="#EDF2F9" d="M310 230h10v10h-10z"/><path fill="#0F0E40" d="M20 240h10v10H20z"/><path fill="#585F9A" d="M30 240h10v10H30z"/><path fill="#0F0E40" d="M40 240h10v10H40z"/><path fill="#1E1D5D" d="M50 240h10v10H50z"/><path fill="#585F9A" d="M60 240h10v10H60z"/><path fill="#1E1D5D" d="M70 240h10v10H70z"/><path fill="#585F9A" d="M80 240h10v10H80z"/><path fill="#EDF2F9" d="M90 240h10v10H90z"/><path fill="#1E1D5D" d="M100 240h10v10h-10zm10 0h10v10h-10zm10 0h10v10h-10z"/><path fill="#585F9A" d="M130 240h10v10h-10z"/><path fill="#0F0E40" d="M140 240h10v10h-10zm10 0h10v10h-10z"/><path fill="#585F9A" d="M160 240h10v10h-10z"/><path fill="#9BB0D1" d="M170 240h10v10h-10z"/><path fill="#585F9A" d="M180 240h10v10h-10z"/><path fill="#9BB0D1" d="M190 240h10v10h-10z"/><path fill="#EDF2F9" d="M200 240h10v10h-10z"/><path fill="#0F0E40" d="M210 240h10v10h-10z"/><path fill="#1E1D5D" d="M220 240h10v10h-10z"/><path fill="#585F9A" d="M230 240h10v10h-10z"/><path fill="#9BB0D1" d="M240 240h10v10h-10z"/><path fill="#0F0E40" d="M250 240h10v10h-10z"/><path fill="#1E1D5D" d="M260 240h10v10h-10z"/><path fill="#585F9A" d="M270 240h10v10h-10z"/><path fill="#1E1D5D" d="M280 240h10v10h-10z"/><path fill="#0F0E40" d="M290 240h10v10h-10z"/><path fill="#585F9A" d="M300 240h10v10h-10z"/><path fill="#0F0E40" d="M30 250h10v10H30zm10 0h10v10H40zm10 0h10v10H50z"/><path fill="#1E1D5D" d="M60 250h10v10H60z"/><path fill="#0F0E40" d="M70 250h10v10H70z"/><path fill="#585F9A" d="M80 250h10v10H80zm10 0h10v10H90z"/><path fill="#9BB0D1" d="M100 250h10v10h-10z"/><path fill="#EDF2F9" d="M110 250h10v10h-10zm10 0h10v10h-10z"/><path fill="#1E1D5D" d="M130 250h10v10h-10z"/><path fill="#0F0E40" d="M140 250h10v10h-10zm10 0h10v10h-10z"/><path fill="#585F9A" d="M160 250h10v10h-10zm10 0h10v10h-10z"/><path fill="#9BB0D1" d="M180 250h10v10h-10zm10 0h10v10h-10z"/><path fill="#EDF2F9" d="M200 250h10v10h-10z"/><path fill="#0F0E40" d="M210 250h10v10h-10z"/><path fill="#1E1D5D" d="M220 250h10v10h-10z"/><path fill="#585F9A" d="M230 250h10v10h-10z"/><path fill="#0F0E40" d="M240 250h10v10h-10z"/><path fill="#1E1D5D" d="M250 250h10v10h-10z"/><path fill="#585F9A" d="M260 250h10v10h-10zm10 0h10v10h-10z"/><path fill="#0F0E40" d="M280 250h10v10h-10zm10 0h10v10h-10zM50 260h10v10H50zm10 0h10v10H60zm10 0h10v10H70z"/><path fill="#585F9A" d="M80 260h10v10H80zm10 0h10v10H90z"/><path fill="#9BB0D1" d="M100 260h10v10h-10zm10 0h10v10h-10z"/><path fill="#585F9A" d="M120 260h10v10h-10z"/><path fill="#1E1D5D" d="M130 260h10v10h-10z"/><path fill="#0F0E40" d="M140 260h10v10h-10z"/><path fill="#1E1D5D" d="M150 260h10v10h-10zm10 0h10v10h-10z"/><path fill="#585F9A" d="M170 260h10v10h-10zm10 0h10v10h-10zm10 0h10v10h-10z"/><path fill="#9BB0D1" d="M200 260h10v10h-10z"/><path fill="#0F0E40" d="M210 260h10v10h-10z"/><path fill="#585F9A" d="M220 260h10v10h-10z"/><path fill="#9BB0D1" d="M230 260h10v10h-10z"/><path fill="#1E1D5D" d="M240 260h10v10h-10z"/><path fill="#585F9A" d="M250 260h10v10h-10zm10 0h10v10h-10z"/><path fill="#0F0E40" d="M270 260h10v10h-10zm10 0h10v10h-10zM60 270h10v10H60zm10 0h10v10H70z"/><path fill="#585F9A" d="M80 270h10v10H80z"/><path fill="#9BB0D1" d="M90 270h10v10H90z"/><path fill="#585F9A" d="M100 270h10v10h-10z"/><path fill="#1E1D5D" d="M110 270h10v10h-10zm10 0h10v10h-10z"/><path fill="#585F9A" d="M130 270h10v10h-10z"/><path fill="#0F0E40" d="M140 270h10v10h-10z"/><path fill="#1E1D5D" d="M150 270h10v10h-10zm10 0h10v10h-10zm10 0h10v10h-10zm10 0h10v10h-10z"/><path fill="#0F0E40" d="M190 270h10v10h-10zm10 0h10v10h-10zm10 0h10v10h-10z"/><path fill="#9BB0D1" d="M220 270h10v10h-10z"/><path fill="#1E1D5D" d="M230 270h10v10h-10z"/><path fill="#585F9A" d="M240 270h10v10h-10z"/><path fill="#0F0E40" d="M250 270h10v10h-10zm10 0h10v10h-10zM70 280h10v10H70z"/><path fill="#585F9A" d="M80 280h10v10H80z"/><path fill="#1E1D5D" d="M90 280h10v10H90zm10 0h10v10h-10zm10 0h10v10h-10zm10 0h10v10h-10z"/><path fill="#9BB0D1" d="M130 280h10v10h-10z"/><path fill="#0F0E40" d="M140 280h10v10h-10zm10 0h10v10h-10z"/><path fill="#1E1D5D" d="M160 280h10v10h-10z"/><path fill="#585F9A" d="M170 280h10v10h-10z"/><path fill="#0F0E40" d="M180 280h10v10h-10zm10 0h10v10h-10z"/><path fill="#9BB0D1" d="M200 280h10v10h-10z"/><path fill="#EDF2F9" d="M210 280h10v10h-10z"/><path fill="#1E1D5D" d="M220 280h10v10h-10z"/><path fill="#585F9A" d="M230 280h10v10h-10z"/><path fill="#0F0E40" d="M240 280h10v10h-10zm10 0h10v10h-10zM80 290h10v10H80zm10 0h10v10H90z"/><path fill="#1E1D5D" d="M100 290h10v10h-10z"/><path fill="#585F9A" d="M110 290h10v10h-10z"/><path fill="#1E1D5D" d="M120 290h10v10h-10z"/><path fill="#9BB0D1" d="M130 290h10v10h-10z"/><path fill="#0F0E40" d="M140 290h10v10h-10z"/><path fill="#585F9A" d="M150 290h10v10h-10z"/><path fill="#9BB0D1" d="M160 290h10v10h-10z"/><path fill="#0F0E40" d="M170 290h10v10h-10zm10 0h10v10h-10z"/><path fill="#1E1D5D" d="M190 290h10v10h-10z"/><path fill="#585F9A" d="M200 290h10v10h-10z"/><path fill="#9BB0D1" d="M210 290h10v10h-10zm10 0h10v10h-10z"/><path fill="#0F0E40" d="M230 290h10v10h-10zm10 0h10v10h-10zM90 300h10v10H90zm10 0h10v10h-10zm10 0h10v10h-10zm10 0h10v10h-10z"/><path fill="#585F9A" d="M130 300h10v10h-10z"/><path fill="#0F0E40" d="M140 300h10v10h-10z"/><path fill="#9BB0D1" d="M150 300h10v10h-10zm10 0h10v10h-10z"/><path fill="#1E1D5D" d="M170 300h10v10h-10z"/><path fill="#0F0E40" d="M180 300h10v10h-10z"/><path fill="#1E1D5D" d="M190 300h10v10h-10zm10 0h10v10h-10z"/><path fill="#585F9A" d="M210 300h10v10h-10z"/><path fill="#0F0E40" d="M220 300h10v10h-10zm10 0h10v10h-10zm-120 10h10v10h-10zm10 0h10v10h-10zm10 0h10v10h-10zm10 0h10v10h-10zm10 0h10v10h-10zm10 0h10v10h-10zm10 0h10v10h-10zm10 0h10v10h-10zm10 0h10v10h-10zm10 0h10v10h-10zm10 0h10v10h-10zm10 0h10v10h-10z"/></svg>