<svg width="120" height="120" xmlns="http://www.w3.org/2000/svg" shape-rendering="crispEdges"><path fill="#321300" d="M60 8h4v4h-4zm4 0h4v4h-4z"/><path fill="#542600" d="M68 8h4v4h-4z"/><path fill="#321300" d="M56 12h4v4h-4z"/><path fill="#FFF" d="M60 12h4v4h-4z"/><path fill="#FFD752" d="M64 12h4v4h-4z"/><path fill="#D7A030" d="M68 12h4v4h-4z"/><path fill="#542600" d="M72 12h4v4h-4z"/><path fill="#321300" d="M56 16h4v4h-4z"/><path fill="#FFEAA5" d="M60 16h4v4h-4z"/><path fill="#D7A030" d="M64 16h4v4h-4z"/><path fill="#743D00" d="M68 16h4v4h-4z"/><path fill="#FFD752" d="M72 16h4v4h-4z"/><path fill="#542600" d="M76 16h4v4h-4z"/><path fill="#0A0300" d="M52 20h4v4h-4z"/><path fill="#FFF" d="M56 20h4v4h-4z"/><path fill="#D7A030" d="M60 20h4v4h-4z"/><path fill="#743D00" d="M64 20h4v4h-4zm4 0h4v4h-4z"/><path fill="#FFD752" d="M72 20h4v4h-4z"/><path fill="#542600" d="M76 20h4v4h-4z"/><path fill="#0A0300" d="M52 24h4v4h-4z"/><path fill="#FFDF82" d="M56 24h4v4h-4z"/><path fill="#743D00" d="M60 24h4v4h-4z"/><path fill="#C28A1F" d="M64 24h4v4h-4z"/><path fill="#743D00" d="M68 24h4v4h-4z"/><path fill="#D7A030" d="M72 24h4v4h-4z"/><path fill="#0C0000" d="M76 24h4v4h-4z"/><path fill="#110500" d="M48 28h4v4h-4z"/><path fill="#73502E" d="M52 28h4v4h-4z"/><path fill="#FFC330" d="M56 28h4v4h-4z"/><path fill="#743D00" d="M60 28h4v4h-4z"/><path fill="#C28A1F" d="M64 28h4v4h-4z"/><path fill="#743D00" d="M68 28h4v4h-4z"/><path fill="#572700" d="M72 28h4v4h-4z"/><path fill="#0C0000" d="M76 28h4v4h-4z"/><path fill="#0A0300" d="M48 32h4v4h-4z"/><path fill="#55381B" d="M52 32h4v4h-4z"/><path fill="#FFDF82" d="M56 32h4v4h-4z"/><path fill="#FFD752" d="M60 32h4v4h-4z"/><path fill="#D7A030" d="M64 32h4v4h-4z"/><path fill="#743D00" d="M68 32h4v4h-4z"/><path fill="#572700" d="M72 32h4v4h-4z"/><path fill="#3F0F00" d="M76 32h4v4h-4z"/><path fill="#0C0000" d="M80 32h4v4h-4z"/><path fill="#321300" d="M40 36h4v4h-4zm4 0h4v4h-4z"/><path fill="#4E2100" d="M48 36h4v4h-4z"/><path fill="#3B220A" d="M52 36h4v4h-4z"/><path fill="#915F2E" d="M56 36h4v4h-4z"/><path fill="#FFD752" d="M60 36h4v4h-4z"/><path fill="#D7A030" d="M64 36h4v4h-4z"/><path fill="#170000" d="M68 36h4v4h-4z"/><path fill="#3F0F00" d="M72 36h4v4h-4z"/><path fill="#FFEAA5" d="M76 36h4v4h-4z"/><path fill="#FFD752" d="M80 36h4v4h-4z"/><path fill="#542600" d="M84 36h4v4h-4z"/><path fill="#321300" d="M36 40h4v4h-4z"/><path fill="#FFDF82" d="M40 40h4v4h-4z"/><path fill="#FFD752" d="M44 40h4v4h-4z"/><path fill="#D7A030" d="M48 40h4v4h-4z"/><path fill="#3A1700" d="M52 40h4v4h-4z"/><path fill="#1F0B00" d="M56 40h4v4h-4z"/><path fill="#FFEAA5" d="M60 40h4v4h-4z"/><path fill="#170000" d="M64 40h4v4h-4z"/><path fill="#572700" d="M68 40h4v4h-4z"/><path fill="#743D00" d="M72 40h4v4h-4z"/><path fill="#FFEAA5" d="M76 40h4v4h-4z"/><path fill="#D7A030" d="M80 40h4v4h-4z"/><path fill="#542600" d="M84 40h4v4h-4z"/><path fill="#321300" d="M36 44h4v4h-4z"/><path fill="#FFC330" d="M40 44h4v4h-4z"/><path fill="#D7A030" d="M44 44h4v4h-4z"/><path fill="#C28A1F" d="M48 44h4v4h-4z"/><path fill="#743D00" d="M52 44h4v4h-4z"/><path fill="#351300" d="M56 44h4v4h-4z"/><path fill="#572700" d="M60 44h4v4h-4z"/><path fill="#170000" d="M64 44h4v4h-4z"/><path fill="#3F0F00" d="M68 44h4v4h-4z"/><path fill="#743D00" d="M72 44h4v4h-4z"/><path fill="#D7A030" d="M76 44h4v4h-4z"/><path fill="#442400" d="M80 44h4v4h-4z"/><path fill="#572700" d="M84 44h4v4h-4z"/><path fill="#542600" d="M88 44h4v4h-4z"/><path fill="#1D0B00" d="M32 48h4v4h-4z"/><path fill="#FFDF82" d="M36 48h4v4h-4z"/><path fill="#C37C19" d="M40 48h4v4h-4z"/><path fill="#C28A1F" d="M44 48h4v4h-4z"/><path fill="#442400" d="M48 48h4v4h-4z"/><path fill="#FFF" d="M52 48h4v4h-4z"/><path fill="#743D00" d="M56 48h4v4h-4z"/><path fill="#572700" d="M60 48h4v4h-4z"/><path fill="#0A0000" d="M64 48h4v4h-4z"/><path fill="#3F0F00" d="M68 48h4v4h-4z"/><path fill="#743D00" d="M72 48h4v4h-4z"/><path fill="#442400" d="M76 48h4v4h-4z"/><path fill="#FFEAA5" d="M80 48h4v4h-4z"/><path fill="#743D00" d="M84 48h4v4h-4z"/><path fill="#FFD752" d="M88 48h4v4h-4z"/><path fill="#542600" d="M92 48h4v4h-4z"/><path fill="#1D0B00" d="M32 52h4v4h-4z"/><path fill="#C37C19" d="M36 52h4v4h-4z"/><path fill="#623B09" d="M40 52h4v4h-4z"/><path fill="#331700" d="M44 52h4v4h-4z"/><path fill="#442400" d="M48 52h4v4h-4z"/><path fill="#FFEAA5" d="M52 52h4v4h-4z"/><path fill="#D7A030" d="M56 52h4v4h-4z"/><path fill="#743D00" d="M60 52h4v4h-4z"/><path fill="#351300" d="M64 52h4v4h-4z"/><path fill="#915F2E" d="M68 52h4v4h-4z"/><path fill="#442400" d="M72 52h4v4h-4z"/><path fill="#FFF" d="M76 52h4v4h-4z"/><path fill="#FFD752" d="M80 52h4v4h-4z"/><path fill="#743D00" d="M84 52h4v4h-4z"/><path fill="#D7A030" d="M88 52h4v4h-4z"/><path fill="#FFEAA5" d="M92 52h4v4h-4z"/><path fill="#542600" d="M96 52h4v4h-4z"/><path fill="#1D0B00" d="M32 56h4v4h-4z"/><path fill="#623B09" d="M36 56h4v4h-4z"/><path fill="#331700" d="M40 56h4v4h-4z"/><path fill="#442400" d="M44 56h4v4h-4z"/><path fill="#FFF" d="M48 56h4v4h-4z"/><path fill="#FFD752" d="M52 56h4v4h-4z"/><path fill="#C28A1F" d="M56 56h4v4h-4z"/><path fill="#743D00" d="M60 56h4v4h-4z"/><path fill="#351300" d="M64 56h4v4h-4z"/><path fill="#4E2100" d="M68 56h4v4h-4z"/><path fill="#FFEAA5" d="M72 56h4v4h-4z"/><path fill="#FFD752" d="M76 56h4v4h-4z"/><path fill="#D7A030" d="M80 56h4v4h-4z"/><path fill="#4E2100" d="M84 56h4v4h-4z"/><path fill="#D7A030" d="M88 56h4v4h-4z"/><path fill="#FFD752" d="M92 56h4v4h-4z"/><path fill="#542600" d="M96 56h4v4h-4z"/><path fill="#1D0B00" d="M28 60h4v4h-4z"/><path fill="#73490F" d="M32 60h4v4h-4z"/><path fill="#1F0B00" d="M36 60h4v4h-4z"/><path fill="#250900" d="M40 60h4v4h-4z"/><path fill="#743D00" d="M44 60h4v4h-4z"/><path fill="#FFEAA5" d="M48 60h4v4h-4z"/><path fill="#D7A030" d="M52 60h4v4h-4z"/><path fill="#743D00" d="M56 60h4v4h-4z"/><path fill="#351300" d="M60 60h4v4h-4z"/><path fill="#B1854F" d="M64 60h4v4h-4z"/><path fill="#2E1300" d="M68 60h4v4h-4z"/><path fill="#FFEAA5" d="M72 60h4v4h-4z"/><path fill="#D7A030" d="M76 60h4v4h-4zm4 0h4v4h-4z"/><path fill="#4E2100" d="M84 60h4v4h-4z"/><path fill="#331700" d="M88 60h4v4h-4z"/><path fill="#D7A030" d="M92 60h4v4h-4z"/><path fill="#0C0000" d="M96 60h4v4h-4z"/><path fill="#030000" d="M28 64h4v4h-4z"/><path fill="#1F0B00" d="M32 64h4v4h-4z"/><path fill="#230700" d="M36 64h4v4h-4z"/><path fill="#170000" d="M40 64h4v4h-4z"/><path fill="#743D00" d="M44 64h4v4h-4z"/><path fill="#D7A030" d="M48 64h4v4h-4z"/><path fill="#743D00" d="M52 64h4v4h-4z"/><path fill="#351300" d="M56 64h4v4h-4z"/><path fill="#915F2E" d="M60 64h4v4h-4z"/><path fill="#8B5D24" d="M64 64h4v4h-4z"/><path fill="#2E1300" d="M68 64h4v4h-4z"/><path fill="#967E30" d="M72 64h4v4h-4z"/><path fill="#D7A030" d="M76 64h4v4h-4z"/><path fill="#C3884E" d="M80 64h4v4h-4z"/><path fill="#4E2100" d="M84 64h4v4h-4z"/><path fill="#572700" d="M88 64h4v4h-4z"/><path fill="#331700" d="M92 64h4v4h-4z"/><path fill="#0C0000" d="M96 64h4v4h-4z"/><path fill="#070000" d="M24 68h4v4h-4z"/><path fill="#351300" d="M28 68h4v4h-4z"/><path fill="#230700" d="M32 68h4v4h-4z"/><path fill="#0A0000" d="M36 68h4v4h-4z"/><path fill="#351300" d="M40 68h4v4h-4z"/><path fill="#170000" d="M44 68h4v4h-4z"/><path fill="#743D00" d="M48 68h4v4h-4z"/><path fill="#351300" d="M52 68h4v4h-4z"/><path fill="#C3884E" d="M56 68h4v4h-4z"/><path fill="#8B5D24" d="M60 68h4v4h-4z"/><path fill="#170000" d="M64 68h4v4h-4z"/><path fill="#2E1300" d="M68 68h4v4h-4z"/><path fill="#73490F" d="M72 68h4v4h-4z"/><path fill="#C28A1F" d="M76 68h4v4h-4z"/><path fill="#4E2100" d="M80 68h4v4h-4z"/><path fill="#FFF" d="M84 68h4v4h-4z"/><path fill="#743D00" d="M88 68h4v4h-4z"/><path fill="#572700" d="M92 68h4v4h-4z"/><path fill="#230C00" d="M96 68h4v4h-4z"/><path fill="#1D0B00" d="M24 72h4v4h-4z"/><path fill="#96731C" d="M28 72h4v4h-4z"/><path fill="#230700" d="M32 72h4v4h-4z"/><path fill="#0A0000" d="M36 72h4v4h-4z"/><path fill="#230700" d="M40 72h4v4h-4z"/><path fill="#170000" d="M44 72h4v4h-4z"/><path fill="#351300" d="M48 72h4v4h-4z"/><path fill="#C3884E" d="M52 72h4v4h-4z"/><path fill="#B1854F" d="M56 72h4v4h-4z"/><path fill="#170000" d="M60 72h4v4h-4z"/><path fill="#754219" d="M64 72h4v4h-4z"/><path fill="#060000" d="M68 72h4v4h-4z"/><path fill="#623B09" d="M72 72h4v4h-4z"/><path fill="#55381B" d="M76 72h4v4h-4z"/><path fill="#4E2100" d="M80 72h4v4h-4z"/><path fill="#FFEAA5" d="M84 72h4v4h-4z"/><path fill="#743D00" d="M88 72h4v4h-4z"/><path fill="#D7A030" d="M92 72h4v4h-4z"/><path fill="#230C00" d="M96 72h4v4h-4z"/><path fill="#1D0B00" d="M24 76h4v4h-4z"/><path fill="#96731C" d="M28 76h4v4h-4z"/><path fill="#FFDF82" d="M32 76h4v4h-4z"/><path fill="#351300" d="M36 76h4v4h-4z"/><path fill="#230700" d="M40 76h4v4h-4z"/><path fill="#170000" d="M44 76h4v4h-4z"/><path fill="#351300" d="M48 76h4v4h-4z"/><path fill="#FFEAA5" d="M52 76h4v4h-4z"/><path fill="#8B5D24" d="M56 76h4v4h-4z"/><path fill="#170000" d="M60 76h4v4h-4z"/><path fill="#572700" d="M64 76h4v4h-4z"/><path fill="#0E0000" d="M68 76h4v4h-4z"/><path fill="#55381B" d="M72 76h4v4h-4z"/><path fill="#2E1300" d="M76 76h4v4h-4z"/><path fill="#FFF" d="M80 76h4v4h-4z"/><path fill="#FFD752" d="M84 76h4v4h-4zm4 0h4v4h-4z"/><path fill="#743D00" d="M92 76h4v4h-4z"/><path fill="#1D0B00" d="M96 76h4v4h-4zm-76 4h4v4h-4z"/><path fill="#623B09" d="M24 80h4v4h-4z"/><path fill="#73490F" d="M28 80h4v4h-4z"/><path fill="#FFC330" d="M32 80h4v4h-4z"/><path fill="#230700" d="M36 80h4v4h-4z"/><path fill="#0A0000" d="M40 80h4v4h-4z"/><path fill="#351300" d="M44 80h4v4h-4z"/><path fill="#FFF" d="M48 80h4v4h-4z"/><path fill="#FFD752" d="M52 80h4v4h-4z"/><path fill="#170000" d="M56 80h4v4h-4z"/><path fill="#572700" d="M60 80h4v4h-4z"/><path fill="#3F0F00" d="M64 80h4v4h-4z"/><path fill="#170000" d="M68 80h4v4h-4z"/><path fill="#3B220A" d="M72 80h4v4h-4z"/><path fill="#4E2100" d="M76 80h4v4h-4z"/><path fill="#FFDF82" d="M80 80h4v4h-4z"/><path fill="#FFC330" d="M84 80h4v4h-4z"/><path fill="#D7A030" d="M88 80h4v4h-4z"/><path fill="#A6640F" d="M92 80h4v4h-4z"/><path fill="#1D0B00" d="M96 80h4v4h-4z"/><path fill="#0A0300" d="M20 84h4v4h-4z"/><path fill="#2E1300" d="M24 84h4v4h-4zm4 0h4v4h-4z"/><path fill="#73490F" d="M32 84h4v4h-4z"/><path fill="#230700" d="M36 84h4v4h-4z"/><path fill="#4E2100" d="M40 84h4v4h-4z"/><path fill="#FFDF82" d="M44 84h4v4h-4z"/><path fill="#FFC330" d="M48 84h4v4h-4z"/><path fill="#D7A030" d="M52 84h4v4h-4z"/><path fill="#0E0000" d="M56 84h4v4h-4z"/><path fill="#3F0F00" d="M60 84h4v4h-4z"/><path fill="#FFEAA5" d="M64 84h4v4h-4z"/><path fill="#572700" d="M68 84h4v4h-4z"/><path fill="#2E1300" d="M72 84h4v4h-4z"/><path fill="#FFC330" d="M76 84h4v4h-4zm4 0h4v4h-4z"/><path fill="#C37C19" d="M84 84h4v4h-4z"/><path fill="#623B09" d="M88 84h4v4h-4z"/><path fill="#1D0B00" d="M92 84h4v4h-4z"/><path fill="#0A0300" d="M20 88h4v4h-4z"/><path fill="#73502E" d="M24 88h4v4h-4z"/><path fill="#55381B" d="M28 88h4v4h-4z"/><path fill="#4E2100" d="M32 88h4v4h-4zm4 0h4v4h-4z"/><path fill="#96731C" d="M40 88h4v4h-4z"/><path fill="#FFC330" d="M44 88h4v4h-4z"/><path fill="#C37C19" d="M48 88h4v4h-4z"/><path fill="#725112" d="M52 88h4v4h-4z"/><path fill="#442400" d="M56 88h4v4h-4z"/><path fill="#FFEAA5" d="M60 88h4v4h-4z"/><path fill="#FFD752" d="M64 88h4v4h-4z"/><path fill="#C37C19" d="M68 88h4v4h-4z"/><path fill="#4E2100" d="M72 88h4v4h-4z"/><path fill="#73490F" d="M76 88h4v4h-4zm4 0h4v4h-4z"/><path fill="#1D0B00" d="M84 88h4v4h-4zm4 0h4v4h-4z"/><path fill="#0A0300" d="M24 92h4v4h-4z"/><path fill="#3B220A" d="M28 92h4v4h-4z"/><path fill="#55381B" d="M32 92h4v4h-4z"/><path fill="#C3884E" d="M36 92h4v4h-4z"/><path fill="#4E2100" d="M40 92h4v4h-4z"/><path fill="#73490F" d="M44 92h4v4h-4z"/><path fill="#623B09" d="M48 92h4v4h-4z"/><path fill="#2E1300" d="M52 92h4v4h-4z"/><path fill="#FFF" d="M56 92h4v4h-4z"/><path fill="#743D00" d="M60 92h4v4h-4z"/><path fill="#D7A030" d="M64 92h4v4h-4z"/><path fill="#C37C19" d="M68 92h4v4h-4z"/><path fill="#1F0A00" d="M72 92h4v4h-4z"/><path fill="#2E1300" d="M76 92h4v4h-4z"/><path fill="#1D0B00" d="M80 92h4v4h-4z"/><path fill="#0A0300" d="M28 96h4v4h-4zm4 0h4v4h-4z"/><path fill="#1F0B00" d="M36 96h4v4h-4z"/><path fill="#351300" d="M40 96h4v4h-4z"/><path fill="#2E1300" d="M44 96h4v4h-4z"/><path fill="#623B09" d="M48 96h4v4h-4z"/><path fill="#4E2100" d="M52 96h4v4h-4z"/><path fill="#FFDF82" d="M56 96h4v4h-4z"/><path fill="#4E2100" d="M60 96h4v4h-4zm4 0h4v4h-4z"/><path fill="#0A0000" d="M68 96h4v4h-4z"/><path fill="#C3884E" d="M72 96h4v4h-4z"/><path fill="#915F2E" d="M76 96h4v4h-4z"/><path fill="#110500" d="M80 96h4v4h-4z"/><path fill="#030000" d="M36 100h4v4h-4z"/><path fill="#1F0B00" d="M40 100h4v4h-4z"/><path fill="#230700" d="M44 100h4v4h-4z"/><path fill="#2E1300" d="M48 100h4v4h-4z"/><path fill="#FFDF82" d="M52 100h4v4h-4z"/><path fill="#FFC330" d="M56 100h4v4h-4z"/><path fill="#4E2100" d="M60 100h4v4h-4z"/><path fill="#351300" d="M64 100h4v4h-4zm4 0h4v4h-4z"/><path fill="#653A11" d="M72 100h4v4h-4z"/><path fill="#110500" d="M76 100h4v4h-4z"/><path fill="#050000" d="M36 104h4v4h-4z"/><path fill="#150400" d="M40 104h4v4h-4zm4 0h4v4h-4z"/><path fill="#4E2100" d="M48 104h4v4h-4z"/><path fill="#FFC330" d="M52 104h4v4h-4z"/><path fill="#C37C19" d="M56 104h4v4h-4z"/><path fill="#4E2100" d="M60 104h4v4h-4z"/><path fill="#351300" d="M64 104h4v4h-4z"/><path fill="#230700" d="M68 104h4v4h-4z"/><path fill="#050000" d="M72 104h4v4h-4zm-32 4h4v4h-4z"/><path fill="#030000" d="M44 108h4v4h-4z"/><path fill="#1F0B00" d="M48 108h4v4h-4z"/><path fill="#C37C19" d="M52 108h4v4h-4z"/><path fill="#A6640F" d="M56 108h4v4h-4z"/><path fill="#321300" d="M60 108h4v4h-4z"/><path fill="#050000" d="M64 108h4v4h-4z"/><path fill="#0C0000" d="M68 108h4v4h-4z"/><path fill="#050000" d="M48 112h4v4h-4zm4 0h4v4h-4z"/><path fill="#321300" d="M56 112h4v4h-4z"/></svg>