<svg width="340" height="340" xmlns="http://www.w3.org/2000/svg" shape-rendering="crispEdges"><path fill="#FFF200" opacity=".137" d="M150 0h10v10h-10z"/><path fill="#FFF200" opacity=".431" d="M160 0h10v10h-10zm10 0h10v10h-10z"/><path fill="#FFF200" opacity=".137" d="M180 0h10v10h-10zm-40 10h10v10h-10z"/><path fill="#FFF200" opacity=".431" d="M150 10h10v10h-10z"/><path fill="#463703" d="M160 10h10v10h-10z"/><path fill="#F3EED4" d="M170 10h10v10h-10z"/><path fill="#FFF200" opacity=".431" d="M180 10h10v10h-10z"/><path fill="#FFF200" opacity=".137" d="M190 10h10v10h-10zm-90 10h10v10h-10zm10 0h10v10h-10zm10 0h10v10h-10zm10 0h10v10h-10z"/><path fill="#FFF200" opacity=".431" d="M140 20h10v10h-10zm10 0h10v10h-10z"/><path fill="#463703" d="M160 20h10v10h-10z"/><path fill="#F3EED4" d="M170 20h10v10h-10z"/><path fill="#FFF200" opacity=".431" d="M180 20h10v10h-10zm10 0h10v10h-10z"/><path fill="#FFF200" opacity=".137" d="M200 20h10v10h-10zm10 0h10v10h-10zm10 0h10v10h-10zm10 0h10v10h-10zM90 30h10v10H90z"/><path fill="#FFF200" opacity=".431" d="M100 30h10v10h-10zm10 0h10v10h-10zm10 0h10v10h-10zm10 0h10v10h-10z"/><path fill="#B48E47" d="M140 30h10v10h-10z"/><path fill="#463703" d="M150 30h10v10h-10z"/><path fill="#B48E47" d="M160 30h10v10h-10z"/><path fill="#F3EED4" d="M170 30h10v10h-10z"/><path fill="#7A5B0E" d="M180 30h10v10h-10z"/><path fill="#F3EED4" d="M190 30h10v10h-10z"/><path fill="#FFF200" opacity=".431" d="M200 30h10v10h-10zm10 0h10v10h-10zm10 0h10v10h-10zm10 0h10v10h-10z"/><path fill="#FFF200" opacity=".137" d="M240 30h10v10h-10zM70 40h10v10H70zm10 0h10v10H80z"/><path fill="#FFF200" opacity=".431" d="M90 40h10v10H90z"/><path fill="#D9CA7F" d="M100 40h10v10h-10z"/><path fill="#B48E47" d="M110 40h10v10h-10zm10 0h10v10h-10zm10 0h10v10h-10z"/><path fill="#97732E" d="M140 40h10v10h-10z"/><path fill="#463703" d="M150 40h10v10h-10z"/><path fill="#B48E47" d="M160 40h10v10h-10z"/><path fill="#D9CA7F" d="M170 40h10v10h-10z"/><path fill="#7A5B0E" d="M180 40h10v10h-10z"/><path fill="#97732E" d="M190 40h10v10h-10z"/><path fill="#7A5B0E" d="M200 40h10v10h-10zm10 0h10v10h-10z"/><path fill="#97732E" d="M220 40h10v10h-10z"/><path fill="#F3EED4" d="M230 40h10v10h-10z"/><path fill="#FFF200" opacity=".431" d="M240 40h10v10h-10z"/><path fill="#FFF200" opacity=".137" d="M250 40h10v10h-10zm10 0h10v10h-10zM60 50h10v10H60z"/><path fill="#FFF200" opacity=".431" d="M70 50h10v10H70zm10 0h10v10H80zm10 0h10v10H90z"/><path fill="#7A5B0E" d="M100 50h10v10h-10z"/><path fill="#F3EED4" d="M110 50h10v10h-10z"/><path fill="#97732E" d="M120 50h10v10h-10zm10 0h10v10h-10z"/><path fill="#463703" d="M140 50h10v10h-10z"/><path fill="#97732E" d="M150 50h10v10h-10z"/><path fill="#B48E47" d="M160 50h10v10h-10z"/><path fill="#D9CA7F" d="M170 50h10v10h-10z"/><path fill="#F3EED4" d="M180 50h10v10h-10z"/><path fill="#97732E" d="M190 50h10v10h-10zm10 0h10v10h-10zm10 0h10v10h-10z"/><path fill="#7A5B0E" d="M220 50h10v10h-10z"/><path fill="#D9CA7F" d="M230 50h10v10h-10z"/><path fill="#FFF200" opacity=".431" d="M240 50h10v10h-10zm10 0h10v10h-10zm10 0h10v10h-10z"/><path fill="#FFF200" opacity=".137" d="M270 50h10v10h-10zM50 60h10v10H50z"/><path fill="#FFF200" opacity=".431" d="M60 60h10v10H60z"/><path fill="#F3EED4" d="M70 60h10v10H70z"/><path fill="#B48E47" d="M80 60h10v10H80z"/><path fill="#97732E" d="M90 60h10v10H90z"/><path fill="#463703" d="M100 60h10v10h-10zm10 0h10v10h-10zm10 0h10v10h-10z"/><path fill="#B48E47" d="M130 60h10v10h-10z"/><path fill="#463703" d="M140 60h10v10h-10z"/><path fill="#97732E" d="M150 60h10v10h-10z"/><path fill="#B48E47" d="M160 60h10v10h-10zm10 0h10v10h-10z"/><path fill="#D9CA7F" d="M180 60h10v10h-10z"/><path fill="#7A5B0E" d="M190 60h10v10h-10z"/><path fill="#97732E" d="M200 60h10v10h-10z"/><path fill="#463703" d="M210 60h10v10h-10zm10 0h10v10h-10zm10 0h10v10h-10z"/><path fill="#F3EED4" d="M240 60h10v10h-10zm10 0h10v10h-10zm10 0h10v10h-10z"/><path fill="#FFF200" opacity=".431" d="M270 60h10v10h-10z"/><path fill="#FFF200" opacity=".137" d="M280 60h10v10h-10zM50 70h10v10H50z"/><path fill="#FFF200" opacity=".431" d="M60 70h10v10H60z"/><path fill="#B48E47" d="M70 70h10v10H70z"/><path fill="#97732E" d="M80 70h10v10H80zm10 0h10v10H90zm10 0h10v10h-10z"/><path fill="#463703" d="M110 70h10v10h-10z"/><path fill="#B48E47" d="M120 70h10v10h-10z"/><path fill="#D9CA7F" d="M130 70h10v10h-10z"/><path fill="#463703" d="M140 70h10v10h-10z"/><path fill="#97732E" d="M150 70h10v10h-10zm10 0h10v10h-10z"/><path fill="#B48E47" d="M170 70h10v10h-10z"/><path fill="#D9CA7F" d="M180 70h10v10h-10zm10 0h10v10h-10z"/><path fill="#97732E" d="M200 70h10v10h-10zm10 0h10v10h-10z"/><path fill="#463703" d="M220 70h10v10h-10z"/><path fill="#B48E47" d="M230 70h10v10h-10z"/><path fill="#97732E" d="M240 70h10v10h-10zm10 0h10v10h-10z"/><path fill="#F3EED4" d="M260 70h10v10h-10z"/><path fill="#FFF200" opacity=".431" d="M270 70h10v10h-10z"/><path fill="#FFF200" opacity=".137" d="M280 70h10v10h-10zM40 80h10v10H40z"/><path fill="#FFF200" opacity=".431" d="M50 80h10v10H50z"/><path fill="#463703" d="M60 80h10v10H60zm10 0h10v10H70z"/><path fill="#F3EED4" d="M80 80h10v10H80z"/><path fill="#B48E47" d="M90 80h10v10H90z"/><path fill="#97732E" d="M100 80h10v10h-10zm10 0h10v10h-10z"/><path fill="#B48E47" d="M120 80h10v10h-10z"/><path fill="#463703" d="M130 80h10v10h-10zm10 0h10v10h-10z"/><path fill="#97732E" d="M150 80h10v10h-10zm10 0h10v10h-10z"/><path fill="#B48E47" d="M170 80h10v10h-10zm10 0h10v10h-10z"/><path fill="#D9CA7F" d="M190 80h10v10h-10z"/><path fill="#7A5B0E" d="M200 80h10v10h-10z"/><path fill="#97732E" d="M210 80h10v10h-10zm10 0h10v10h-10z"/><path fill="#B48E47" d="M230 80h10v10h-10zm10 0h10v10h-10z"/><path fill="#7A5B0E" d="M250 80h10v10h-10z"/><path fill="#463703" d="M260 80h10v10h-10z"/><path fill="#F3EED4" d="M270 80h10v10h-10z"/><path fill="#FFF200" opacity=".431" d="M280 80h10v10h-10z"/><path fill="#FFF200" opacity=".137" d="M290 80h10v10h-10zM40 90h10v10H40z"/><path fill="#FFF200" opacity=".431" d="M50 90h10v10H50z"/><path fill="#B48E47" d="M60 90h10v10H60z"/><path fill="#463703" d="M70 90h10v10H70zm10 0h10v10H80z"/><path fill="#7A5B0E" d="M90 90h10v10H90z"/><path fill="#B48E47" d="M100 90h10v10h-10zm10 0h10v10h-10zm10 0h10v10h-10z"/><path fill="#463703" d="M130 90h10v10h-10zm10 0h10v10h-10zm10 0h10v10h-10z"/><path fill="#97732E" d="M160 90h10v10h-10zm10 0h10v10h-10z"/><path fill="#B48E47" d="M180 90h10v10h-10z"/><path fill="#7A5B0E" d="M190 90h10v10h-10zm10 0h10v10h-10z"/><path fill="#B48E47" d="M210 90h10v10h-10z"/><path fill="#D9CA7F" d="M220 90h10v10h-10z"/><path fill="#B48E47" d="M230 90h10v10h-10z"/><path fill="#7A5B0E" d="M240 90h10v10h-10z"/><path fill="#463703" d="M250 90h10v10h-10zm10 0h10v10h-10z"/><path fill="#D9CA7F" d="M270 90h10v10h-10z"/><path fill="#FFF200" opacity=".431" d="M280 90h10v10h-10z"/><path fill="#FFF200" opacity=".137" d="M290 90h10v10h-10zM20 100h10v10H20zm10 0h10v10H30z"/><path fill="#FFF200" opacity=".431" d="M40 100h10v10H40z"/><path fill="#B48E47" d="M50 100h10v10H50z"/><path fill="#7A5B0E" d="M60 100h10v10H60zm10 0h10v10H70z"/><path fill="#463703" d="M80 100h10v10H80zm10 0h10v10H90z"/><path fill="#B48E47" d="M100 100h10v10h-10zm10 0h10v10h-10z"/><path fill="#97732E" d="M120 100h10v10h-10zm10 0h10v10h-10z"/><path fill="#463703" d="M140 100h10v10h-10zm10 0h10v10h-10zm10 0h10v10h-10z"/><path fill="#7A5B0E" d="M170 100h10v10h-10zm10 0h10v10h-10zm10 0h10v10h-10z"/><path fill="#97732E" d="M200 100h10v10h-10zm10 0h10v10h-10z"/><path fill="#B48E47" d="M220 100h10v10h-10z"/><path fill="#97732E" d="M230 100h10v10h-10z"/><path fill="#463703" d="M240 100h10v10h-10zm10 0h10v10h-10z"/><path fill="#97732E" d="M260 100h10v10h-10zm10 0h10v10h-10z"/><path fill="#D9CA7F" d="M280 100h10v10h-10z"/><path fill="#FFF200" opacity=".431" d="M290 100h10v10h-10z"/><path fill="#FFF200" opacity=".137" d="M300 100h10v10h-10zm10 0h10v10h-10zM10 110h10v10H10z"/><path fill="#FFF200" opacity=".431" d="M20 110h10v10H20zm10 0h10v10H30z"/><path fill="#7A5B0E" d="M40 110h10v10H40z"/><path fill="#97732E" d="M50 110h10v10H50zm10 0h10v10H60z"/><path fill="#7A5B0E" d="M70 110h10v10H70z"/><path fill="#97732E" d="M80 110h10v10H80z"/><path fill="#B48E47" d="M90 110h10v10H90zm10 0h10v10h-10zm10 0h10v10h-10zm10 0h10v10h-10z"/><path fill="#97732E" d="M130 110h10v10h-10zm10 0h10v10h-10z"/><path fill="#463703" d="M150 110h10v10h-10zm10 0h10v10h-10z"/><path fill="#7A5B0E" d="M170 110h10v10h-10zm10 0h10v10h-10z"/><path fill="#97732E" d="M190 110h10v10h-10zm10 0h10v10h-10z"/><path fill="#B48E47" d="M210 110h10v10h-10zm10 0h10v10h-10z"/><path fill="#97732E" d="M230 110h10v10h-10zm10 0h10v10h-10z"/><path fill="#B48E47" d="M250 110h10v10h-10z"/><path fill="#97732E" d="M260 110h10v10h-10zm10 0h10v10h-10zm10 0h10v10h-10z"/><path fill="#7A5B0E" d="M290 110h10v10h-10z"/><path fill="#FFF200" opacity=".431" d="M300 110h10v10h-10zm10 0h10v10h-10z"/><path fill="#FFF200" opacity=".137" d="M320 110h10v10h-10zM0 120h10v10H0z"/><path fill="#FFF200" opacity=".431" d="M10 120h10v10H10z"/><path fill="#463703" d="M20 120h10v10H20z"/><path fill="#D9CA7F" d="M30 120h10v10H30z"/><path fill="#463703" d="M40 120h10v10H40z"/><path fill="#97732E" d="M50 120h10v10H50zm10 0h10v10H60zm10 0h10v10H70z"/><path fill="#7A5B0E" d="M80 120h10v10H80z"/><path fill="#D9CA7F" d="M90 120h10v10H90z"/><path fill="#B48E47" d="M100 120h10v10h-10zm10 0h10v10h-10zm10 0h10v10h-10zm10 0h10v10h-10z"/><path fill="#97732E" d="M140 120h10v10h-10zm10 0h10v10h-10zm10 0h10v10h-10zm10 0h10v10h-10zm10 0h10v10h-10zm10 0h10v10h-10z"/><path fill="#B48E47" d="M200 120h10v10h-10zm10 0h10v10h-10zm10 0h10v10h-10zm10 0h10v10h-10z"/><path fill="#D9CA7F" d="M240 120h10v10h-10z"/><path fill="#7A5B0E" d="M250 120h10v10h-10z"/><path fill="#97732E" d="M260 120h10v10h-10zm10 0h10v10h-10zm10 0h10v10h-10z"/><path fill="#463703" d="M290 120h10v10h-10z"/><path fill="#D9CA7F" d="M300 120h10v10h-10z"/><path fill="#463703" d="M310 120h10v10h-10z"/><path fill="#FFF200" opacity=".431" d="M320 120h10v10h-10z"/><path fill="#FFF200" opacity=".137" d="M330 120h10v10h-10zM10 130h10v10H10z"/><path fill="#FFF200" opacity=".431" d="M20 130h10v10H20z"/><path fill="#7A5B0E" d="M30 130h10v10H30z"/><path fill="#463703" d="M40 130h10v10H40zm10 0h10v10H50z"/><path fill="#97732E" d="M60 130h10v10H60zm10 0h10v10H70z"/><path fill="#463703" d="M80 130h10v10H80z"/><path fill="#7A5B0E" d="M90 130h10v10H90zm10 0h10v10h-10z"/><path fill="#97732E" d="M110 130h10v10h-10z"/><path fill="#B48E47" d="M120 130h10v10h-10zm10 0h10v10h-10zm10 0h10v10h-10zm10 0h10v10h-10zm10 0h10v10h-10zm10 0h10v10h-10zm10 0h10v10h-10zm10 0h10v10h-10zm10 0h10v10h-10zm10 0h10v10h-10z"/><path fill="#97732E" d="M220 130h10v10h-10z"/><path fill="#7A5B0E" d="M230 130h10v10h-10zm10 0h10v10h-10z"/><path fill="#463703" d="M250 130h10v10h-10z"/><path fill="#97732E" d="M260 130h10v10h-10zm10 0h10v10h-10z"/><path fill="#463703" d="M280 130h10v10h-10zm10 0h10v10h-10z"/><path fill="#7A5B0E" d="M300 130h10v10h-10z"/><path fill="#FFF200" opacity=".431" d="M310 130h10v10h-10z"/><path fill="#FFF200" opacity=".137" d="M320 130h10v10h-10zM10 140h10v10H10z"/><path fill="#FFF200" opacity=".431" d="M20 140h10v10H20z"/><path fill="#463703" d="M30 140h10v10H30z"/><path fill="#7A5B0E" d="M40 140h10v10H40z"/><path fill="#97732E" d="M50 140h10v10H50zm10 0h10v10H60z"/><path fill="#7A5B0E" d="M70 140h10v10H70z"/><path fill="#463703" d="M80 140h10v10H80zm10 0h10v10H90z"/><path fill="#97732E" d="M100 140h10v10h-10zm10 0h10v10h-10z"/><path fill="#7A5B0E" d="M120 140h10v10h-10z"/><path fill="#B48E47" d="M130 140h10v10h-10zm10 0h10v10h-10z"/><path fill="#7A5B0E" d="M150 140h10v10h-10zm10 0h10v10h-10zm10 0h10v10h-10zm10 0h10v10h-10z"/><path fill="#B48E47" d="M190 140h10v10h-10z"/><path fill="#7A5B0E" d="M200 140h10v10h-10zm10 0h10v10h-10z"/><path fill="#97732E" d="M220 140h10v10h-10zm10 0h10v10h-10z"/><path fill="#463703" d="M240 140h10v10h-10zm10 0h10v10h-10z"/><path fill="#97732E" d="M260 140h10v10h-10zm10 0h10v10h-10zm10 0h10v10h-10z"/><path fill="#7A5B0E" d="M290 140h10v10h-10z"/><path fill="#463703" d="M300 140h10v10h-10z"/><path fill="#FFF200" opacity=".431" d="M310 140h10v10h-10z"/><path fill="#FFF200" opacity=".137" d="M320 140h10v10h-10zM10 150h10v10H10z"/><path fill="#FFF200" opacity=".431" d="M20 150h10v10H20z"/><path fill="#463703" d="M30 150h10v10H30z"/><path fill="#7A5B0E" d="M40 150h10v10H40z"/><path fill="#97732E" d="M50 150h10v10H50zm10 0h10v10H60z"/><path fill="#7A5B0E" d="M70 150h10v10H70zm10 0h10v10H80z"/><path fill="#463703" d="M90 150h10v10H90zm10 0h10v10h-10z"/><path fill="#97732E" d="M110 150h10v10h-10z"/><path fill="#7A5B0E" d="M120 150h10v10h-10z"/><path fill="#B48E47" d="M130 150h10v10h-10z"/><path fill="#7A5B0E" d="M140 150h10v10h-10z"/><path fill="#97732E" d="M150 150h10v10h-10zm10 0h10v10h-10z"/><path fill="#B48E47" d="M170 150h10v10h-10zm10 0h10v10h-10z"/><path fill="#7A5B0E" d="M190 150h10v10h-10z"/><path fill="#97732E" d="M200 150h10v10h-10z"/><path fill="#7A5B0E" d="M210 150h10v10h-10z"/><path fill="#97732E" d="M220 150h10v10h-10z"/><path fill="#463703" d="M230 150h10v10h-10zm10 0h10v10h-10z"/><path fill="#97732E" d="M250 150h10v10h-10zm10 0h10v10h-10zm10 0h10v10h-10zm10 0h10v10h-10z"/><path fill="#7A5B0E" d="M290 150h10v10h-10z"/><path fill="#463703" d="M300 150h10v10h-10z"/><path fill="#FFF200" opacity=".431" d="M310 150h10v10h-10z"/><path fill="#FFF200" opacity=".137" d="M320 150h10v10h-10zM10 160h10v10H10z"/><path fill="#FFF200" opacity=".431" d="M20 160h10v10H20z"/><path fill="#463703" d="M30 160h10v10H30z"/><path fill="#7A5B0E" d="M40 160h10v10H40z"/><path fill="#B48E47" d="M50 160h10v10H50z"/><path fill="#F3EED4" d="M60 160h10v10H60z"/><path fill="#97732E" d="M70 160h10v10H70z"/><path fill="#7A5B0E" d="M80 160h10v10H80zm10 0h10v10H90z"/><path fill="#463703" d="M100 160h10v10h-10zm10 0h10v10h-10z"/><path fill="#97732E" d="M120 160h10v10h-10zm10 0h10v10h-10z"/><path fill="#463703" d="M140 160h10v10h-10z"/><path fill="#97732E" d="M150 160h10v10h-10z"/><path fill="#B48E47" d="M160 160h10v10h-10z"/><path fill="#F3EED4" d="M170 160h10v10h-10z"/><path fill="#B48E47" d="M180 160h10v10h-10z"/><path fill="#7A5B0E" d="M190 160h10v10h-10z"/><path fill="#97732E" d="M200 160h10v10h-10z"/><path fill="#7A5B0E" d="M210 160h10v10h-10z"/><path fill="#463703" d="M220 160h10v10h-10zm10 0h10v10h-10z"/><path fill="#97732E" d="M240 160h10v10h-10zm10 0h10v10h-10zm10 0h10v10h-10z"/><path fill="#F3EED4" d="M270 160h10v10h-10z"/><path fill="#B48E47" d="M280 160h10v10h-10z"/><path fill="#7A5B0E" d="M290 160h10v10h-10z"/><path fill="#463703" d="M300 160h10v10h-10z"/><path fill="#FFF200" opacity=".431" d="M310 160h10v10h-10z"/><path fill="#FFF200" opacity=".137" d="M320 160h10v10h-10zM10 170h10v10H10z"/><path fill="#FFF200" opacity=".431" d="M20 170h10v10H20z"/><path fill="#463703" d="M30 170h10v10H30z"/><path fill="#B48E47" d="M40 170h10v10H40z"/><path fill="#97732E" d="M50 170h10v10H50zm10 0h10v10H60z"/><path fill="#F3EED4" d="M70 170h10v10H70z"/><path fill="#97732E" d="M80 170h10v10H80z"/><path fill="#7A5B0E" d="M90 170h10v10H90zm10 0h10v10h-10zm10 0h10v10h-10z"/><path fill="#97732E" d="M120 170h10v10h-10z"/><path fill="#7A5B0E" d="M130 170h10v10h-10z"/><path fill="#463703" d="M140 170h10v10h-10z"/><path fill="#97732E" d="M150 170h10v10h-10z"/><path fill="#B48E47" d="M160 170h10v10h-10z"/><path fill="#D9CA7F" d="M170 170h10v10h-10z"/><path fill="#B48E47" d="M180 170h10v10h-10z"/><path fill="#7A5B0E" d="M190 170h10v10h-10zm10 0h10v10h-10z"/><path fill="#97732E" d="M210 170h10v10h-10z"/><path fill="#7A5B0E" d="M220 170h10v10h-10zm10 0h10v10h-10z"/><path fill="#97732E" d="M240 170h10v10h-10zm10 0h10v10h-10z"/><path fill="#F3EED4" d="M260 170h10v10h-10z"/><path fill="#97732E" d="M270 170h10v10h-10zm10 0h10v10h-10z"/><path fill="#B48E47" d="M290 170h10v10h-10z"/><path fill="#463703" d="M300 170h10v10h-10z"/><path fill="#FFF200" opacity=".431" d="M310 170h10v10h-10z"/><path fill="#FFF200" opacity=".137" d="M320 170h10v10h-10zM10 180h10v10H10z"/><path fill="#FFF200" opacity=".431" d="M20 180h10v10H20z"/><path fill="#B48E47" d="M30 180h10v10H30z"/><path fill="#7A5B0E" d="M40 180h10v10H40zm10 0h10v10H50z"/><path fill="#97732E" d="M60 180h10v10H60z"/><path fill="#463703" d="M70 180h10v10H70zm10 0h10v10H80z"/><path fill="#97732E" d="M90 180h10v10H90zm10 0h10v10h-10zm10 0h10v10h-10zm10 0h10v10h-10z"/><path fill="#7A5B0E" d="M130 180h10v10h-10z"/><path fill="#463703" d="M140 180h10v10h-10zm10 0h10v10h-10z"/><path fill="#97732E" d="M160 180h10v10h-10z"/><path fill="#B48E47" d="M170 180h10v10h-10z"/><path fill="#463703" d="M180 180h10v10h-10zm10 0h10v10h-10z"/><path fill="#7A5B0E" d="M200 180h10v10h-10z"/><path fill="#97732E" d="M210 180h10v10h-10zm10 0h10v10h-10zm10 0h10v10h-10zm10 0h10v10h-10z"/><path fill="#463703" d="M250 180h10v10h-10zm10 0h10v10h-10z"/><path fill="#97732E" d="M270 180h10v10h-10z"/><path fill="#7A5B0E" d="M280 180h10v10h-10zm10 0h10v10h-10z"/><path fill="#B48E47" d="M300 180h10v10h-10z"/><path fill="#FFF200" opacity=".431" d="M310 180h10v10h-10z"/><path fill="#FFF200" opacity=".137" d="M320 180h10v10h-10zM0 190h10v10H0z"/><path fill="#FFF200" opacity=".431" d="M10 190h10v10H10z"/><path fill="#B48E47" d="M20 190h10v10H20z"/><path fill="#7A5B0E" d="M30 190h10v10H30zm10 0h10v10H40zm10 0h10v10H50z"/><path fill="#463703" d="M60 190h10v10H60zm10 0h10v10H70zm10 0h10v10H80z"/><path fill="#97732E" d="M90 190h10v10H90zm10 0h10v10h-10zm10 0h10v10h-10zm10 0h10v10h-10zm10 0h10v10h-10z"/><path fill="#7A5B0E" d="M140 190h10v10h-10z"/><path fill="#463703" d="M150 190h10v10h-10zm10 0h10v10h-10zm10 0h10v10h-10zm10 0h10v10h-10z"/><path fill="#7A5B0E" d="M190 190h10v10h-10zm10 0h10v10h-10zm10 0h10v10h-10z"/><path fill="#97732E" d="M220 190h10v10h-10zm10 0h10v10h-10zm10 0h10v10h-10z"/><path fill="#463703" d="M250 190h10v10h-10zm10 0h10v10h-10zm10 0h10v10h-10z"/><path fill="#7A5B0E" d="M280 190h10v10h-10zm10 0h10v10h-10zm10 0h10v10h-10z"/><path fill="#B48E47" d="M310 190h10v10h-10z"/><path fill="#FFF200" opacity=".431" d="M320 190h10v10h-10z"/><path fill="#FFF200" opacity=".137" d="M330 190h10v10h-10zM10 200h10v10H10z"/><path fill="#FFF200" opacity=".431" d="M20 200h10v10H20zm10 0h10v10H30z"/><path fill="#463703" d="M40 200h10v10H40zm10 0h10v10H50zm10 0h10v10H60zm10 0h10v10H70z"/><path fill="#97732E" d="M80 200h10v10H80zm10 0h10v10H90zm10 0h10v10h-10zm10 0h10v10h-10z"/><path fill="#463703" d="M120 200h10v10h-10zm10 0h10v10h-10z"/><path fill="#7A5B0E" d="M140 200h10v10h-10zm10 0h10v10h-10zm10 0h10v10h-10zm10 0h10v10h-10zm10 0h10v10h-10zm10 0h10v10h-10z"/><path fill="#463703" d="M200 200h10v10h-10zm10 0h10v10h-10z"/><path fill="#97732E" d="M220 200h10v10h-10zm10 0h10v10h-10zm10 0h10v10h-10zm10 0h10v10h-10z"/><path fill="#463703" d="M260 200h10v10h-10zm10 0h10v10h-10zm10 0h10v10h-10zm10 0h10v10h-10z"/><path fill="#FFF200" opacity=".431" d="M300 200h10v10h-10zm10 0h10v10h-10z"/><path fill="#FFF200" opacity=".137" d="M320 200h10v10h-10zM20 210h10v10H20z"/><path fill="#FFF200" opacity=".431" d="M30 210h10v10H30z"/><path fill="#463703" d="M40 210h10v10H40z"/><path fill="#7A5B0E" d="M50 210h10v10H50zm10 0h10v10H60zm10 0h10v10H70zm10 0h10v10H80z"/><path fill="#97732E" d="M90 210h10v10H90z"/><path fill="#463703" d="M100 210h10v10h-10zm10 0h10v10h-10z"/><path fill="#F3EED4" d="M120 210h10v10h-10z"/><path fill="#463703" d="M130 210h10v10h-10zm10 0h10v10h-10z"/><path fill="#97732E" d="M150 210h10v10h-10zm10 0h10v10h-10zm10 0h10v10h-10zm10 0h10v10h-10z"/><path fill="#463703" d="M190 210h10v10h-10zm10 0h10v10h-10z"/><path fill="#F3EED4" d="M210 210h10v10h-10z"/><path fill="#463703" d="M220 210h10v10h-10zm10 0h10v10h-10z"/><path fill="#97732E" d="M240 210h10v10h-10z"/><path fill="#7A5B0E" d="M250 210h10v10h-10zm10 0h10v10h-10zm10 0h10v10h-10zm10 0h10v10h-10z"/><path fill="#463703" d="M290 210h10v10h-10z"/><path fill="#FFF200" opacity=".431" d="M300 210h10v10h-10z"/><path fill="#FFF200" opacity=".137" d="M310 210h10v10h-10zM30 220h10v10H30z"/><path fill="#FFF200" opacity=".431" d="M40 220h10v10H40z"/><path fill="#97732E" d="M50 220h10v10H50z"/><path fill="#7A5B0E" d="M60 220h10v10H60zm10 0h10v10H70zm10 0h10v10H80zm10 0h10v10H90z"/><path fill="#463703" d="M100 220h10v10h-10z"/><path fill="#97732E" d="M110 220h10v10h-10z"/><path fill="#B48E47" d="M120 220h10v10h-10z"/><path fill="#F3EED4" d="M130 220h10v10h-10z"/><path fill="#463703" d="M140 220h10v10h-10zm10 0h10v10h-10z"/><path fill="#97732E" d="M160 220h10v10h-10zm10 0h10v10h-10z"/><path fill="#463703" d="M180 220h10v10h-10zm10 0h10v10h-10z"/><path fill="#97732E" d="M200 220h10v10h-10z"/><path fill="#B48E47" d="M210 220h10v10h-10z"/><path fill="#F3EED4" d="M220 220h10v10h-10z"/><path fill="#463703" d="M230 220h10v10h-10z"/><path fill="#7A5B0E" d="M240 220h10v10h-10zm10 0h10v10h-10zm10 0h10v10h-10zm10 0h10v10h-10z"/><path fill="#97732E" d="M280 220h10v10h-10z"/><path fill="#FFF200" opacity=".431" d="M290 220h10v10h-10z"/><path fill="#FFF200" opacity=".137" d="M300 220h10v10h-10zM30 230h10v10H30z"/><path fill="#FFF200" opacity=".431" d="M40 230h10v10H40z"/><path fill="#97732E" d="M50 230h10v10H50zm10 0h10v10H60z"/><path fill="#7A5B0E" d="M70 230h10v10H70zm10 0h10v10H80z"/><path fill="#463703" d="M90 230h10v10H90z"/><path fill="#97732E" d="M100 230h10v10h-10z"/><path fill="#7A5B0E" d="M110 230h10v10h-10z"/><path fill="#97732E" d="M120 230h10v10h-10z"/><path fill="#B48E47" d="M130 230h10v10h-10z"/><path fill="#F3EED4" d="M140 230h10v10h-10z"/><path fill="#463703" d="M150 230h10v10h-10z"/><path fill="#97732E" d="M160 230h10v10h-10zm10 0h10v10h-10z"/><path fill="#463703" d="M180 230h10v10h-10z"/><path fill="#7A5B0E" d="M190 230h10v10h-10z"/><path fill="#97732E" d="M200 230h10v10h-10zm10 0h10v10h-10z"/><path fill="#B48E47" d="M220 230h10v10h-10z"/><path fill="#F3EED4" d="M230 230h10v10h-10z"/><path fill="#463703" d="M240 230h10v10h-10z"/><path fill="#7A5B0E" d="M250 230h10v10h-10zm10 0h10v10h-10z"/><path fill="#97732E" d="M270 230h10v10h-10zm10 0h10v10h-10z"/><path fill="#FFF200" opacity=".431" d="M290 230h10v10h-10z"/><path fill="#FFF200" opacity=".137" d="M300 230h10v10h-10zM20 240h10v10H20z"/><path fill="#FFF200" opacity=".431" d="M30 240h10v10H30z"/><path fill="#B48E47" d="M40 240h10v10H40z"/><path fill="#97732E" d="M50 240h10v10H50z"/><path fill="#463703" d="M60 240h10v10H60zm10 0h10v10H70z"/><path fill="#7A5B0E" d="M80 240h10v10H80z"/><path fill="#463703" d="M90 240h10v10H90z"/><path fill="#7A5B0E" d="M100 240h10v10h-10z"/><path fill="#97732E" d="M110 240h10v10h-10zm10 0h10v10h-10zm10 0h10v10h-10z"/><path fill="#B48E47" d="M140 240h10v10h-10z"/><path fill="#463703" d="M150 240h10v10h-10z"/><path fill="#7A5B0E" d="M160 240h10v10h-10zm10 0h10v10h-10z"/><path fill="#463703" d="M180 240h10v10h-10z"/><path fill="#7A5B0E" d="M190 240h10v10h-10zm10 0h10v10h-10z"/><path fill="#97732E" d="M210 240h10v10h-10zm10 0h10v10h-10z"/><path fill="#B48E47" d="M230 240h10v10h-10z"/><path fill="#463703" d="M240 240h10v10h-10z"/><path fill="#7A5B0E" d="M250 240h10v10h-10z"/><path fill="#463703" d="M260 240h10v10h-10zm10 0h10v10h-10z"/><path fill="#97732E" d="M280 240h10v10h-10z"/><path fill="#F3EED4" d="M290 240h10v10h-10z"/><path fill="#FFF200" opacity=".431" d="M300 240h10v10h-10z"/><path fill="#FFF200" opacity=".137" d="M310 240h10v10h-10zM30 250h10v10H30z"/><path fill="#FFF200" opacity=".431" d="M40 250h10v10H40zm10 0h10v10H50zm10 0h10v10H60z"/><path fill="#463703" d="M70 250h10v10H70zm10 0h10v10H80z"/><path fill="#7A5B0E" d="M90 250h10v10H90zm10 0h10v10h-10zm10 0h10v10h-10z"/><path fill="#97732E" d="M120 250h10v10h-10z"/><path fill="#7A5B0E" d="M130 250h10v10h-10z"/><path fill="#463703" d="M140 250h10v10h-10zm10 0h10v10h-10z"/><path fill="#7A5B0E" d="M160 250h10v10h-10zm10 0h10v10h-10z"/><path fill="#463703" d="M180 250h10v10h-10zm10 0h10v10h-10z"/><path fill="#7A5B0E" d="M200 250h10v10h-10zm10 0h10v10h-10zm10 0h10v10h-10z"/><path fill="#97732E" d="M230 250h10v10h-10z"/><path fill="#B48E47" d="M240 250h10v10h-10z"/><path fill="#463703" d="M250 250h10v10h-10zm10 0h10v10h-10z"/><path fill="#FFF200" opacity=".431" d="M270 250h10v10h-10zm10 0h10v10h-10zm10 0h10v10h-10z"/><path fill="#FFF200" opacity=".137" d="M300 250h10v10h-10zM40 260h10v10H40zm10 0h10v10H50zm10 0h10v10H60z"/><path fill="#FFF200" opacity=".431" d="M70 260h10v10H70z"/><path fill="#7A5B0E" d="M80 260h10v10H80zm10 0h10v10H90zm10 0h10v10h-10z"/><path fill="#463703" d="M110 260h10v10h-10zm10 0h10v10h-10zm10 0h10v10h-10z"/><path fill="#7A5B0E" d="M140 260h10v10h-10zm10 0h10v10h-10zm10 0h10v10h-10zm10 0h10v10h-10zm10 0h10v10h-10zm10 0h10v10h-10z"/><path fill="#463703" d="M200 260h10v10h-10zm10 0h10v10h-10zm10 0h10v10h-10z"/><path fill="#7A5B0E" d="M230 260h10v10h-10zm10 0h10v10h-10z"/><path fill="#B48E47" d="M250 260h10v10h-10z"/><path fill="#FFF200" opacity=".431" d="M260 260h10v10h-10z"/><path fill="#FFF200" opacity=".137" d="M270 260h10v10h-10zm10 0h10v10h-10zm10 0h10v10h-10zM60 270h10v10H60z"/><path fill="#FFF200" opacity=".431" d="M70 270h10v10H70z"/><path fill="#463703" d="M80 270h10v10H80zm10 0h10v10H90zm10 0h10v10h-10zm10 0h10v10h-10zm10 0h10v10h-10zm10 0h10v10h-10z"/><path fill="#7A5B0E" d="M140 270h10v10h-10zm10 0h10v10h-10z"/><path fill="#463703" d="M160 270h10v10h-10zm10 0h10v10h-10z"/><path fill="#7A5B0E" d="M180 270h10v10h-10zm10 0h10v10h-10z"/><path fill="#463703" d="M200 270h10v10h-10zm10 0h10v10h-10zm10 0h10v10h-10zm10 0h10v10h-10zm10 0h10v10h-10zm10 0h10v10h-10z"/><path fill="#FFF200" opacity=".431" d="M260 270h10v10h-10z"/><path fill="#FFF200" opacity=".137" d="M270 270h10v10h-10zM70 280h10v10H70z"/><path fill="#FFF200" opacity=".431" d="M80 280h10v10H80zm10 0h10v10H90zm10 0h10v10h-10z"/><path fill="#463703" d="M110 280h10v10h-10zm10 0h10v10h-10zm10 0h10v10h-10zm10 0h10v10h-10zm10 0h10v10h-10z"/><path fill="#7A5B0E" d="M160 280h10v10h-10z"/><path fill="#97732E" d="M170 280h10v10h-10z"/><path fill="#463703" d="M180 280h10v10h-10zm10 0h10v10h-10zm10 0h10v10h-10zm10 0h10v10h-10zm10 0h10v10h-10z"/><path fill="#FFF200" opacity=".431" d="M230 280h10v10h-10zm10 0h10v10h-10zm10 0h10v10h-10z"/><path fill="#FFF200" opacity=".137" d="M260 280h10v10h-10zM80 290h10v10H80zm10 0h10v10H90zm10 0h10v10h-10z"/><path fill="#FFF200" opacity=".431" d="M110 290h10v10h-10zm10 0h10v10h-10zm10 0h10v10h-10z"/><path fill="#463703" d="M140 290h10v10h-10z"/><path fill="#7A5B0E" d="M150 290h10v10h-10zm10 0h10v10h-10z"/><path fill="#97732E" d="M170 290h10v10h-10z"/><path fill="#B48E47" d="M180 290h10v10h-10z"/><path fill="#463703" d="M190 290h10v10h-10z"/><path fill="#FFF200" opacity=".431" d="M200 290h10v10h-10zm10 0h10v10h-10zm10 0h10v10h-10z"/><path fill="#FFF200" opacity=".137" d="M230 290h10v10h-10zm10 0h10v10h-10zm10 0h10v10h-10zm-140 10h10v10h-10zm10 0h10v10h-10zm10 0h10v10h-10z"/><path fill="#FFF200" opacity=".431" d="M140 300h10v10h-10z"/><path fill="#7A5B0E" d="M150 300h10v10h-10zm10 0h10v10h-10z"/><path fill="#B48E47" d="M170 300h10v10h-10zm10 0h10v10h-10z"/><path fill="#FFF200" opacity=".431" d="M190 300h10v10h-10z"/><path fill="#FFF200" opacity=".137" d="M200 300h10v10h-10zm10 0h10v10h-10zm10 0h10v10h-10zm-80 10h10v10h-10z"/><path fill="#FFF200" opacity=".431" d="M150 310h10v10h-10z"/><path fill="#7A5B0E" d="M160 310h10v10h-10z"/><path fill="#F3EED4" d="M170 310h10v10h-10z"/><path fill="#FFF200" opacity=".431" d="M180 310h10v10h-10z"/><path fill="#FFF200" opacity=".137" d="M190 310h10v10h-10zm-40 10h10v10h-10z"/><path fill="#FFF200" opacity=".431" d="M160 320h10v10h-10zm10 0h10v10h-10z"/><path fill="#FFF200" opacity=".137" d="M180 320h10v10h-10zm-20 10h10v10h-10zm10 0h10v10h-10z"/></svg>