<svg width="120" height="120" xmlns="http://www.w3.org/2000/svg" shape-rendering="crispEdges"><path fill="#0C161C" d="M24 12h4v4h-4z"/><path d="M28 12h4v4h-4zm4 0h4v4h-4z"/><path fill="#0C161C" d="M20 16h4v4h-4z"/><path fill="#7FD5FF" d="M24 16h4v4h-4z"/><path fill="#C1F0FF" d="M28 16h4v4h-4z"/><path fill="#395766" d="M32 16h4v4h-4z"/><path d="M36 16h4v4h-4zm4 0h4v4h-4zm4 0h4v4h-4z"/><path fill="#0C161C" d="M16 20h4v4h-4z"/><path fill="#BDE1F1" d="M20 20h4v4h-4z"/><path fill="#16272F" d="M24 20h4v4h-4z"/><path fill="#5D7681" d="M28 20h4v4h-4z"/><path fill="#1E465E" d="M32 20h4v4h-4z"/><path fill="#D5F9FF" d="M36 20h4v4h-4z"/><path fill="#669FBC" d="M40 20h4v4h-4zm4 0h4v4h-4z"/><path d="M48 20h4v4h-4zm4 0h4v4h-4z"/><path fill="#060A0D" d="M16 24h4v4h-4z"/><path fill="#9EB0B8" d="M20 24h4v4h-4z"/><path fill="#BDE1F1" d="M24 24h4v4h-4z"/><path fill="#16272F" d="M28 24h4v4h-4z"/><path fill="#9EB0B8" d="M32 24h4v4h-4z"/><path fill="#16272F" d="M36 24h4v4h-4z"/><path fill="#E7F8FF" d="M40 24h4v4h-4z"/><path fill="#2A3033" d="M44 24h4v4h-4z"/><path fill="#669FBC" d="M48 24h4v4h-4zm4 0h4v4h-4z"/><path fill="#0C161C" d="M56 24h4v4h-4zm-40 4h4v4h-4z"/><path fill="#3A515B" d="M20 28h4v4h-4z"/><path fill="#3A4247" d="M24 28h4v4h-4z"/><path fill="#16272F" d="M28 28h4v4h-4z"/><path fill="#5D7681" d="M32 28h4v4h-4z"/><path fill="#1C2327" d="M36 28h4v4h-4z"/><path fill="#16272F" d="M40 28h4v4h-4z"/><path fill="#BDE1F1" d="M44 28h4v4h-4z"/><path fill="#263F4E" d="M48 28h4v4h-4z"/><path fill="#16272F" d="M52 28h4v4h-4z"/><path fill="#D5F9FF" d="M56 28h4v4h-4z"/><path fill="#102838" d="M60 28h4v4h-4z"/><path fill="#0C161C" d="M64 28h4v4h-4z"/><path fill="#060A0D" d="M16 32h4v4h-4z"/><path fill="#21353F" d="M20 32h4v4h-4z"/><path fill="#030A0F" d="M24 32h4v4h-4z"/><path fill="#3A4247" d="M28 32h4v4h-4z"/><path fill="#16272F" d="M32 32h4v4h-4z"/><path fill="#5D7681" d="M36 32h4v4h-4z"/><path fill="#9EB0B8" d="M40 32h4v4h-4z"/><path fill="#7B909A" d="M44 32h4v4h-4z"/><path fill="#0E2432" d="M48 32h4v4h-4z"/><path fill="#9EB0B8" d="M52 32h4v4h-4z"/><path fill="#16272F" d="M56 32h4v4h-4z"/><path fill="#BDE1F1" d="M60 32h4v4h-4z"/><path fill="#F0FEFF" d="M64 32h4v4h-4z"/><path fill="#0C161C" d="M68 32h4v4h-4zm4 0h4v4h-4z"/><path fill="#060A0D" d="M20 36h4v4h-4z"/><path fill="#5D7681" d="M24 36h4v4h-4z"/><path fill="#333F45" d="M28 36h4v4h-4z"/><path fill="#0A1419" d="M32 36h4v4h-4z"/><path fill="#3C5762" d="M36 36h4v4h-4z"/><path fill="#3A515B" d="M40 36h4v4h-4z"/><path fill="#0E2432" d="M44 36h4v4h-4z"/><path fill="#16272F" d="M48 36h4v4h-4z"/><path fill="#5D666B" d="M52 36h4v4h-4z"/><path fill="#9EB0B8" d="M56 36h4v4h-4z"/><path fill="#16272F" d="M60 36h4v4h-4z"/><path fill="#5D7681" d="M64 36h4v4h-4z"/><path fill="#BDE1F1" d="M68 36h4v4h-4z"/><path fill="#E7F8FF" d="M72 36h4v4h-4z"/><path fill="#0C161C" d="M76 36h4v4h-4z"/><path fill="#030C11" d="M84 36h4v4h-4zm4 0h4v4h-4zm4 0h4v4h-4z"/><path d="M20 40h4v4h-4z"/><path fill="#0E2432" d="M24 40h4v4h-4z"/><path fill="#5D7681" d="M28 40h4v4h-4z"/><path fill="#5D666B" d="M32 40h4v4h-4z"/><path fill="#030A0F" d="M36 40h4v4h-4z"/><path fill="#21353F" d="M40 40h4v4h-4z"/><path fill="#0E2432" d="M44 40h4v4h-4z"/><path fill="#E7F8FF" d="M48 40h4v4h-4z"/><path fill="#16272F" d="M52 40h4v4h-4z"/><path fill="#5D666B" d="M56 40h4v4h-4z"/><path fill="#9EB0B8" d="M60 40h4v4h-4z"/><path fill="#16272F" d="M64 40h4v4h-4z"/><path fill="#5D7681" d="M68 40h4v4h-4z"/><path fill="#C1F0FF" d="M72 40h4v4h-4z"/><path fill="#D5F9FF" d="M76 40h4v4h-4z"/><path fill="#0C161C" d="M80 40h4v4h-4z"/><path fill="#5D666B" d="M84 40h4v4h-4z"/><path fill="#333F45" d="M88 40h4v4h-4z"/><path fill="#BDE1F1" d="M92 40h4v4h-4z"/><path fill="#0C161C" d="M96 40h4v4h-4z"/><path d="M20 44h4v4h-4z"/><path fill="#121F28" d="M24 44h4v4h-4z"/><path fill="#0E2432" d="M28 44h4v4h-4z"/><path fill="#333F45" d="M32 44h4v4h-4z"/><path fill="#5D666B" d="M36 44h4v4h-4z"/><path fill="#0A1419" d="M40 44h4v4h-4z"/><path fill="#0E2432" d="M44 44h4v4h-4z"/><path fill="#BDE1F1" d="M48 44h4v4h-4z"/><path fill="#16272F" d="M52 44h4v4h-4z"/><path fill="#333F45" d="M56 44h4v4h-4z"/><path fill="#5D666B" d="M60 44h4v4h-4z"/><path fill="#C1F0FF" d="M64 44h4v4h-4z"/><path fill="#16272F" d="M68 44h4v4h-4z"/><path fill="#5D7681" d="M72 44h4v4h-4z"/><path fill="#9EB0B8" d="M76 44h4v4h-4z"/><path fill="#D5F9FF" d="M80 44h4v4h-4z"/><path fill="#16272F" d="M84 44h4v4h-4zm4 0h4v4h-4z"/><path fill="#5D666B" d="M92 44h4v4h-4z"/><path fill="#BDE1F1" d="M96 44h4v4h-4z"/><path fill="#0C161C" d="M100 44h4v4h-4z"/><path d="M20 48h4v4h-4z"/><path fill="#06080B" d="M24 48h4v4h-4z"/><path fill="#0E2432" d="M28 48h4v4h-4z"/><path fill="#7B909A" d="M32 48h4v4h-4z"/><path fill="#2A3033" d="M36 48h4v4h-4z"/><path fill="#46555F" d="M40 48h4v4h-4z"/><path fill="#0A1419" d="M44 48h4v4h-4z"/><path fill="#5D7681" d="M48 48h4v4h-4z"/><path fill="#E7F8FF" d="M52 48h4v4h-4z"/><path fill="#16272F" d="M56 48h4v4h-4z"/><path fill="#5D666B" d="M60 48h4v4h-4z"/><path fill="#9EB0B8" d="M64 48h4v4h-4z"/><path fill="#16272F" d="M68 48h4v4h-4zm4 0h4v4h-4z"/><path fill="#5D7681" d="M76 48h4v4h-4zm4 0h4v4h-4z"/><path fill="#C1F0FF" d="M84 48h4v4h-4z"/><path fill="#D5F9FF" d="M88 48h4v4h-4z"/><path fill="#16272F" d="M92 48h4v4h-4z"/><path fill="#5D666B" d="M96 48h4v4h-4z"/><path fill="#9EB0B8" d="M100 48h4v4h-4z"/><path fill="#0C161C" d="M104 48h4v4h-4z"/><path d="M24 52h4v4h-4z"/><path fill="#06080B" d="M28 52h4v4h-4z"/><path fill="#0A1419" d="M32 52h4v4h-4z"/><path fill="#1D2D36" d="M36 52h4v4h-4zm4 0h4v4h-4z"/><path fill="#0A1419" d="M44 52h4v4h-4z"/><path fill="#5D7681" d="M48 52h4v4h-4z"/><path fill="#BDE1F1" d="M52 52h4v4h-4z"/><path fill="#16272F" d="M56 52h4v4h-4z"/><path fill="#333F45" d="M60 52h4v4h-4z"/><path fill="#5D666B" d="M64 52h4v4h-4z"/><path d="M68 52h4v4h-4z"/><path fill="#4B585E" d="M72 52h4v4h-4z"/><path fill="#16272F" d="M76 52h4v4h-4zm4 0h4v4h-4z"/><path fill="#5D7681" d="M84 52h4v4h-4z"/><path fill="#C1F0FF" d="M88 52h4v4h-4zm4 0h4v4h-4z"/><path fill="#16272F" d="M96 52h4v4h-4z"/><path fill="#5D666B" d="M100 52h4v4h-4z"/><path fill="#7FD5FF" d="M104 52h4v4h-4z"/><path fill="#0C161C" d="M108 52h4v4h-4z"/><path d="M28 56h4v4h-4z"/><path fill="#06080B" d="M32 56h4v4h-4z"/><path d="M36 56h4v4h-4z"/><path fill="#0D1114" d="M40 56h4v4h-4z"/><path fill="#0A1419" d="M44 56h4v4h-4z"/><path fill="#21353F" d="M48 56h4v4h-4z"/><path fill="#9EB0B8" d="M52 56h4v4h-4z"/><path fill="#E7F8FF" d="M56 56h4v4h-4z"/><path fill="#16272F" d="M60 56h4v4h-4z"/><path fill="#5D666B" d="M64 56h4v4h-4z"/><path d="M68 56h4v4h-4z"/><path fill="#395766" d="M72 56h4v4h-4z"/><path fill="#4B585E" d="M76 56h4v4h-4z"/><path fill="#7FB8D6" d="M80 56h4v4h-4z"/><path fill="#16272F" d="M84 56h4v4h-4z"/><path fill="#5D7681" d="M88 56h4v4h-4z"/><path fill="#7FD5FF" d="M92 56h4v4h-4z"/><path fill="#C1F0FF" d="M96 56h4v4h-4z"/><path fill="#16272F" d="M100 56h4v4h-4z"/><path fill="#5D7681" d="M104 56h4v4h-4z"/><path fill="#0C161C" d="M108 56h4v4h-4z"/><path d="M32 60h4v4h-4z"/><path fill="#030A0F" d="M36 60h4v4h-4z"/><path fill="#3A515B" d="M40 60h4v4h-4z"/><path fill="#7B909A" d="M44 60h4v4h-4z"/><path fill="#0A1419" d="M48 60h4v4h-4z"/><path fill="#5D7681" d="M52 60h4v4h-4z"/><path fill="#BDE1F1" d="M56 60h4v4h-4z"/><path fill="#16272F" d="M60 60h4v4h-4z"/><path fill="#333F45" d="M64 60h4v4h-4z"/><path fill="#2A3033" d="M68 60h4v4h-4z"/><path fill="#395766" d="M72 60h4v4h-4z"/><path fill="#BDE1F1" d="M76 60h4v4h-4z"/><path fill="#4B585E" d="M80 60h4v4h-4z"/><path fill="#5D666B" d="M84 60h4v4h-4z"/><path fill="#16272F" d="M88 60h4v4h-4z"/><path fill="#3C5762" d="M92 60h4v4h-4z"/><path fill="#7FD5FF" d="M96 60h4v4h-4z"/><path fill="#16272F" d="M100 60h4v4h-4z"/><path fill="#3C5762" d="M104 60h4v4h-4z"/><path fill="#0C161C" d="M108 60h4v4h-4z"/><path fill="#060A0D" d="M12 64h4v4h-4z"/><path fill="#0C161C" d="M16 64h4v4h-4zm4 0h4v4h-4z"/><path fill="#030C11" d="M36 64h4v4h-4z"/><path d="M40 64h4v4h-4z"/><path fill="#0A1419" d="M44 64h4v4h-4z"/><path fill="#0C1A21" d="M48 64h4v4h-4z"/><path fill="#21353F" d="M52 64h4v4h-4z"/><path fill="#5D7681" d="M56 64h4v4h-4z"/><path fill="#BDE1F1" d="M60 64h4v4h-4z"/><path fill="#0A1419" d="M64 64h4v4h-4z"/><path fill="#1B2328" d="M68 64h4v4h-4z"/><path fill="#2A3033" d="M72 64h4v4h-4z"/><path fill="#395766" d="M76 64h4v4h-4z"/><path fill="#BDE1F1" d="M80 64h4v4h-4z"/><path fill="#4B585E" d="M84 64h4v4h-4z"/><path fill="#6F7F88" d="M88 64h4v4h-4z"/><path fill="#5D666B" d="M92 64h4v4h-4z"/><path fill="#3C5762" d="M96 64h4v4h-4z"/><path fill="#7FD5FF" d="M100 64h4v4h-4z"/><path fill="#0C161C" d="M104 64h4v4h-4z"/><path fill="#040709" d="M8 68h4v4H8z"/><path fill="#4B606B" d="M12 68h4v4h-4z"/><path fill="#16272F" d="M16 68h4v4h-4z"/><path fill="#BDE1F1" d="M20 68h4v4h-4z"/><path fill="#0C161C" d="M24 68h4v4h-4zm4 0h4v4h-4z"/><path d="M36 68h4v4h-4z"/><path fill="#0D1114" d="M40 68h4v4h-4z"/><path fill="#060D12" d="M44 68h4v4h-4z"/><path fill="#618CA2" d="M48 68h4v4h-4z"/><path fill="#0A1419" d="M52 68h4v4h-4z"/><path fill="#3A515B" d="M56 68h4v4h-4z"/><path fill="#5D7681" d="M60 68h4v4h-4z"/><path fill="#0A1419" d="M64 68h4v4h-4z"/><path d="M68 68h4v4h-4z"/><path fill="#0D1114" d="M72 68h4v4h-4z"/><path fill="#2A3033" d="M76 68h4v4h-4z"/><path fill="#16272F" d="M80 68h4v4h-4z"/><path fill="#BDE1F1" d="M84 68h4v4h-4z"/><path fill="#2A3033" d="M88 68h4v4h-4z"/><path fill="#333F45" d="M92 68h4v4h-4z"/><path fill="#3C5762" d="M96 68h4v4h-4z"/><path fill="#529DC4" d="M100 68h4v4h-4z"/><path fill="#0C161C" d="M104 68h4v4h-4z"/><path fill="#060A0D" d="M8 72h4v4H8z"/><path fill="#23363F" d="M12 72h4v4h-4z"/><path fill="#060D12" d="M16 72h4v4h-4z"/><path fill="#5D7681" d="M20 72h4v4h-4z"/><path fill="#9EB0B8" d="M24 72h4v4h-4zm4 0h4v4h-4z"/><path fill="#0C161C" d="M32 72h4v4h-4zm8 0h4v4h-4z"/><path fill="#23363F" d="M44 72h4v4h-4z"/><path fill="#4B606B" d="M48 72h4v4h-4z"/><path fill="#0A1419" d="M52 72h4v4h-4z"/><path fill="#21353F" d="M56 72h4v4h-4z"/><path fill="#5D7681" d="M60 72h4v4h-4z"/><path fill="#16272F" d="M64 72h4v4h-4z"/><path fill="#15191B" d="M68 72h4v4h-4z"/><path d="M72 72h4v4h-4z"/><path fill="#0D1114" d="M76 72h4v4h-4z"/><path fill="#2A3033" d="M80 72h4v4h-4z"/><path fill="#16272F" d="M84 72h4v4h-4z"/><path fill="#BDE1F1" d="M88 72h4v4h-4z"/><path fill="#232C31" d="M92 72h4v4h-4z"/><path fill="#333F45" d="M96 72h4v4h-4z"/><path fill="#3C5762" d="M100 72h4v4h-4z"/><path fill="#7FD5FF" d="M104 72h4v4h-4z"/><path fill="#0C161C" d="M108 72h4v4h-4z"/><path fill="#060A0D" d="M12 76h4v4h-4z"/><path fill="#23363F" d="M16 76h4v4h-4z"/><path fill="#0A1419" d="M20 76h4v4h-4z"/><path fill="#16272F" d="M24 76h4v4h-4z"/><path fill="#5D7681" d="M28 76h4v4h-4z"/><path fill="#9EB0B8" d="M32 76h4v4h-4z"/><path fill="#0C161C" d="M36 76h4v4h-4z"/><path fill="#070F13" d="M40 76h4v4h-4z"/><path fill="#071116" d="M44 76h4v4h-4z"/><path fill="#0D1920" d="M48 76h4v4h-4z"/><path fill="#4B606B" d="M52 76h4v4h-4z"/><path fill="#0A1419" d="M56 76h4v4h-4z"/><path fill="#21353F" d="M60 76h4v4h-4z"/><path fill="#5D7681" d="M64 76h4v4h-4z"/><path fill="#0A1419" d="M68 76h4v4h-4z"/><path fill="#7B909A" d="M72 76h4v4h-4z"/><path d="M76 76h4v4h-4z"/><path fill="#0D1114" d="M80 76h4v4h-4z"/><path fill="#16272F" d="M84 76h4v4h-4z"/><path fill="#5D7681" d="M88 76h4v4h-4z"/><path fill="#BDE1F1" d="M92 76h4v4h-4z"/><path fill="#232C31" d="M96 76h4v4h-4z"/><path d="M100 76h4v4h-4z"/><path fill="#3C5762" d="M104 76h4v4h-4z"/><path fill="#0C161C" d="M108 76h4v4h-4z"/><path fill="#010608" d="M12 80h4v4h-4z"/><path fill="#10171C" d="M16 80h4v4h-4z"/><path fill="#3A515B" d="M20 80h4v4h-4z"/><path fill="#15191B" d="M24 80h4v4h-4z"/><path fill="#16272F" d="M28 80h4v4h-4z"/><path fill="#5D7681" d="M32 80h4v4h-4z"/><path fill="#0C161C" d="M36 80h4v4h-4z"/><path fill="#070F13" d="M44 80h4v4h-4z"/><path fill="#071116" d="M48 80h4v4h-4z"/><path fill="#0D1920" d="M52 80h4v4h-4z"/><path fill="#23363F" d="M56 80h4v4h-4z"/><path fill="#060D12" d="M60 80h4v4h-4z"/><path fill="#21353F" d="M64 80h4v4h-4z"/><path fill="#0A1419" d="M68 80h4v4h-4z"/><path fill="#3A515B" d="M72 80h4v4h-4z"/><path fill="#7B909A" d="M76 80h4v4h-4z"/><path fill="#06080B" d="M80 80h4v4h-4z"/><path fill="#0D1114" d="M84 80h4v4h-4z"/><path fill="#16272F" d="M88 80h4v4h-4z"/><path fill="#5D7681" d="M92 80h4v4h-4z"/><path fill="#9EB0B8" d="M96 80h4v4h-4z"/><path d="M100 80h4v4h-4z"/><path fill="#3C5762" d="M104 80h4v4h-4z"/><path d="M108 80h4v4h-4z"/><path fill="#010608" d="M16 84h4v4h-4z"/><path fill="#06080B" d="M20 84h4v4h-4z"/><path fill="#0D1114" d="M24 84h4v4h-4z"/><path fill="#15191B" d="M28 84h4v4h-4z"/><path fill="#0C161C" d="M32 84h4v4h-4z"/><path fill="#070F13" d="M48 84h4v4h-4z"/><path fill="#000203" d="M52 84h4v4h-4z"/><path fill="#060B0E" d="M56 84h4v4h-4z"/><path fill="#23363F" d="M60 84h4v4h-4z"/><path fill="#0A1419" d="M64 84h4v4h-4zm4 0h4v4h-4z"/><path fill="#21353F" d="M72 84h4v4h-4z"/><path fill="#3A515B" d="M76 84h4v4h-4zm4 0h4v4h-4z"/><path fill="#06080B" d="M84 84h4v4h-4z"/><path fill="#0D1114" d="M88 84h4v4h-4z"/><path fill="#16272F" d="M92 84h4v4h-4z"/><path fill="#9EB0B8" d="M96 84h4v4h-4z"/><path fill="#2A3033" d="M100 84h4v4h-4z"/><path d="M104 84h4v4h-4zm4 0h4v4h-4zm-88 4h4v4h-4zm4 0h4v4h-4zm4 0h4v4h-4z"/><path fill="#000203" d="M56 88h4v4h-4z"/><path fill="#0D1920" d="M60 88h4v4h-4z"/><path fill="#4B606B" d="M64 88h4v4h-4z"/><path fill="#3A4247" d="M68 88h4v4h-4z"/><path fill="#0A1419" d="M72 88h4v4h-4zm4 0h4v4h-4z"/><path fill="#21353F" d="M80 88h4v4h-4z"/><path fill="#3A515B" d="M84 88h4v4h-4z"/><path fill="#06080B" d="M88 88h4v4h-4z"/><path fill="#0A1419" d="M92 88h4v4h-4z"/><path fill="#3A515B" d="M96 88h4v4h-4z"/><path fill="#7B909A" d="M100 88h4v4h-4z"/><path fill="#15191B" d="M104 88h4v4h-4z"/><path d="M108 88h4v4h-4z"/><path fill="#060A0D" d="M36 92h4v4h-4z"/><path fill="#0C161C" d="M40 92h4v4h-4zm4 0h4v4h-4z"/><path fill="#000203" d="M60 92h4v4h-4z"/><path fill="#0D1920" d="M64 92h4v4h-4z"/><path fill="#1B2C36" d="M68 92h4v4h-4z"/><path fill="#3A4247" d="M72 92h4v4h-4z"/><path fill="#212D35" d="M76 92h4v4h-4z"/><path d="M80 92h4v4h-4z"/><path fill="#15191B" d="M84 92h4v4h-4z"/><path fill="#3A515B" d="M88 92h4v4h-4z"/><path fill="#06080B" d="M92 92h4v4h-4z"/><path fill="#0A1419" d="M96 92h4v4h-4z"/><path fill="#7B909A" d="M100 92h4v4h-4z"/><path fill="#15191B" d="M104 92h4v4h-4z"/><path d="M108 92h4v4h-4zm-76 4h4v4h-4z"/><path fill="#16272F" d="M36 96h4v4h-4z"/><path fill="#5D7681" d="M40 96h4v4h-4z"/><path fill="#9EB0B8" d="M44 96h4v4h-4z"/><path fill="#0C161C" d="M48 96h4v4h-4z"/><path d="M64 96h4v4h-4z"/><path fill="#000203" d="M68 96h4v4h-4z"/><path fill="#1B2C36" d="M72 96h4v4h-4z"/><path fill="#1B2328" d="M76 96h4v4h-4z"/><path fill="#111719" d="M80 96h4v4h-4z"/><path d="M84 96h4v4h-4zm4 0h4v4h-4zm4 0h4v4h-4zm4 0h4v4h-4z"/><path fill="#06080B" d="M100 96h4v4h-4z"/><path fill="#0D1114" d="M104 96h4v4h-4z"/><path d="M108 96h4v4h-4zm-76 4h4v4h-4z"/><path fill="#0D1114" d="M36 100h4v4h-4z"/><path fill="#16272F" d="M40 100h4v4h-4z"/><path fill="#5D7681" d="M44 100h4v4h-4z"/><path fill="#9EB0B8" d="M48 100h4v4h-4z"/><path fill="#0C161C" d="M52 100h4v4h-4z"/><path fill="#000203" d="M72 100h4v4h-4zm4 0h4v4h-4z"/><path d="M80 100h4v4h-4z"/><path fill="#0D1114" d="M84 100h4v4h-4z"/><path fill="#06080B" d="M88 100h4v4h-4zm4 0h4v4h-4zm4 0h4v4h-4z"/><path d="M100 100h4v4h-4zm4 0h4v4h-4zm-68 4h4v4h-4zm4 0h4v4h-4z"/><path fill="#0C161C" d="M44 104h4v4h-4zm4 0h4v4h-4z"/><path d="M84 104h4v4h-4zm4 0h4v4h-4zm4 0h4v4h-4zm4 0h4v4h-4z"/></svg>